{
.appVersion = "3316";
.formatVersion = 3;
axes = (
{
name = "Optical size";
tag = opsz;
},
{
name = Weight;
tag = wght;
}
);
classes = (
{
automatic = 1;

glyphs = (
{
glyphname = .notdef;
lastChange = "2024-10-18 09:44:49 +0000";
layers = (
{
background = {
shapes = (
{
closed = 1;
nodes = (
(169,756,l),
(169,0,l),
(709,0,l),
(709,756,l)
);
},
{
closed = 1;
nodes = (
(256,702,l),
(623,702,l),
(439,427,l)
);
},
{
closed = 1;
nodes = (
(223,653,l),
(407,378,l),
(223,103,l)
);
},
{
closed = 1;
nodes = (
(655,103,l),
(472,378,l),
(655,653,l)
);
},
{
closed = 1;
nodes = (
(623,54,l),
(256,54,l),
(439,329,l)
);
}
);
};
layerId = "3F96BAE2-444C-49D6-BFC1-9C0488685DF2";
shapes = (
{
closed = 1;
nodes = (
(556,0,l),
(556,629,l),
(146,629,l),
(146,0,l)
);
},
{
closed = 1;
nodes = (
(207,572,l),
(494,572,l),
(494,57,l),
(207,57,l)
);
}
);
width = 669;
},
{
background = {
shapes = (
{
closed = 1;
nodes = (
(169,756,l),
(169,0,l),
(709,0,l),
(709,756,l)
);
},
{
closed = 1;
nodes = (
(256,702,l),
(623,702,l),
(439,427,l)
);
},
{
closed = 1;
nodes = (
(223,653,l),
(407,378,l),
(223,103,l)
);
},
{
closed = 1;
nodes = (
(655,103,l),
(472,378,l),
(655,653,l)
);
},
{
closed = 1;
nodes = (
(623,54,l),
(256,54,l),
(439,329,l)
);
}
);
};
layerId = "DA9A1FD1-A1AE-48D8-AEBB-5D2735E579CD";
shapes = (
{
closed = 1;
nodes = (
(556,0,l),
(556,629,l),
(146,629,l),
(146,0,l)
);
},
{
closed = 1;
nodes = (
(207,572,l),
(494,572,l),
(494,57,l),
(207,57,l)
);
}
);
width = 670;
},
{
background = {
shapes = (
{
closed = 1;
nodes = (
(170,756,l),
(170,0,l),
(710,0,l),
(710,756,l)
);
},
{
closed = 1;
nodes = (
(257,702,l),
(624,702,l),
(440,427,l)
);
},
{
closed = 1;
nodes = (
(224,653,l),
(408,378,l),
(224,103,l)
);
},
{
closed = 1;
nodes = (
(656,103,l),
(473,378,l),
(656,653,l)
);
},
{
closed = 1;
nodes = (
(624,54,l),
(257,54,l),
(440,329,l)
);
}
);
};
layerId = "D87563F8-F81F-45D9-80E8-0AF800F60BE2";
shapes = (
{
closed = 1;
nodes = (
(557,0,l),
(557,629,l),
(147,629,l),
(147,0,l)
);
},
{
closed = 1;
nodes = (
(208,572,l),
(495,572,l),
(495,57,l),
(208,57,l)
);
}
);
width = 670;
},
{
background = {
shapes = (
{
closed = 1;
nodes = (
(169,756,l),
(169,0,l),
(709,0,l),
(709,756,l)
);
},
{
closed = 1;
nodes = (
(256,702,l),
(623,702,l),
(439,427,l)
);
},
{
closed = 1;
nodes = (
(223,653,l),
(407,378,l),
(223,103,l)
);
},
{
closed = 1;
nodes = (
(655,103,l),
(472,378,l),
(655,653,l)
);
},
{
closed = 1;
nodes = (
(623,54,l),
(256,54,l),
(439,329,l)
);
}
);
};
layerId = "51D6B0A0-6F19-4220-A6A1-A0AA8B6A64E3";
shapes = (
{
closed = 1;
nodes = (
(556,0,l),
(556,629,l),
(146,629,l),
(146,0,l)
);
},
{
closed = 1;
nodes = (
(207,572,l),
(494,572,l),
(494,57,l),
(207,57,l)
);
}
);
width = 669;
}
);
note = .notdef;
},
{
color = 3;
glyphname = A;
kernLeft = A;
kernRight = A;
lastChange = "2024-10-18 09:20:41 +0000";
layers = (
{
anchors = (
{
name = bottom;
pos = (272,0);
},
{
name = ogonek;
pos = (523,10);
},
{
name = top;
pos = (386,629);
}
);
hints = (
{
horizontal = 1;
origin = (0,40);
target = (0,39);
type = Stem;
},
{
horizontal = 1;
origin = (1,3);
target = (1,2);
type = Stem;
},
{
horizontal = 1;
origin = (0,35);
target = down;
type = TopGhost;
},
{
horizontal = 1;
origin = (0,26);
target = (0,39);
type = Stem;
}
);
layerId = "3F96BAE2-444C-49D6-BFC1-9C0488685DF2";
shapes = (
{
closed = 1;
nodes = (
(-2,-1,o),
(32,0,o),
(51,0,cs),
(87,0,o),
(122,-1,o),
(149,-3,c),
(153,24,l),
(132,24,ls),
(108,24,o),
(86,27,o),
(86,51,cs),
(86,66,o),
(110,110,o),
(117,122,cs),
(380,579,l),
(356,566,l),
(432,89,ls),
(433,80,o),
(434,70,o),
(434,62,cs),
(434,33,o),
(418,27,o),
(359,24,c),
(355,-3,l),
(396,-2,o),
(454,0,o),
(478,0,cs),
(503,0,o),
(540,-1,o),
(579,-3,c),
(583,24,l),
(524,24,o),
(510,38,o),
(500,99,cs),
(414,641,l),
(388,641,l),
(73,109,ls),
(36,46,o),
(25,25,o),
(-38,24,c),
(-43,-3,l)
);
},
{
closed = 1;
nodes = (
(403,291,l),
(400,321,l),
(221,321,l),
(205,291,l)
);
}
);
width = 616;
},
{
anchors = (
{
name = bottom;
pos = (297,0);
},
{
name = ogonek;
pos = (563,10);
},
{
name = top;
pos = (412,629);
}
);
background = {
shapes = (
{
closed = 1;
nodes = (
(72,92,ls),
(38,33,o),
(28,14,o),
(-31,13,c),
(-34,-3,l),
(4,-1,o),
(35,0,o),
(53,0,cs),
(76,0,o),
(108,-1,o),
(133,-3,c),
(136,14,l),
(117,14,ls),
(94,14,o),
(74,16,o),
(74,38,cs),
(74,56,o),
(98,96,o),
(103,104,cs),
(202,273,l),
(378,273,l),
(408,73,ls),
(409,65,o),
(410,56,o),
(410,48,cs),
(410,21,o),
(395,17,o),
(337,14,c),
(334,-3,l),
(372,-2,o),
(426,0,o),
(448,0,cs),
(473,0,o),
(511,-1,o),
(551,-3,c),
(554,13,l),
(493,13,o),
(477,26,o),
(465,103,cs),
(389,595,l),
(365,595,l)
);
},
{
closed = 1;
nodes = (
(340,510,l),
(374,297,l),
(214,297,l)
);
}
);
};
layerId = "DA9A1FD1-A1AE-48D8-AEBB-5D2735E579CD";
shapes = (
{
closed = 1;
nodes = (
(4,-1,o),
(38,0,o),
(57,0,cs),
(99,0,o),
(133,-1,o),
(160,-3,c),
(164,25,l),
(144,25,ls),
(119,25,o),
(97,27,o),
(97,51,cs),
(97,69,o),
(116,100,o),
(129,122,cs),
(410,593,l),
(357,529,l),
(425,89,ls),
(426,80,o),
(427,70,o),
(427,62,cs),
(427,33,o),
(411,28,o),
(348,25,c),
(344,-3,l),
(389,-2,o),
(481,0,o),
(505,0,cs),
(534,0,o),
(579,-1,o),
(627,-3,c),
(631,24,l),
(573,24,o),
(560,38,o),
(546,121,cs),
(460,641,l),
(404,641,l),
(79,109,ls),
(41,47,o),
(31,25,o),
(-32,24,c),
(-37,-3,l)
);
},
{
closed = 1;
nodes = (
(409,287,l),
(406,321,l),
(227,321,l),
(211,287,l)
);
}
);
width = 661;
},
{
anchors = (
{
name = bottom;
pos = (273,0);
},
{
name = ogonek;
pos = (519,10);
},
{
name = top;
pos = (380,629);
}
);
layerId = "D87563F8-F81F-45D9-80E8-0AF800F60BE2";
shapes = (
{
closed = 1;
nodes = (
(-2,-1,o),
(31,0,o),
(50,0,cs),
(71,0,o),
(106,-1,o),
(133,-3,c),
(135,8,l),
(114,8,ls),
(90,8,o),
(68,11,o),
(68,35,cs),
(68,54,o),
(94,98,o),
(99,106,cs),
(370,580,l),
(359,577,l),
(431,93,ls),
(434,70,o),
(435,58,o),
(435,48,cs),
(435,21,o),
(419,11,o),
(356,8,c),
(354,-3,l),
(395,-2,o),
(453,0,o),
(477,0,cs),
(502,0,o),
(539,-1,o),
(578,-3,c),
(580,8,l),
(521,8,o),
(508,28,o),
(495,111,cs),
(413,641,l),
(387,641,l),
(70,93,ls),
(34,30,o),
(22,9,o),
(-41,8,c),
(-43,-3,l)
);
},
{
closed = 1;
nodes = (
(412,299,l),
(409,317,l),
(204,317,l),
(204,299,l)
);
}
);
width = 611;
},
{
anchors = (
{
name = bottom;
pos = (294,0);
},
{
name = ogonek;
pos = (558,10);
},
{
name = top;
pos = (406,629);
}
);
background = {
shapes = (
{
closed = 1;
nodes = (
(-2,-1,o),
(32,0,o),
(51,0,cs),
(89,0,o),
(123,-1,o),
(150,-3,c),
(154,25,l),
(134,25,ls),
(109,25,o),
(87,27,o),
(87,51,cs),
(87,70,o),
(114,113,o),
(119,122,cs),
(219,292,l),
(389,292,l),
(419,89,ls),
(420,80,o),
(421,70,o),
(421,62,cs),
(421,33,o),
(405,28,o),
(342,25,c),
(338,-3,l),
(383,-2,o),
(475,0,o),
(499,0,cs),
(526,0,o),
(567,-1,o),
(611,-3,c),
(615,24,l),
(564,24,o),
(554,38,o),
(540,121,cs),
(454,641,l),
(398,641,l),
(73,109,ls),
(35,47,o),
(25,25,o),
(-38,24,c),
(-43,-3,l)
);
},
{
closed = 1;
nodes = (
(399,593,l),
(354,529,l),
(384,324,l),
(239,324,l)
);
}
);
};
layerId = "51D6B0A0-6F19-4220-A6A1-A0AA8B6A64E3";
shapes = (
{
closed = 1;
nodes = (
(-2,-1,o),
(32,0,o),
(51,0,cs),
(84,0,o),
(118,-1,o),
(145,-3,c),
(147,10,l),
(127,10,ls),
(97,10,o),
(70,12,o),
(70,36,cs),
(70,55,o),
(97,98,o),
(102,107,cs),
(386,586,l),
(342,537,l),
(413,74,ls),
(414,65,o),
(415,55,o),
(415,47,cs),
(415,18,o),
(399,13,o),
(336,10,c),
(334,-3,l),
(379,-2,o),
(475,0,o),
(499,0,cs),
(528,0,o),
(572,-1,o),
(620,-3,c),
(622,10,l),
(564,10,o),
(552,23,o),
(538,106,cs),
(447,641,l),
(400,641,l),
(71,94,ls),
(33,31,o),
(23,11,o),
(-40,10,c),
(-43,-3,l)
);
},
{
closed = 1;
nodes = (
(402,297,l),
(384,318,l),
(218,318,l),
(206,297,l)
);
}
);
width = 654;
}
);
note = A;
unicode = 65;
},
{
color = 3;
glyphname = AE;
kernLeft = A;
kernRight = E;
lastChange = "2024-10-18 09:42:06 +0000";
layers = (
{
anchors = (
{
name = bottom;
pos = (356,0);
},
{
name = top;
pos = (534,629);
}
);
layerId = "3F96BAE2-444C-49D6-BFC1-9C0488685DF2";
shapes = (
{
closed = 1;
nodes = (
(8,-1,o),
(42,0,o),
(61,0,cs),
(97,0,o),
(132,-1,o),
(159,-3,c),
(163,24,l),
(142,24,ls),
(118,24,o),
(96,27,o),
(97,51,cs),
(98,66,o),
(112,89,o),
(134,122,cs),
(453,596,l),
(458,596,l),
(374,66,ls),
(369,32,o),
(341,24,o),
(308,24,cs),
(285,24,l),
(281,-3,l),
(354,-2,o),
(476,0,o),
(506,0,cs),
(569,0,o),
(631,-1,o),
(698,-3,c),
(751,144,l),
(725,144,l),
(690,68,o),
(667,34,o),
(613,34,cs),
(506,34,ls),
(463,34,o),
(448,44,o),
(448,63,cs),
(448,77,o),
(451,103,o),
(454,119,cs),
(486,323,l),
(637,323,ls),
(662,323,o),
(671,312,o),
(671,282,cs),
(671,271,o),
(669,261,o),
(668,253,c),
(694,254,l),
(719,413,l),
(694,413,l),
(688,373,o),
(670,354,o),
(638,354,cs),
(491,354,l),
(529,597,l),
(687,597,ls),
(727,597,o),
(737,563,o),
(737,537,cs),
(737,513,l),
(762,513,l),
(782,632,l),
(747,630,o),
(670,629,o),
(608,629,cs),
(534,629,o),
(411,630,o),
(360,632,c),
(355,605,l),
(407,605,o),
(414,603,o),
(414,595,cs),
(414,588,o),
(401,565,o),
(392,552,cs),
(89,109,ls),
(45,45,o),
(37,25,o),
(-28,24,c),
(-33,-3,l)
);
},
{
closed = 1;
nodes = (
(427,291,l),
(425,321,l),
(246,321,l),
(229,291,l)
);
}
);
width = 777;
},
{
anchors = (
{
name = bottom;
pos = (374,0);
},
{
name = top;
pos = (566,629);
}
);
layerId = "DA9A1FD1-A1AE-48D8-AEBB-5D2735E579CD";
shapes = (
{
closed = 1;
nodes = (
(-4,-1,o),
(25,0,o),
(54,0,cs),
(94,0,o),
(121,-1,o),
(153,-3,c),
(158,25,l),
(142,25,ls),
(110,25,o),
(92,34,o),
(92,55,cs),
(92,77,o),
(108,97,o),
(125,121,cs),
(453,599,l),
(457,599,l),
(377,76,ls),
(371,34,o),
(345,25,o),
(311,25,cs),
(289,25,l),
(284,-3,l),
(375,-2,o),
(529,0,o),
(559,0,cs),
(622,0,o),
(663,-1,o),
(730,-3,c),
(783,144,l),
(755,144,l),
(722,71,o),
(701,34,o),
(647,34,cs),
(561,34,ls),
(518,34,o),
(503,50,o),
(503,74,cs),
(503,88,o),
(507,114,o),
(509,130,cs),
(538,320,l),
(656,320,ls),
(688,320,o),
(701,309,o),
(701,282,cs),
(701,271,o),
(699,257,o),
(698,249,c),
(725,250,l),
(750,413,l),
(724,413,l),
(718,375,o),
(695,354,o),
(659,354,cs),
(543,354,l),
(580,595,l),
(718,595,ls),
(760,595,o),
(767,561,o),
(767,537,cs),
(767,513,l),
(793,513,l),
(813,632,l),
(778,630,o),
(702,629,o),
(639,629,cs),
(566,629,o),
(402,632,o),
(339,634,c),
(335,606,l),
(376,605,o),
(400,603,o),
(400,588,cs),
(400,577,o),
(390,559,o),
(382,548,cs),
(69,98,ls),
(30,42,o),
(8,27,o),
(-29,25,c),
(-34,-3,l)
);
},
{
closed = 1;
nodes = (
(452,287,l),
(449,321,l),
(240,321,l),
(224,287,l)
);
}
);
width = 815;
},
{
anchors = (
{
name = bottom;
pos = (355,0);
},
{
name = top;
pos = (561,629);
}
);
layerId = "D87563F8-F81F-45D9-80E8-0AF800F60BE2";
shapes = (
{
closed = 1;
nodes = (
(8,-1,o),
(42,0,o),
(61,0,cs),
(88,0,o),
(123,-1,o),
(150,-3,c),
(151,8,l),
(130,8,ls),
(106,8,o),
(84,11,o),
(85,35,cs),
(86,50,o),
(100,73,o),
(122,106,cs),
(461,618,l),
(466,618,l),
(374,66,ls),
(367,24,o),
(339,8,o),
(306,8,cs),
(283,8,l),
(281,-3,l),
(354,-2,o),
(472,0,o),
(502,0,cs),
(565,0,o),
(627,-1,o),
(694,-3,c),
(747,144,l),
(736,144,l),
(697,55,o),
(672,15,o),
(612,15,cs),
(497,15,ls),
(457,15,o),
(443,31,o),
(443,63,cs),
(443,77,o),
(446,103,o),
(449,119,cs),
(483,329,l),
(640,329,ls),
(670,329,o),
(682,316,o),
(682,282,cs),
(682,271,o),
(680,261,o),
(679,253,c),
(690,254,l),
(715,413,l),
(705,413,l),
(698,371,o),
(676,347,o),
(639,347,cs),
(486,347,l),
(530,614,l),
(688,614,ls),
(741,614,o),
(748,570,o),
(748,537,cs),
(748,513,l),
(758,513,l),
(778,632,l),
(743,630,o),
(666,629,o),
(604,629,cs),
(533,629,o),
(421,630,o),
(370,632,c),
(369,621,l),
(384,621,o),
(427,618,o),
(427,603,cs),
(427,596,o),
(418,577,o),
(407,560,cs),
(94,93,ls),
(50,27,o),
(38,9,o),
(-31,8,c),
(-33,-3,l)
);
},
{
closed = 1;
nodes = (
(427,291,l),
(425,307,l),
(248,307,l),
(231,291,l)
);
}
);
width = 773;
},
{
anchors = (
{
name = bottom;
pos = (374,0);
},
{
name = top;
pos = (583,629);
}
);
layerId = "51D6B0A0-6F19-4220-A6A1-A0AA8B6A64E3";
shapes = (
{
closed = 1;
nodes = (
(-4,-1,o),
(25,0,o),
(54,0,cs),
(94,0,o),
(121,-1,o),
(153,-3,c),
(156,10,l),
(140,10,ls),
(108,10,o),
(93,19,o),
(93,40,cs),
(93,62,o),
(106,82,o),
(123,107,cs),
(454,599,l),
(457,599,l),
(376,66,ls),
(370,24,o),
(341,10,o),
(307,10,cs),
(285,10,l),
(283,-3,l),
(374,-2,o),
(528,0,o),
(558,0,cs),
(621,0,o),
(662,-1,o),
(729,-3,c),
(782,144,l),
(768,144,l),
(731,63,o),
(702,27,o),
(643,27,cs),
(557,27,ls),
(514,27,o),
(499,39,o),
(499,63,cs),
(499,77,o),
(502,103,o),
(505,119,cs),
(538,324,l),
(670,324,ls),
(701,324,o),
(713,312,o),
(713,282,cs),
(713,271,o),
(711,262,o),
(710,254,c),
(724,254,l),
(749,413,l),
(736,413,l),
(730,373,o),
(707,351,o),
(670,351,cs),
(542,351,l),
(583,604,l),
(719,604,ls),
(768,604,o),
(779,566,o),
(779,537,cs),
(779,513,l),
(792,513,l),
(812,632,l),
(777,630,o),
(701,629,o),
(638,629,cs),
(565,629,o),
(427,632,o),
(364,634,c),
(361,621,l),
(402,620,o),
(424,617,o),
(424,602,cs),
(424,592,o),
(409,564,o),
(398,548,cs),
(82,83,ls),
(42,24,o),
(11,12,o),
(-31,10,c),
(-34,-3,l)
);
},
{
closed = 1;
nodes = (
(436,297,l),
(428,318,l),
(252,318,l),
(240,297,l)
);
}
);
width = 814;
}
);
metricRight = E;
note = AE;
unicode = 198;
},
{
color = 3;
glyphname = B;
kernLeft = H;
kernRight = B;
lastChange = "2024-10-18 09:42:47 +0000";
layers = (
{
anchors = (
{
name = bottom;
pos = (230,0);
},
{
name = center;
pos = (280,315);
},
{
name = top;
pos = (330,629);
}
);
hints = (
{
horizontal = 1;
origin = (0,33);
target = (1,15);
type = Stem;
},
{
horizontal = 1;
origin = (1,9);
target = (2,9);
type = Stem;
},
{
horizontal = 1;
origin = (0,17);
target = (2,3);
type = Stem;
},
{
horizontal = 1;
origin = (0,33);
target = (0,32);
type = Stem;
}
);
layerId = "3F96BAE2-444C-49D6-BFC1-9C0488685DF2";
shapes = (
{
closed = 1;
nodes = (
(56,-1,o),
(97,0,o),
(137,0,cs),
(170,0,o),
(219,-3,o),
(250,-3,cs),
(373,-3,o),
(471,87,o),
(471,199,cs),
(471,268,o),
(427,315,o),
(352,352,c),
(421,389,o),
(470,440,o),
(470,516,cs),
(470,616,o),
(362,643,o),
(268,643,cs),
(243,643,o),
(177,642,o),
(122,636,c),
(117,609,l),
(136,609,ls),
(179,609,o),
(184,589,o),
(184,575,cs),
(184,561,o),
(183,543,o),
(181,531,cs),
(112,78,ls),
(105,35,o),
(86,26,o),
(18,24,c),
(14,-3,l)
);
},
{
closed = 1;
nodes = (
(197,21,o),
(182,32,o),
(182,62,cs),
(182,71,o),
(185,95,o),
(187,107,cs),
(222,330,l),
(232,331,o),
(252,332,o),
(261,332,cs),
(352,332,o),
(399,292,o),
(399,203,cs),
(399,97,o),
(358,21,o),
(248,21,cs)
);
},
{
closed = 1;
nodes = (
(246,359,o),
(236,359,o),
(226,361,c),
(265,617,l),
(365,614,o),
(404,579,o),
(404,500,cs),
(404,417,o),
(362,359,o),
(261,359,cs)
);
}
);
width = 516;
},
{
anchors = (
{
name = bottom;
pos = (276,0);
},
{
name = center;
pos = (326,315);
},
{
name = top;
pos = (376,629);
}
);
background = {
shapes = (
{
closed = 1;
nodes = (
(102,-1,o),
(143,0,o),
(183,0,cs),
(216,0,o),
(265,-3,o),
(296,-3,cs),
(419,-3,o),
(517,87,o),
(517,199,cs),
(517,268,o),
(473,315,o),
(398,352,c),
(467,389,o),
(516,440,o),
(516,516,cs),
(516,616,o),
(408,643,o),
(314,643,cs),
(289,643,o),
(223,642,o),
(168,636,c),
(163,608,l),
(182,608,ls),
(225,608,o),
(230,589,o),
(230,575,cs),
(230,561,o),
(229,543,o),
(227,531,cs),
(158,78,ls),
(151,35,o),
(132,27,o),
(64,25,c),
(60,-3,l)
);
},
{
closed = 1;
nodes = (
(243,21,o),
(228,32,o),
(228,62,cs),
(228,71,o),
(231,95,o),
(233,107,cs),
(268,330,l),
(278,331,o),
(298,332,o),
(307,332,cs),
(398,332,o),
(445,292,o),
(445,203,cs),
(445,97,o),
(404,21,o),
(294,21,cs)
);
},
{
closed = 1;
nodes = (
(292,359,o),
(282,359,o),
(272,361,c),
(311,617,l),
(411,614,o),
(450,579,o),
(450,500,cs),
(450,417,o),
(408,359,o),
(307,359,cs)
);
}
);
};
layerId = "DA9A1FD1-A1AE-48D8-AEBB-5D2735E579CD";
shapes = (
{
closed = 1;
nodes = (
(53,-1,o),
(94,0,o),
(178,0,cs),
(214,0,o),
(267,-3,o),
(300,-3,cs),
(457,-3,o),
(561,87,o),
(561,194,cs),
(561,270,o),
(509,321,o),
(430,352,c),
(496,378,o),
(560,429,o),
(560,513,cs),
(560,605,o),
(455,643,o),
(319,643,cs),
(235,643,o),
(166,637,o),
(119,636,c),
(115,608,l),
(133,608,ls),
(177,608,o),
(182,587,o),
(182,573,cs),
(182,559,o),
(181,541,o),
(179,529,cs),
(109,76,ls),
(102,33,o),
(84,27,o),
(15,25,c),
(11,-3,l)
);
},
{
closed = 1;
nodes = (
(256,26,o),
(243,36,o),
(243,66,cs),
(243,80,o),
(247,107,o),
(249,119,cs),
(280,327,l),
(290,328,o),
(304,330,o),
(312,330,cs),
(389,330,o),
(429,292,o),
(429,198,cs),
(429,99,o),
(395,26,o),
(301,26,cs)
);
},
{
closed = 1;
nodes = (
(301,357,o),
(298,357,o),
(285,359,c),
(324,614,l),
(397,608,o),
(435,569,o),
(435,492,cs),
(435,411,o),
(391,357,o),
(314,357,cs)
);
}
);
width = 608;
},
{
anchors = (
{
name = bottom;
pos = (235,0);
},
{
name = center;
pos = (285,315);
},
{
name = top;
pos = (334,629);
}
);
layerId = "D87563F8-F81F-45D9-80E8-0AF800F60BE2";
shapes = (
{
closed = 1;
nodes = (
(61,-1,o),
(102,0,o),
(142,0,cs),
(175,0,o),
(224,-3,o),
(255,-3,cs),
(378,-3,o),
(472,87,o),
(472,199,cs),
(472,268,o),
(432,315,o),
(343,353,c),
(426,396,o),
(471,445,o),
(471,516,cs),
(471,616,o),
(367,643,o),
(273,643,cs),
(244,643,o),
(173,640,o),
(127,636,c),
(125,625,l),
(144,625,ls),
(187,625,o),
(190,601,o),
(190,584,cs),
(190,570,o),
(189,552,o),
(187,540,cs),
(115,64,ls),
(108,21,o),
(89,10,o),
(21,8,c),
(19,-3,l)
);
},
{
closed = 1;
nodes = (
(199,11,o),
(183,23,o),
(183,62,cs),
(183,71,o),
(186,95,o),
(188,107,cs),
(224,335,l),
(235,336,o),
(257,337,o),
(267,337,cs),
(358,337,o),
(404,294,o),
(404,203,cs),
(404,89,o),
(363,11,o),
(253,11,cs)
);
},
{
closed = 1;
nodes = (
(250,350,o),
(244,350,o),
(227,352,c),
(268,631,l),
(370,628,o),
(409,591,o),
(409,500,cs),
(409,402,o),
(368,350,o),
(267,350,cs)
);
}
);
width = 523;
},
{
anchors = (
{
name = bottom;
pos = (275,0);
},
{
name = center;
pos = (325,315);
},
{
name = top;
pos = (375,629);
}
);
background = {
shapes = (
{
closed = 1;
nodes = (
(89,-1,o),
(127,0,o),
(164,0,cs),
(195,0,o),
(240,-3,o),
(269,-3,cs),
(383,-3,o),
(470,81,o),
(470,184,cs),
(470,248,o),
(433,292,o),
(353,326,c),
(427,367,o),
(469,412,o),
(469,478,cs),
(469,570,o),
(373,595,o),
(286,595,cs),
(275,595,o),
(193,590,o),
(150,589,c),
(147,574,l),
(164,574,ls),
(204,574,o),
(209,554,o),
(209,541,cs),
(209,528,o),
(208,511,o),
(206,500,cs),
(139,59,ls),
(133,19,o),
(115,14,o),
(52,12,c),
(50,-3,l)
);
},
{
closed = 1;
nodes = (
(217,13,o),
(202,25,o),
(202,57,cs),
(202,66,o),
(205,88,o),
(207,99,cs),
(240,309,l),
(250,310,o),
(271,311,o),
(280,311,cs),
(364,311,o),
(407,270,o),
(407,188,cs),
(407,86,o),
(369,13,o),
(267,13,cs)
);
},
{
closed = 1;
nodes = (
(264,327,o),
(259,327,o),
(243,329,c),
(281,579,l),
(375,576,o),
(412,542,o),
(412,463,cs),
(412,374,o),
(374,327,o),
(280,327,cs)
);
}
);
};
layerId = "51D6B0A0-6F19-4220-A6A1-A0AA8B6A64E3";
shapes = (
{
closed = 1;
nodes = (
(53,-1,o),
(94,0,o),
(178,0,cs),
(214,0,o),
(267,-3,o),
(300,-3,cs),
(457,-3,o),
(561,87,o),
(561,198,cs),
(561,268,o),
(503,328,o),
(430,352,c),
(505,378,o),
(560,429,o),
(560,514,cs),
(560,603,o),
(453,643,o),
(319,643,cs),
(235,643,o),
(166,637,o),
(119,636,c),
(117,623,l),
(134,623,ls),
(178,623,o),
(183,598,o),
(183,584,cs),
(183,570,o),
(182,552,o),
(180,540,cs),
(107,64,ls),
(100,21,o),
(82,12,o),
(13,10,c),
(11,-3,l)
);
},
{
closed = 1;
nodes = (
(254,14,o),
(239,27,o),
(239,62,cs),
(239,71,o),
(243,95,o),
(245,107,cs),
(281,334,l),
(291,335,o),
(305,336,o),
(313,336,cs),
(389,336,o),
(429,292,o),
(429,203,cs),
(429,93,o),
(394,14,o),
(299,14,cs)
);
},
{
closed = 1;
nodes = (
(300,353,o),
(297,353,o),
(284,355,c),
(325,625,l),
(397,619,o),
(435,581,o),
(435,500,cs),
(435,404,o),
(400,353,o),
(313,353,cs)
);
}
);
width = 607;
}
);
metricLeft = "=H*1.1";
metricRight = "=O*.8";
note = B;
unicode = 66;
},
{
color = 3;
glyphname = Bhook;
kernRight = B;
lastChange = "2024-10-18 09:42:43 +0000";
layers = (
{
layerId = "3F96BAE2-444C-49D6-BFC1-9C0488685DF2";
shapes = (
{
closed = 1;
nodes = (
(179,-1,o),
(220,0,o),
(260,0,cs),
(293,0,o),
(342,-3,o),
(373,-3,cs),
(496,-3,o),
(590,87,o),
(590,199,cs),
(590,268,o),
(552,315,o),
(474,353,c),
(548,393,o),
(589,445,o),
(589,516,cs),
(589,612,o),
(495,640,o),
(375,640,cs),
(176,640,o),
(90,577,o),
(73,474,cs),
(66,427,o),
(79,405,o),
(101,405,cs),
(120,405,o),
(135,419,o),
(137,432,cs),
(141,460,o),
(106,482,o),
(110,512,cs),
(117,557,o),
(196,606,o),
(268,606,cs),
(300,606,o),
(308,593,o),
(301,548,cs),
(231,74,ls),
(225,31,o),
(209,26,o),
(141,24,c),
(137,-3,l)
);
},
{
closed = 1;
nodes = (
(317,21,o),
(301,34,o),
(301,62,cs),
(301,71,o),
(304,95,o),
(306,107,cs),
(341,331,l),
(352,332,o),
(375,333,o),
(385,333,cs),
(473,333,o),
(517,290,o),
(517,203,cs),
(517,99,o),
(477,21,o),
(371,21,cs)
);
},
{
closed = 1;
nodes = (
(368,359,o),
(362,359,o),
(345,361,c),
(385,618,l),
(473,615,o),
(522,581,o),
(522,500,cs),
(522,404,o),
(476,353,o),
(385,358,cs)
);
}
);
width = 645;
},
{
layerId = "DA9A1FD1-A1AE-48D8-AEBB-5D2735E579CD";
shapes = (
{
closed = 1;
nodes = (
(171,-1,o),
(212,0,o),
(295,0,cs),
(332,0,o),
(387,-3,o),
(420,-3,cs),
(576,-3,o),
(682,87,o),
(681,194,cs),
(680,270,o),
(627,325,o),
(549,352,c),
(615,378,o),
(680,427,o),
(680,509,cs),
(680,599,o),
(584,640,o),
(437,640,cs),
(179,640,o),
(89,564,o),
(73,463,cs),
(65,411,o),
(87,385,o),
(118,385,cs),
(142,385,o),
(161,402,o),
(164,420,cs),
(170,456,o),
(137,478,o),
(141,509,cs),
(148,551,o),
(213,591,o),
(284,591,cs),
(303,591,o),
(309,588,o),
(303,551,cs),
(226,71,ls),
(221,37,o),
(200,27,o),
(134,25,c),
(129,-3,l)
);
},
{
closed = 1;
nodes = (
(376,26,o),
(362,39,o),
(362,66,cs),
(362,83,o),
(366,107,o),
(368,119,cs),
(398,328,l),
(409,329,o),
(423,330,o),
(431,330,cs),
(507,330,o),
(548,287,o),
(548,198,cs),
(548,95,o),
(516,26,o),
(422,26,cs)
);
},
{
closed = 1;
nodes = (
(420,355,o),
(411,356,o),
(404,357,c),
(444,617,l),
(516,608,o),
(554,576,o),
(554,500,cs),
(554,411,o),
(514,355,o),
(433,355,cs)
);
}
);
width = 739;
},
{
layerId = "D87563F8-F81F-45D9-80E8-0AF800F60BE2";
shapes = (
{
closed = 1;
nodes = (
(175,-1,o),
(216,0,o),
(256,0,cs),
(289,0,o),
(338,-3,o),
(369,-3,cs),
(492,-3,o),
(586,87,o),
(586,199,cs),
(586,268,o),
(546,315,o),
(455,352,c),
(540,396,o),
(585,445,o),
(585,516,cs),
(585,612,o),
(494,640,o),
(378,640,cs),
(210,640,o),
(90,578,o),
(72,466,cs),
(66,427,o),
(79,405,o),
(101,405,cs),
(120,405,o),
(135,419,o),
(137,432,cs),
(141,460,o),
(106,482,o),
(110,512,cs),
(117,557,o),
(201,617,o),
(273,617,cs),
(305,617,o),
(313,604,o),
(306,559,cs),
(229,60,ls),
(222,17,o),
(203,10,o),
(135,8,c),
(133,-3,l)
);
},
{
closed = 1;
nodes = (
(313,10,o),
(297,24,o),
(297,62,cs),
(297,71,o),
(300,95,o),
(302,107,cs),
(338,337,l),
(349,338,o),
(371,339,o),
(381,339,cs),
(472,339,o),
(518,292,o),
(518,203,cs),
(518,91,o),
(477,10,o),
(367,10,cs)
);
},
{
closed = 1;
nodes = (
(364,351,o),
(358,351,o),
(341,353,c),
(382,634,l),
(484,622,o),
(523,585,o),
(523,500,cs),
(523,404,o),
(482,351,o),
(381,351,cs)
);
}
);
width = 647;
},
{
layerId = "51D6B0A0-6F19-4220-A6A1-A0AA8B6A64E3";
shapes = (
{
closed = 1;
nodes = (
(172,-1,o),
(213,0,o),
(296,0,cs),
(330,0,o),
(379,-3,o),
(409,-3,cs),
(577,-3,o),
(681,82,o),
(681,198,cs),
(681,268,o),
(626,328,o),
(550,352,c),
(625,378,o),
(680,429,o),
(680,514,cs),
(680,602,o),
(582,641,o),
(430,641,cs),
(212,641,o),
(91,567,o),
(73,458,cs),
(66,411,o),
(86,385,o),
(115,385,cs),
(141,385,o),
(162,402,o),
(166,428,cs),
(171,456,o),
(137,478,o),
(142,509,cs),
(150,559,o),
(222,611,o),
(298,611,cs),
(309,611,o),
(312,604,o),
(309,585,cs),
(227,71,ls),
(220,28,o),
(201,12,o),
(133,10,c),
(130,-3,l)
);
},
{
closed = 1;
nodes = (
(370,14,o),
(358,27,o),
(358,54,cs),
(358,71,o),
(362,95,o),
(364,107,cs),
(401,334,l),
(411,335,o),
(424,336,o),
(432,336,cs),
(508,336,o),
(548,292,o),
(548,203,cs),
(548,93,o),
(510,14,o),
(408,14,cs)
);
},
{
closed = 1;
nodes = (
(419,353,o),
(416,353,o),
(403,355,c),
(444,625,l),
(515,619,o),
(555,581,o),
(555,500,cs),
(555,411,o),
(521,353,o),
(432,353,cs)
);
}
);
width = 737;
}
);
metricLeft = T;
unicode = 385;
},
{
color = 3;
glyphname = C;
kernLeft = O;
kernRight = C;
lastChange = "2024-10-18 09:42:43 +0000";
layers = (
{
anchors = (
{
name = bottom;
pos = (262,0);
},
{
name = top;
pos = (403,629);
}
);
background = {
shapes = (
{
closed = 1;
nodes = (
(53,142,o),
(80,77,o),
(129,37,cs),
(173,1,o),
(236,-11,o),
(318,-11,cs),
(365,-11,o),
(414,-8,o),
(459,7,c),
(517,104,l),
(503,110,l),
(451,34,o),
(401,5,o),
(314,5,cs),
(193,5,o),
(120,72,o),
(120,190,cs),
(120,220,o),
(127,312,o),
(162,404,cs),
(198,499,o),
(265,580,o),
(400,580,cs),
(461,580,o),
(524,567,o),
(524,496,cs),
(524,487,o),
(523,479,o),
(523,472,c),
(537,470,l),
(546,585,l),
(491,593,o),
(459,596,o),
(415,596,cs),
(281,596,o),
(216,558,o),
(164,504,cs),
(78,414,o),
(53,298,o),
(53,215,cs)
);
}
);
};
hints = (
{
horizontal = 1;
origin = (0,34);
target = (0,7);
type = Stem;
},
{
horizontal = 1;
origin = (0,25);
target = (0,16);
type = Stem;
}
);
layerId = "3F96BAE2-444C-49D6-BFC1-9C0488685DF2";
shapes = (
{
closed = 1;
nodes = (
(399,-11,o),
(461,-1,o),
(499,9,c),
(562,121,l),
(536,130,l),
(483,48,o),
(431,18,o),
(342,18,cs),
(214,18,o),
(136,85,o),
(136,205,cs),
(136,272,o),
(150,351,o),
(182,434,cs),
(217,530,o),
(291,611,o),
(435,611,cs),
(504,611,o),
(557,595,o),
(557,515,cs),
(557,503,l),
(583,503,l),
(592,627,l),
(533,636,o),
(499,639,o),
(451,639,cs),
(307,639,o),
(208,599,o),
(131,481,cs),
(77,395,o),
(60,303,o),
(60,232,cs),
(60,89,o),
(141,-11,o),
(338,-11,cs)
);
}
);
width = 591;
},
{
anchors = (
{
name = bottom;
pos = (268,0);
},
{
name = top;
pos = (421,629);
}
);
background = {
shapes = (
{
closed = 1;
nodes = (
(381,-11,o),
(438,-2,o),
(473,7,c),
(531,104,l),
(515,111,l),
(463,35,o),
(415,7,o),
(328,7,cs),
(207,7,o),
(134,72,o),
(134,190,cs),
(134,252,o),
(147,327,o),
(176,404,cs),
(212,499,o),
(279,578,o),
(414,578,cs),
(484,578,o),
(535,563,o),
(535,489,cs),
(535,470,l),
(551,470,l),
(560,585,l),
(505,593,o),
(473,596,o),
(429,596,cs),
(296,596,o),
(205,559,o),
(133,447,cs),
(83,368,o),
(67,281,o),
(67,215,cs),
(67,142,o),
(94,77,o),
(143,37,cs),
(187,1,o),
(250,-11,o),
(324,-11,cs)
);
}
);
};
layerId = "DA9A1FD1-A1AE-48D8-AEBB-5D2735E579CD";
shapes = (
{
closed = 1;
nodes = (
(411,-11,o),
(473,3,o),
(511,15,c),
(573,123,l),
(547,131,l),
(493,49,o),
(445,19,o),
(354,19,cs),
(256,19,o),
(198,85,o),
(198,205,cs),
(198,270,o),
(211,343,o),
(243,430,cs),
(281,532,o),
(347,610,o),
(458,610,cs),
(519,610,o),
(569,594,o),
(569,514,cs),
(569,493,l),
(595,493,l),
(605,627,l),
(545,636,o),
(511,639,o),
(463,639,cs),
(315,639,o),
(213,599,o),
(133,476,cs),
(84,399,o),
(61,310,o),
(61,238,cs),
(61,74,o),
(179,-11,o),
(350,-11,cs)
);
}
);
width = 604;
},
{
anchors = (
{
name = bottom;
pos = (269,0);
},
{
name = top;
pos = (416,629);
}
);
background = {
shapes = (
{
closed = 1;
nodes = (
(62,142,o),
(89,77,o),
(138,37,cs),
(182,1,o),
(245,-11,o),
(327,-11,cs),
(374,-11,o),
(423,-8,o),
(468,7,c),
(526,104,l),
(512,110,l),
(460,34,o),
(410,5,o),
(323,5,cs),
(202,5,o),
(129,72,o),
(129,190,cs),
(129,220,o),
(136,312,o),
(171,404,cs),
(207,499,o),
(274,580,o),
(409,580,cs),
(470,580,o),
(533,567,o),
(533,496,cs),
(533,487,o),
(532,479,o),
(532,472,c),
(546,470,l),
(555,585,l),
(500,593,o),
(468,596,o),
(424,596,cs),
(290,596,o),
(225,558,o),
(173,504,cs),
(87,414,o),
(62,298,o),
(62,215,cs)
);
}
);
};
layerId = "D87563F8-F81F-45D9-80E8-0AF800F60BE2";
shapes = (
{
closed = 1;
nodes = (
(408,-11,o),
(470,-1,o),
(508,9,c),
(570,113,l),
(559,117,l),
(500,31,o),
(448,3,o),
(351,3,cs),
(220,3,o),
(141,73,o),
(141,205,cs),
(141,272,o),
(155,351,o),
(187,434,cs),
(226,539,o),
(298,625,o),
(444,625,cs),
(525,625,o),
(581,612,o),
(581,524,cs),
(581,503,l),
(592,503,l),
(601,627,l),
(542,636,o),
(508,639,o),
(460,639,cs),
(316,639,o),
(217,599,o),
(140,481,cs),
(86,395,o),
(69,303,o),
(69,232,cs),
(69,91,o),
(147,-11,o),
(347,-11,cs)
);
}
);
width = 600;
},
{
anchors = (
{
name = bottom;
pos = (269,0);
},
{
name = top;
pos = (422,629);
}
);
background = {
shapes = (
{
closed = 1;
nodes = (
(381,-11,o),
(438,-2,o),
(473,7,c),
(531,104,l),
(515,111,l),
(463,35,o),
(415,7,o),
(328,7,cs),
(207,7,o),
(134,72,o),
(134,190,cs),
(134,252,o),
(147,327,o),
(176,404,cs),
(212,499,o),
(279,578,o),
(414,578,cs),
(484,578,o),
(535,563,o),
(535,489,cs),
(535,470,l),
(551,470,l),
(560,585,l),
(505,593,o),
(473,596,o),
(429,596,cs),
(296,596,o),
(205,559,o),
(133,447,cs),
(83,368,o),
(67,281,o),
(67,215,cs),
(67,142,o),
(94,77,o),
(143,37,cs),
(187,1,o),
(250,-11,o),
(324,-11,cs)
);
}
);
};
layerId = "51D6B0A0-6F19-4220-A6A1-A0AA8B6A64E3";
shapes = (
{
closed = 1;
nodes = (
(411,-11,o),
(473,-1,o),
(511,9,c),
(573,113,l),
(561,120,l),
(504,34,o),
(450,3,o),
(354,3,cs),
(256,3,o),
(198,74,o),
(198,205,cs),
(198,270,o),
(211,343,o),
(243,430,cs),
(282,538,o),
(347,625,o),
(458,625,cs),
(523,625,o),
(581,604,o),
(581,524,cs),
(581,503,l),
(595,503,l),
(605,627,l),
(545,636,o),
(511,639,o),
(463,639,cs),
(315,639,o),
(213,599,o),
(133,476,cs),
(84,399,o),
(61,310,o),
(61,238,cs),
(61,74,o),
(179,-11,o),
(350,-11,cs)
);
}
);
width = 604;
}
);
metricLeft = O;
note = C;
unicode = 67;
},
{
color = 3;
glyphname = D;
kernLeft = H;
kernRight = O;
lastChange = "2024-10-18 09:42:47 +0000";
layers = (
{
anchors = (
{
name = bottom;
pos = (298,0);
},
{
name = center;
pos = (348,315);
},
{
name = top;
pos = (398,629);
}
);
hints = (
{
horizontal = 1;
origin = (0,33);
target = (1,18);
type = Stem;
},
{
horizontal = 1;
origin = (0,14);
target = (1,9);
type = Stem;
},
{
horizontal = 1;
origin = (0,14);
target = (0,18);
type = Stem;
}
);
layerId = "3F96BAE2-444C-49D6-BFC1-9C0488685DF2";
shapes = (
{
closed = 1;
nodes = (
(58,-1,o),
(102,0,o),
(145,0,cs),
(196,0,o),
(243,-3,o),
(288,-3,cs),
(412,-3,o),
(470,43,o),
(524,103,cs),
(604,190,o),
(635,309,o),
(635,397,cs),
(635,556,o),
(540,640,o),
(362,640,cs),
(283,640,o),
(132,632,o),
(116,632,c),
(111,605,l),
(156,605,o),
(183,602,o),
(183,575,cs),
(183,563,o),
(180,535,o),
(175,501,cs),
(119,154,ls),
(114,120,o),
(106,78,o),
(103,64,cs),
(96,32,o),
(82,24,o),
(24,24,cs),
(16,24,l),
(10,-3,l)
);
},
{
closed = 1;
nodes = (
(195,24,o),
(180,38,o),
(180,55,cs),
(180,67,o),
(183,87,o),
(185,100,cs),
(264,604,l),
(296,609,o),
(329,611,o),
(347,611,cs),
(482,611,o),
(556,529,o),
(556,401,cs),
(556,323,o),
(539,193,o),
(480,110,cs),
(442,58,o),
(390,24,o),
(277,24,cs)
);
}
);
width = 662;
},
{
anchors = (
{
name = bottom;
pos = (322,0);
},
{
name = center;
pos = (372,315);
},
{
name = top;
pos = (422,629);
}
);
layerId = "DA9A1FD1-A1AE-48D8-AEBB-5D2735E579CD";
shapes = (
{
closed = 1;
nodes = (
(55,-1,o),
(99,0,o),
(153,0,cs),
(204,0,o),
(259,-3,o),
(309,-3,cs),
(450,-3,o),
(513,39,o),
(571,103,cs),
(651,190,o),
(682,309,o),
(682,397,cs),
(682,559,o),
(576,640,o),
(377,640,cs),
(287,640,o),
(129,632,o),
(113,632,c),
(108,604,l),
(153,604,o),
(178,600,o),
(178,564,cs),
(178,554,o),
(175,529,o),
(171,500,cs),
(118,154,ls),
(113,121,o),
(105,79,o),
(102,65,cs),
(94,32,o),
(77,25,o),
(20,25,cs),
(11,25,l),
(7,-3,l)
);
},
{
closed = 1;
nodes = (
(259,31,o),
(237,43,o),
(237,55,cs),
(237,67,o),
(240,87,o),
(242,100,cs),
(317,599,l),
(332,603,o),
(350,606,o),
(368,606,cs),
(477,606,o),
(545,527,o),
(545,401,cs),
(545,323,o),
(526,192,o),
(465,107,cs),
(432,60,o),
(393,31,o),
(300,31,cs)
);
}
);
width = 711;
},
{
anchors = (
{
name = bottom;
pos = (304,0);
},
{
name = center;
pos = (354,315);
},
{
name = top;
pos = (403,629);
}
);
layerId = "D87563F8-F81F-45D9-80E8-0AF800F60BE2";
shapes = (
{
closed = 1;
nodes = (
(62,-1,o),
(106,0,o),
(149,0,cs),
(200,0,o),
(243,-3,o),
(288,-3,cs),
(412,-3,o),
(474,43,o),
(528,103,cs),
(608,190,o),
(639,309,o),
(639,397,cs),
(639,559,o),
(539,641,o),
(361,641,cs),
(282,641,o),
(135,633,o),
(119,633,c),
(117,622,l),
(162,622,o),
(187,618,o),
(187,577,cs),
(187,565,o),
(183,535,o),
(178,501,cs),
(123,154,ls),
(118,121,o),
(110,79,o),
(107,65,cs),
(96,22,o),
(83,8,o),
(25,8,cs),
(17,8,l),
(14,-3,l)
);
},
{
closed = 1;
nodes = (
(195,11,o),
(180,29,o),
(180,55,cs),
(180,67,o),
(183,87,o),
(185,100,cs),
(266,620,l),
(298,625,o),
(330,627,o),
(348,627,cs),
(486,627,o),
(562,540,o),
(562,401,cs),
(562,323,o),
(542,191,o),
(482,107,cs),
(440,48,o),
(391,11,o),
(277,11,cs)
);
}
);
width = 673;
},
{
anchors = (
{
name = bottom;
pos = (321,0);
},
{
name = center;
pos = (371,315);
},
{
name = top;
pos = (421,629);
}
);
layerId = "51D6B0A0-6F19-4220-A6A1-A0AA8B6A64E3";
shapes = (
{
closed = 1;
nodes = (
(55,-1,o),
(99,0,o),
(153,0,cs),
(204,0,o),
(259,-3,o),
(309,-3,cs),
(450,-3,o),
(513,39,o),
(571,103,cs),
(651,190,o),
(682,309,o),
(682,397,cs),
(682,559,o),
(576,640,o),
(377,640,cs),
(287,640,o),
(129,632,o),
(113,632,c),
(111,619,l),
(156,619,o),
(181,617,o),
(181,576,cs),
(181,564,o),
(176,534,o),
(171,500,cs),
(116,154,ls),
(111,121,o),
(103,79,o),
(100,65,cs),
(89,22,o),
(76,10,o),
(18,10,cs),
(9,10,l),
(7,-3,l)
);
},
{
closed = 1;
nodes = (
(258,16,o),
(236,35,o),
(236,55,cs),
(236,67,o),
(239,87,o),
(241,100,cs),
(320,613,l),
(335,618,o),
(354,620,o),
(369,620,cs),
(481,620,o),
(545,537,o),
(545,401,cs),
(545,323,o),
(526,192,o),
(465,107,cs),
(428,55,o),
(389,16,o),
(299,16,cs)
);
}
);
width = 710;
}
);
metricLeft = H;
metricRight = O;
note = D;
unicode = 68;
},
{
color = 3;
glyphname = Dhook;
kernRight = O;
lastChange = "2024-10-18 09:42:43 +0000";
layers = (
{
layerId = "3F96BAE2-444C-49D6-BFC1-9C0488685DF2";
shapes = (
{
closed = 1;
nodes = (
(177,-1,o),
(221,0,o),
(264,0,cs),
(315,0,o),
(362,-3,o),
(407,-3,cs),
(531,-3,o),
(589,43,o),
(643,103,cs),
(723,190,o),
(754,309,o),
(754,397,cs),
(754,556,o),
(663,640,o),
(430,640,cs),
(176,640,o),
(90,577,o),
(73,474,cs),
(66,427,o),
(79,405,o),
(101,405,cs),
(120,405,o),
(135,419,o),
(137,432,cs),
(141,460,o),
(106,482,o),
(110,512,cs),
(117,557,o),
(196,606,o),
(268,606,cs),
(300,606,o),
(308,593,o),
(301,548,cs),
(238,154,ls),
(233,121,o),
(225,79,o),
(222,65,cs),
(215,33,o),
(201,24,o),
(143,24,cs),
(135,24,l),
(129,-3,l)
);
},
{
closed = 1;
nodes = (
(314,24,o),
(299,38,o),
(299,55,cs),
(299,67,o),
(302,87,o),
(304,100,cs),
(383,604,l),
(415,609,o),
(448,611,o),
(466,611,cs),
(601,611,o),
(675,529,o),
(675,401,cs),
(675,323,o),
(658,193,o),
(599,110,cs),
(561,58,o),
(509,24,o),
(396,24,cs)
);
}
);
width = 781;
},
{
background = {
shapes = (
{
closed = 1;
nodes = (
(177,-1,o),
(221,0,o),
(275,0,cs),
(326,0,o),
(381,-3,o),
(431,-3,cs),
(572,-3,o),
(635,39,o),
(693,103,cs),
(773,190,o),
(804,309,o),
(804,397,cs),
(804,559,o),
(698,640,o),
(499,640,cs),
(409,640,o),
(251,632,o),
(235,632,c),
(230,604,l),
(275,604,o),
(300,600,o),
(300,564,cs),
(300,554,o),
(297,529,o),
(293,500,cs),
(240,154,ls),
(235,121,o),
(227,79,o),
(224,65,cs),
(216,32,o),
(199,25,o),
(142,25,cs),
(133,25,l),
(129,-3,l)
);
},
{
closed = 1;
nodes = (
(381,31,o),
(359,43,o),
(359,55,cs),
(359,67,o),
(362,87,o),
(364,100,cs),
(439,599,l),
(454,603,o),
(472,606,o),
(490,606,cs),
(599,606,o),
(667,527,o),
(667,401,cs),
(667,323,o),
(648,192,o),
(587,107,cs),
(554,60,o),
(515,31,o),
(422,31,cs)
);
}
);
};
layerId = "DA9A1FD1-A1AE-48D8-AEBB-5D2735E579CD";
shapes = (
{
closed = 1;
nodes = (
(179,-1,o),
(223,0,o),
(277,0,cs),
(328,0,o),
(383,-3,o),
(433,-3,cs),
(574,-3,o),
(637,39,o),
(695,103,cs),
(775,190,o),
(806,309,o),
(806,397,cs),
(806,559,o),
(701,645,o),
(483,645,cs),
(179,645,o),
(89,564,o),
(73,462,cs),
(65,411,o),
(87,385,o),
(118,385,cs),
(142,385,o),
(161,402,o),
(164,420,cs),
(170,456,o),
(137,478,o),
(141,509,cs),
(148,551,o),
(213,591,o),
(284,591,cs),
(303,591,o),
(309,588,o),
(303,551,cs),
(240,164,ls),
(235,131,o),
(227,89,o),
(224,75,cs),
(215,36,o),
(200,25,o),
(142,25,cs),
(134,25,l),
(131,-3,l)
);
},
{
closed = 1;
nodes = (
(382,31,o),
(361,49,o),
(361,72,cs),
(361,84,o),
(364,104,o),
(366,117,cs),
(440,600,l),
(456,605,o),
(474,607,o),
(482,607,cs),
(602,607,o),
(667,528,o),
(667,401,cs),
(667,327,o),
(646,199,o),
(597,121,cs),
(560,62,o),
(522,31,o),
(423,31,cs)
);
}
);
width = 835;
},
{
layerId = "D87563F8-F81F-45D9-80E8-0AF800F60BE2";
shapes = (
{
closed = 1;
nodes = (
(180,-1,o),
(224,0,o),
(268,0,cs),
(318,0,o),
(362,-3,o),
(406,-3,cs),
(530,-3,o),
(588,43,o),
(642,103,cs),
(722,190,o),
(754,309,o),
(754,397,cs),
(754,556,o),
(659,639,o),
(440,639,cs),
(191,639,o),
(90,578,o),
(72,466,cs),
(66,427,o),
(79,405,o),
(101,405,cs),
(120,405,o),
(135,419,o),
(137,432,cs),
(141,460,o),
(106,482,o),
(110,512,cs),
(117,557,o),
(203,617,o),
(284,617,cs),
(307,617,o),
(313,604,o),
(306,559,cs),
(242,154,ls),
(237,121,o),
(229,75,o),
(225,61,cs),
(216,22,o),
(202,8,o),
(143,8,cs),
(135,8,l),
(133,-3,l)
);
},
{
closed = 1;
nodes = (
(313,10,o),
(298,29,o),
(298,55,cs),
(298,67,o),
(301,87,o),
(303,100,cs),
(384,618,l),
(416,624,o),
(450,626,o),
(468,626,cs),
(607,626,o),
(680,538,o),
(680,401,cs),
(680,323,o),
(661,191,o),
(600,107,cs),
(559,49,o),
(510,10,o),
(395,10,cs)
);
}
);
width = 788;
},
{
layerId = "51D6B0A0-6F19-4220-A6A1-A0AA8B6A64E3";
shapes = (
{
closed = 1;
nodes = (
(181,-1,o),
(225,0,o),
(279,0,cs),
(330,0,o),
(385,-3,o),
(435,-3,cs),
(576,-3,o),
(639,39,o),
(697,103,cs),
(777,190,o),
(808,309,o),
(808,397,cs),
(808,559,o),
(703,645,o),
(472,645,cs),
(212,645,o),
(91,567,o),
(73,458,cs),
(66,411,o),
(86,385,o),
(115,385,cs),
(141,385,o),
(162,402,o),
(166,428,cs),
(171,456,o),
(137,478,o),
(142,509,cs),
(150,559,o),
(222,611,o),
(298,611,cs),
(309,611,o),
(312,604,o),
(309,585,cs),
(242,154,ls),
(237,121,o),
(229,79,o),
(226,65,cs),
(217,26,o),
(201,10,o),
(143,10,cs),
(135,10,l),
(133,-3,l)
);
},
{
closed = 1;
nodes = (
(377,16,o),
(353,32,o),
(353,55,cs),
(353,67,o),
(356,87,o),
(358,100,cs),
(437,618,l),
(456,623,o),
(478,625,o),
(489,625,cs),
(613,625,o),
(681,537,o),
(681,401,cs),
(681,323,o),
(663,192,o),
(601,107,cs),
(562,52,o),
(524,16,o),
(425,16,cs)
);
}
);
width = 836;
}
);
metricLeft = T;
metricRight = O;
unicode = 394;
},
{
color = 3;
glyphname = Eth;
kernLeft = H;
kernRight = O;
lastChange = "2024-10-29 15:04:09 +0000";
layers = (
{
anchors = (
{
name = bottom;
pos = (298,0);
},
{
name = center;
pos = (348,315);
},
{
name = top;
pos = (398,629);
}
);
hints = (
{
horizontal = 1;
origin = (0,3);
target = (0,2);
type = Stem;
},
{
horizontal = 1;
origin = (1,33);
target = (2,18);
type = Stem;
},
{
horizontal = 1;
origin = (1,14);
target = (2,9);
type = Stem;
},
{
horizontal = 1;
origin = (1,14);
target = (1,18);
type = Stem;
}
);
layerId = "3F96BAE2-444C-49D6-BFC1-9C0488685DF2";
shapes = (
{
closed = 1;
nodes = (
(369,313,l),
(374,340,l),
(52,340,l),
(47,313,l)
);
},
{
closed = 1;
nodes = (
(58,-1,o),
(102,0,o),
(145,0,cs),
(196,0,o),
(243,-3,o),
(288,-3,cs),
(412,-3,o),
(470,43,o),
(524,103,cs),
(604,190,o),
(635,309,o),
(635,397,cs),
(635,556,o),
(540,640,o),
(362,640,cs),
(283,640,o),
(132,632,o),
(116,632,c),
(111,605,l),
(156,605,o),
(183,602,o),
(183,575,cs),
(183,563,o),
(180,535,o),
(175,501,cs),
(119,154,ls),
(114,120,o),
(106,78,o),
(103,64,cs),
(96,32,o),
(82,24,o),
(24,24,cs),
(16,24,l),
(10,-3,l)
);
},
{
closed = 1;
nodes = (
(195,24,o),
(180,38,o),
(180,55,cs),
(180,67,o),
(183,87,o),
(185,100,cs),
(264,604,l),
(296,609,o),
(329,611,o),
(347,611,cs),
(482,611,o),
(556,529,o),
(556,401,cs),
(556,323,o),
(539,193,o),
(480,110,cs),
(442,58,o),
(390,24,o),
(277,24,cs)
);
}
);
width = 661;
},
{
anchors = (
{
name = bottom;
pos = (322,0);
},
{
name = center;
pos = (372,315);
},
{
name = top;
pos = (422,629);
}
);
layerId = "DA9A1FD1-A1AE-48D8-AEBB-5D2735E579CD";
shapes = (
{
closed = 1;
nodes = (
(419,310,l),
(424,342,l),
(52,342,l),
(47,310,l)
);
},
{
closed = 1;
nodes = (
(55,-1,o),
(99,0,o),
(153,0,cs),
(204,0,o),
(259,-3,o),
(309,-3,cs),
(450,-3,o),
(513,39,o),
(571,103,cs),
(651,190,o),
(682,309,o),
(682,397,cs),
(682,559,o),
(576,640,o),
(377,640,cs),
(287,640,o),
(129,632,o),
(113,632,c),
(108,604,l),
(153,604,o),
(178,600,o),
(178,564,cs),
(178,554,o),
(175,529,o),
(171,500,cs),
(118,154,ls),
(113,121,o),
(105,79,o),
(102,65,cs),
(94,32,o),
(77,25,o),
(20,25,cs),
(11,25,l),
(7,-3,l)
);
},
{
closed = 1;
nodes = (
(259,31,o),
(237,43,o),
(237,55,cs),
(237,67,o),
(240,87,o),
(242,100,cs),
(317,599,l),
(332,603,o),
(350,606,o),
(368,606,cs),
(477,606,o),
(545,527,o),
(545,401,cs),
(545,323,o),
(526,192,o),
(465,107,cs),
(432,60,o),
(393,31,o),
(300,31,cs)
);
}
);
width = 711;
},
{
anchors = (
{
name = bottom;
pos = (304,0);
},
{
name = center;
pos = (354,315);
},
{
name = top;
pos = (403,629);
}
);
layerId = "D87563F8-F81F-45D9-80E8-0AF800F60BE2";
shapes = (
{
closed = 1;
nodes = (
(371,317,l),
(373,334,l),
(51,334,l),
(49,317,l)
);
},
{
closed = 1;
nodes = (
(62,-1,o),
(106,0,o),
(149,0,cs),
(200,0,o),
(243,-3,o),
(288,-3,cs),
(412,-3,o),
(474,43,o),
(528,103,cs),
(608,190,o),
(639,309,o),
(639,397,cs),
(639,559,o),
(539,641,o),
(361,641,cs),
(282,641,o),
(135,633,o),
(119,633,c),
(117,622,l),
(162,622,o),
(187,618,o),
(187,577,cs),
(187,565,o),
(183,535,o),
(178,501,cs),
(123,154,ls),
(118,121,o),
(110,79,o),
(107,65,cs),
(96,22,o),
(83,8,o),
(25,8,cs),
(17,8,l),
(14,-3,l)
);
},
{
closed = 1;
nodes = (
(195,11,o),
(180,29,o),
(180,55,cs),
(180,67,o),
(183,87,o),
(185,100,cs),
(266,620,l),
(298,625,o),
(330,627,o),
(348,627,cs),
(486,627,o),
(562,540,o),
(562,401,cs),
(562,323,o),
(542,191,o),
(482,107,cs),
(440,48,o),
(391,11,o),
(277,11,cs)
);
}
);
width = 670;
},
{
anchors = (
{
name = bottom;
pos = (321,0);
},
{
name = center;
pos = (371,315);
},
{
name = top;
pos = (421,629);
}
);
layerId = "51D6B0A0-6F19-4220-A6A1-A0AA8B6A64E3";
shapes = (
{
closed = 1;
nodes = (
(419,316,l),
(422,337,l),
(50,337,l),
(47,316,l)
);
},
{
closed = 1;
nodes = (
(55,-1,o),
(99,0,o),
(153,0,cs),
(204,0,o),
(259,-3,o),
(309,-3,cs),
(450,-3,o),
(513,39,o),
(571,103,cs),
(651,190,o),
(682,309,o),
(682,397,cs),
(682,559,o),
(576,640,o),
(377,640,cs),
(287,640,o),
(129,632,o),
(113,632,c),
(111,619,l),
(156,619,o),
(181,617,o),
(181,576,cs),
(181,564,o),
(176,534,o),
(171,500,cs),
(116,154,ls),
(111,121,o),
(103,79,o),
(100,65,cs),
(89,22,o),
(76,10,o),
(18,10,cs),
(9,10,l),
(7,-3,l)
);
},
{
closed = 1;
nodes = (
(258,16,o),
(236,35,o),
(236,55,cs),
(236,67,o),
(239,87,o),
(241,100,cs),
(320,613,l),
(335,618,o),
(354,620,o),
(369,620,cs),
(481,620,o),
(545,537,o),
(545,401,cs),
(545,323,o),
(526,192,o),
(465,107,cs),
(428,55,o),
(389,16,o),
(299,16,cs)
);
}
);
width = 710;
}
);
note = Eth;
unicode = 208;
},
{
color = 3;
glyphname = E;
kernLeft = H;
kernRight = E;
lastChange = "2024-10-18 09:41:39 +0000";
layers = (
{
anchors = (
{
name = bottom;
pos = (257,0);
},
{
name = ogonek;
pos = (426,10);
},
{
name = top;
pos = (331,629);
},
{
name = topleft;
pos = (87,629);
}
);
hints = (
{
horizontal = 1;
origin = (0,60);
target = up;
type = BottomGhost;
},
{
horizontal = 1;
origin = (0,19);
target = (0,32);
type = Stem;
},
{
horizontal = 1;
origin = (0,46);
target = (0,34);
type = Stem;
},
{
horizontal = 1;
origin = (0,2);
target = (0,11);
type = Stem;
},
{
horizontal = 1;
origin = (0,2);
target = (0,59);
type = Stem;
},
{
horizontal = 1;
origin = (0,46);
target = (0,48);
type = Stem;
}
);
layerId = "3F96BAE2-444C-49D6-BFC1-9C0488685DF2";
shapes = (
{
closed = 1;
nodes = (
(85,-2,o),
(207,0,o),
(237,0,cs),
(300,0,o),
(362,-1,o),
(429,-3,c),
(482,144,l),
(456,144,l),
(421,68,o),
(398,34,o),
(344,34,cs),
(237,34,ls),
(194,34,o),
(179,44,o),
(179,63,cs),
(179,77,o),
(182,103,o),
(185,119,cs),
(217,323,l),
(368,323,ls),
(393,323,o),
(402,312,o),
(402,282,cs),
(402,271,o),
(400,261,o),
(399,253,c),
(425,254,l),
(450,413,l),
(425,413,l),
(419,373,o),
(401,354,o),
(369,354,cs),
(222,354,l),
(260,597,l),
(418,597,ls),
(458,597,o),
(468,563,o),
(468,537,cs),
(468,513,l),
(493,513,l),
(513,632,l),
(478,630,o),
(401,629,o),
(339,629,cs),
(265,629,o),
(162,630,o),
(111,632,c),
(106,605,l),
(125,605,ls),
(159,605,o),
(183,593,o),
(183,575,cs),
(183,564,o),
(180,545,o),
(177,525,cs),
(105,66,ls),
(100,32,o),
(72,24,o),
(39,24,cs),
(16,24,l),
(12,-3,l)
);
}
);
width = 508;
},
{
anchors = (
{
name = bottom;
pos = (274,0);
},
{
name = ogonek;
pos = (454,10);
},
{
name = top;
pos = (346,629);
},
{
name = topleft;
pos = (86,629);
}
);
layerId = "DA9A1FD1-A1AE-48D8-AEBB-5D2735E579CD";
shapes = (
{
closed = 1;
nodes = (
(100,-2,o),
(254,0,o),
(284,0,cs),
(347,0,o),
(388,-1,o),
(455,-3,c),
(508,144,l),
(480,144,l),
(447,71,o),
(426,34,o),
(372,34,cs),
(286,34,ls),
(243,34,o),
(228,50,o),
(228,74,cs),
(228,88,o),
(232,114,o),
(234,130,cs),
(263,320,l),
(381,320,ls),
(413,320,o),
(426,309,o),
(426,282,cs),
(426,271,o),
(424,257,o),
(423,249,c),
(450,250,l),
(475,413,l),
(449,413,l),
(443,375,o),
(420,354,o),
(384,354,cs),
(268,354,l),
(305,595,l),
(443,595,ls),
(485,595,o),
(492,561,o),
(492,537,cs),
(492,513,l),
(518,513,l),
(538,632,l),
(503,630,o),
(427,629,o),
(364,629,cs),
(291,629,o),
(171,630,o),
(108,632,c),
(103,604,l),
(122,604,ls),
(156,604,o),
(177,597,o),
(177,575,cs),
(177,564,o),
(174,545,o),
(171,525,cs),
(102,75,ls),
(96,33,o),
(70,25,o),
(36,25,cs),
(14,25,l),
(9,-3,l)
);
}
);
width = 540;
},
{
anchors = (
{
name = bottom;
pos = (266,0);
},
{
name = ogonek;
pos = (425,10);
},
{
name = top;
pos = (331,629);
},
{
name = topleft;
pos = (87,629);
}
);
background = {
shapes = (
{
closed = 1;
nodes = (
(88,-2,o),
(206,0,o),
(236,0,cs),
(299,0,o),
(361,-1,o),
(428,-3,c),
(481,144,l),
(464,144,l),
(426,63,o),
(401,27,o),
(343,27,cs),
(235,27,ls),
(192,27,o),
(177,39,o),
(177,63,cs),
(177,77,o),
(180,103,o),
(183,119,cs),
(216,324,l),
(367,324,ls),
(398,324,o),
(410,312,o),
(410,282,cs),
(410,271,o),
(408,261,o),
(407,253,c),
(424,254,l),
(449,413,l),
(433,413,l),
(426,373,o),
(404,351,o),
(367,351,cs),
(220,351,l),
(261,604,l),
(419,604,ls),
(467,604,o),
(476,566,o),
(476,537,cs),
(476,513,l),
(492,513,l),
(512,632,l),
(477,630,o),
(400,629,o),
(338,629,cs),
(264,629,o),
(165,630,o),
(114,632,c),
(112,620,l),
(131,620,ls),
(165,620,o),
(186,607,o),
(186,575,cs),
(186,564,o),
(183,545,o),
(180,525,cs),
(108,66,ls),
(101,24,o),
(73,9,o),
(40,9,cs),
(17,9,l),
(15,-3,l)
);
}
);
};
layerId = "D87563F8-F81F-45D9-80E8-0AF800F60BE2";
shapes = (
{
closed = 1;
nodes = (
(88,-2,o),
(206,0,o),
(236,0,cs),
(299,0,o),
(361,-1,o),
(428,-3,c),
(481,144,l),
(470,144,l),
(431,55,o),
(406,18,o),
(346,18,cs),
(231,18,ls),
(191,18,o),
(176,31,o),
(176,63,cs),
(176,77,o),
(179,103,o),
(182,119,cs),
(215,329,l),
(374,329,ls),
(404,329,o),
(416,316,o),
(416,282,cs),
(416,271,o),
(414,261,o),
(413,253,c),
(424,254,l),
(449,413,l),
(439,413,l),
(432,371,o),
(410,347,o),
(373,347,cs),
(219,347,l),
(261,611,l),
(421,611,ls),
(474,611,o),
(482,570,o),
(482,537,cs),
(482,513,l),
(492,513,l),
(512,632,l),
(477,630,o),
(400,629,o),
(338,629,cs),
(263,629,o),
(165,630,o),
(114,632,c),
(112,621,l),
(131,621,ls),
(165,621,o),
(186,607,o),
(186,575,cs),
(186,564,o),
(183,545,o),
(180,525,cs),
(108,66,ls),
(101,24,o),
(73,8,o),
(40,8,cs),
(17,8,l),
(15,-3,l)
);
}
);
width = 507;
},
{
anchors = (
{
name = bottom;
pos = (277,0);
},
{
name = ogonek;
pos = (455,10);
},
{
name = top;
pos = (347,629);
},
{
name = topleft;
pos = (87,629);
}
);
layerId = "51D6B0A0-6F19-4220-A6A1-A0AA8B6A64E3";
shapes = (
{
closed = 1;
nodes = (
(100,-2,o),
(254,0,o),
(284,0,cs),
(347,0,o),
(388,-1,o),
(455,-3,c),
(508,144,l),
(494,144,l),
(457,63,o),
(428,27,o),
(369,27,cs),
(284,27,ls),
(241,27,o),
(226,39,o),
(226,63,cs),
(226,77,o),
(229,103,o),
(232,119,cs),
(264,324,l),
(396,324,ls),
(427,324,o),
(439,312,o),
(439,282,cs),
(439,271,o),
(437,262,o),
(436,254,c),
(450,254,l),
(475,413,l),
(462,413,l),
(456,373,o),
(433,351,o),
(396,351,cs),
(268,351,l),
(309,604,l),
(445,604,ls),
(494,604,o),
(505,566,o),
(505,537,cs),
(505,513,l),
(518,513,l),
(538,632,l),
(503,630,o),
(427,629,o),
(364,629,cs),
(291,629,o),
(171,630,o),
(108,632,c),
(106,619,l),
(125,619,ls),
(159,619,o),
(180,607,o),
(180,575,cs),
(180,564,o),
(177,545,o),
(174,525,cs),
(102,66,ls),
(95,24,o),
(67,10,o),
(33,10,cs),
(11,10,l),
(9,-3,l)
);
}
);
width = 540;
}
);
metricLeft = H;
note = E;
unicode = 69;
},
{
color = 3;
glyphname = Eopen;
lastChange = "2024-10-18 09:42:48 +0000";
layers = (
{
layerId = "3F96BAE2-444C-49D6-BFC1-9C0488685DF2";
shapes = (
{
closed = 1;
nodes = (
(272,-11,o),
(314,-1,o),
(353,7,c),
(371,48,o),
(390,86,o),
(411,126,c),
(382,126,l),
(339,44,o),
(301,16,o),
(228,16,cs),
(139,16,o),
(94,84,o),
(109,179,cs),
(123,263,o),
(179,334,o),
(318,334,c),
(324,363,l),
(195,363,o),
(158,426,o),
(169,496,cs),
(181,576,o),
(236,616,o),
(306,616,cs),
(390,616,o),
(426,575,o),
(419,490,c),
(444,490,l),
(461,626,l),
(444,626,l),
(437,623,o),
(431,622,o),
(423,622,cs),
(398,622,o),
(363,639,o),
(299,639,cs),
(195,639,o),
(123,586,o),
(110,506,cs),
(96,414,o),
(166,364,o),
(249,352,c),
(128,331,o),
(52,281,o),
(37,183,cs),
(19,71,o),
(85,-10,o),
(222,-11,cs)
);
}
);
width = 439;
},
{
layerId = "DA9A1FD1-A1AE-48D8-AEBB-5D2735E579CD";
shapes = (
{
closed = 1;
nodes = (
(302,-11,o),
(344,-1,o),
(383,7,c),
(401,51,o),
(421,93,o),
(443,136,c),
(414,136,l),
(373,54,o),
(333,30,o),
(274,30,cs),
(195,30,o),
(155,90,o),
(170,181,cs),
(183,263,o),
(230,320,o),
(347,320,c),
(354,363,l),
(247,363,o),
(218,426,o),
(229,494,cs),
(240,560,o),
(285,599,o),
(341,599,cs),
(414,599,o),
(455,563,o),
(449,480,c),
(472,480,l),
(491,626,l),
(474,626,l),
(467,623,o),
(461,622,o),
(453,622,cs),
(428,622,o),
(383,639,o),
(318,639,cs),
(223,639,o),
(131,600,o),
(116,508,cs),
(104,428,o),
(155,368,o),
(248,344,c),
(121,331,o),
(54,287,o),
(38,187,cs),
(21,77,o),
(103,-10,o),
(240,-10,cs)
);
}
);
width = 472;
},
{
layerId = "D87563F8-F81F-45D9-80E8-0AF800F60BE2";
shapes = (
{
closed = 1;
nodes = (
(269,-11,o),
(310,-1,o),
(349,7,c),
(367,48,o),
(386,86,o),
(407,126,c),
(395,126,l),
(348,34,o),
(303,1,o),
(225,1,cs),
(148,1,o),
(100,77,o),
(116,177,cs),
(131,270,o),
(185,348,o),
(317,348,c),
(319,359,l),
(207,359,o),
(174,430,o),
(185,503,cs),
(198,585,o),
(247,625,o),
(310,625,cs),
(397,625,o),
(437,586,o),
(429,490,c),
(440,490,l),
(457,626,l),
(444,626,l),
(439,624,o),
(435,622,o),
(427,622,cs),
(402,622,o),
(359,639,o),
(304,639,cs),
(212,639,o),
(137,598,o),
(123,511,cs),
(110,426,o),
(172,370,o),
(255,355,c),
(139,334,o),
(59,282,o),
(43,180,cs),
(26,72,o),
(95,-10,o),
(225,-11,cs)
);
}
);
width = 435;
},
{
layerId = "51D6B0A0-6F19-4220-A6A1-A0AA8B6A64E3";
shapes = (
{
closed = 1;
nodes = (
(291,-11,o),
(332,-1,o),
(371,7,c),
(389,51,o),
(409,93,o),
(431,136,c),
(417,136,l),
(371,37,o),
(328,8,o),
(259,8,cs),
(186,8,o),
(151,76,o),
(168,181,cs),
(182,269,o),
(228,334,o),
(337,334,c),
(340,352,l),
(241,352,o),
(218,424,o),
(229,498,cs),
(242,577,o),
(283,622,o),
(341,622,cs),
(414,622,o),
(454,579,o),
(446,480,c),
(460,480,l),
(479,626,l),
(466,626,l),
(462,623,o),
(458,622,o),
(454,622,cs),
(427,622,o),
(375,639,o),
(313,639,cs),
(217,639,o),
(132,599,o),
(118,510,cs),
(105,427,o),
(155,367,o),
(245,348,c),
(126,331,o),
(53,285,o),
(38,189,cs),
(20,75,o),
(98,-10,o),
(242,-11,cs)
);
}
);
width = 458;
}
);
metricLeft = "=|B";
metricRight = C;
unicode = 400;
},
{
color = 3;
glyphname = Ereversed;
lastChange = "2024-10-18 09:42:02 +0000";
layers = (
{
layerId = "3F96BAE2-444C-49D6-BFC1-9C0488685DF2";
shapes = (
{
closed = 1;
nodes = (
(78,-1,o),
(140,0,o),
(203,0,cs),
(233,0,o),
(355,-2,o),
(427,-3,c),
(432,24,l),
(409,24,ls),
(376,24,o),
(351,32,o),
(356,66,cs),
(430,525,ls),
(433,545,o),
(436,564,o),
(440,575,cs),
(445,593,o),
(473,605,o),
(507,605,cs),
(526,605,l),
(530,632,l),
(478,630,o),
(375,629,o),
(301,629,cs),
(239,629,o),
(162,630,o),
(128,632,c),
(110,513,l),
(135,513,l),
(142,537,ls),
(150,563,o),
(171,597,o),
(211,597,cs),
(369,597,l),
(331,354,l),
(184,354,ls),
(152,354,o),
(140,373,o),
(146,413,c),
(121,413,l),
(96,254,l),
(122,253,l),
(123,261,o),
(124,271,o),
(128,282,cs),
(137,312,o),
(150,323,o),
(175,323,cs),
(326,323,l),
(293,119,ls),
(290,103,o),
(286,77,o),
(281,63,cs),
(275,44,o),
(257,34,o),
(214,34,cs),
(107,34,ls),
(53,34,o),
(41,68,o),
(30,144,c),
(4,144,l),
(10,-3,l)
);
}
);
width = 508;
},
{
layerId = "DA9A1FD1-A1AE-48D8-AEBB-5D2735E579CD";
shapes = (
{
closed = 1;
nodes = (
(84,-1,o),
(125,0,o),
(188,0,cs),
(218,0,o),
(372,-2,o),
(462,-3,c),
(466,25,l),
(444,25,ls),
(410,25,o),
(387,33,o),
(394,75,cs),
(468,525,ls),
(471,545,o),
(474,564,o),
(478,575,cs),
(484,597,o),
(508,604,o),
(542,604,cs),
(561,604,l),
(565,632,l),
(501,630,o),
(381,629,o),
(308,629,cs),
(245,629,o),
(169,630,o),
(135,632,c),
(117,513,l),
(143,513,l),
(150,537,ls),
(158,561,o),
(176,595,o),
(218,595,cs),
(356,595,l),
(317,354,l),
(201,354,ls),
(165,354,o),
(148,375,o),
(154,413,c),
(128,413,l),
(102,250,l),
(128,249,l),
(130,257,o),
(132,271,o),
(136,282,cs),
(144,309,o),
(161,320,o),
(193,320,cs),
(311,320,l),
(280,130,ls),
(276,114,o),
(272,88,o),
(268,74,cs),
(260,50,o),
(240,34,o),
(197,34,cs),
(111,34,ls),
(57,34,o),
(48,71,o),
(38,144,c),
(10,144,l),
(16,-3,l)
);
}
);
width = 540;
},
{
layerId = "D87563F8-F81F-45D9-80E8-0AF800F60BE2";
shapes = (
{
closed = 1;
nodes = (
(80,-1,o),
(142,0,o),
(205,0,cs),
(235,0,o),
(353,-2,o),
(425,-3,c),
(427,8,l),
(404,8,ls),
(371,8,o),
(348,24,o),
(354,66,cs),
(428,525,ls),
(431,545,o),
(434,564,o),
(438,575,cs),
(448,607,o),
(473,621,o),
(507,621,cs),
(526,621,l),
(528,632,l),
(476,630,o),
(377,629,o),
(303,629,cs),
(241,629,o),
(164,630,o),
(130,632,c),
(112,513,l),
(122,513,l),
(129,537,ls),
(140,570,o),
(161,614,o),
(214,614,cs),
(372,614,l),
(331,347,l),
(178,347,ls),
(141,347,o),
(127,371,o),
(133,413,c),
(123,413,l),
(98,254,l),
(109,253,l),
(110,261,o),
(111,271,o),
(115,282,cs),
(125,316,o),
(142,329,o),
(172,329,cs),
(329,329,l),
(296,119,ls),
(294,103,o),
(289,77,o),
(284,63,cs),
(274,31,o),
(255,15,o),
(215,15,cs),
(100,15,ls),
(40,15,o),
(28,55,o),
(17,144,c),
(6,144,l),
(12,-3,l)
);
}
);
width = 508;
},
{
layerId = "51D6B0A0-6F19-4220-A6A1-A0AA8B6A64E3";
shapes = (
{
closed = 1;
nodes = (
(84,-1,o),
(125,0,o),
(188,0,cs),
(218,0,o),
(372,-2,o),
(462,-3,c),
(465,10,l),
(443,10,ls),
(409,10,o),
(385,24,o),
(391,66,cs),
(465,525,ls),
(468,545,o),
(471,564,o),
(475,575,cs),
(485,607,o),
(509,619,o),
(543,619,cs),
(562,619,l),
(565,632,l),
(501,630,o),
(381,629,o),
(308,629,cs),
(245,629,o),
(169,630,o),
(135,632,c),
(117,513,l),
(130,513,l),
(137,537,ls),
(147,566,o),
(170,604,o),
(219,604,cs),
(355,604,l),
(316,351,l),
(188,351,ls),
(151,351,o),
(135,373,o),
(141,413,c),
(128,413,l),
(103,254,l),
(117,254,l),
(118,262,o),
(119,271,o),
(123,282,cs),
(132,312,o),
(148,324,o),
(179,324,cs),
(311,324,l),
(279,119,ls),
(277,103,o),
(272,77,o),
(267,63,cs),
(260,39,o),
(241,27,o),
(198,27,cs),
(112,27,ls),
(53,27,o),
(35,63,o),
(24,144,c),
(10,144,l),
(16,-3,l)
);
}
);
width = 539;
}
);
metricLeft = "=|E";
metricRight = H;
unicode = 398;
},
{
color = 3;
glyphname = Schwa;
lastChange = "2024-10-18 09:42:43 +0000";
layers = (
{
layerId = "3F96BAE2-444C-49D6-BFC1-9C0488685DF2";
shapes = (
{
closed = 1;
nodes = (
(473,-13,o),
(574,190,o),
(574,376,cs),
(574,532,o),
(501,643,o),
(343,643,cs),
(219,643,o),
(138,558,o),
(98,459,c),
(124,459,l),
(159,543,o),
(232,610,o),
(330,610,cs),
(454,610,o),
(495,504,o),
(495,376,cs),
(495,216,o),
(443,13,o),
(286,13,cs),
(188,13,o),
(139,101,o),
(139,254,c),
(62,254,l),
(62,81,o),
(151,-13,o),
(284,-13,cs)
);
},
{
closed = 1;
nodes = (
(62,254,l),
(529,254,l),
(529,280,l),
(62,280,l)
);
}
);
width = 605;
},
{
background = {
shapes = (
{
closed = 1;
nodes = (
(523,-13,o),
(630,221,o),
(630,384,cs),
(630,514,o),
(553,643,o),
(368,643,cs),
(221,643,o),
(122,542,o),
(73,424,c),
(193,424,l),
(218,529,o),
(269,612,o),
(361,612,cs),
(449,612,o),
(491,522,o),
(491,389,cs),
(491,215,o),
(445,16,o),
(307,16,cs),
(231,16,o),
(183,79,o),
(175,203,c),
(39,203,l),
(57,70,o),
(156,-13,o),
(300,-13,cs)
);
}
);
};
layerId = "DA9A1FD1-A1AE-48D8-AEBB-5D2735E579CD";
shapes = (
{
closed = 1;
nodes = (
(518,-13,o),
(628,190,o),
(628,376,cs),
(628,532,o),
(542,643,o),
(368,643,cs),
(229,643,o),
(146,558,o),
(105,459,c),
(139,459,l),
(174,543,o),
(245,610,o),
(342,610,cs),
(455,610,o),
(492,504,o),
(492,376,cs),
(492,216,o),
(448,13,o),
(313,13,cs),
(223,13,o),
(178,101,o),
(184,254,c),
(64,254,l),
(64,81,o),
(163,-13,o),
(311,-13,cs)
);
},
{
closed = 1;
nodes = (
(64,254,l),
(556,254,l),
(556,284,l),
(64,284,l)
);
}
);
width = 661;
},
{
layerId = "D87563F8-F81F-45D9-80E8-0AF800F60BE2";
shapes = (
{
closed = 1;
nodes = (
(480,-13,o),
(581,190,o),
(581,376,cs),
(581,532,o),
(508,643,o),
(350,643,cs),
(228,643,o),
(152,567,o),
(109,459,c),
(127,459,l),
(168,558,o),
(240,624,o),
(343,624,cs),
(462,624,o),
(502,512,o),
(502,376,cs),
(502,210,o),
(450,0,o),
(293,0,cs),
(195,0,o),
(146,93,o),
(146,254,c),
(69,254,l),
(69,81,o),
(158,-13,o),
(291,-13,cs)
);
},
{
closed = 1;
nodes = (
(69,254,l),
(536,254,l),
(536,270,l),
(69,270,l)
);
}
);
width = 620;
},
{
layerId = "51D6B0A0-6F19-4220-A6A1-A0AA8B6A64E3";
shapes = (
{
closed = 1;
nodes = (
(516,-13,o),
(626,190,o),
(626,376,cs),
(626,532,o),
(540,643,o),
(366,643,cs),
(227,643,o),
(144,558,o),
(103,459,c),
(122,459,l),
(159,550,o),
(236,622,o),
(340,622,cs),
(453,622,o),
(490,510,o),
(490,376,cs),
(490,210,o),
(446,0,o),
(311,0,cs),
(227,0,o),
(185,93,o),
(185,254,c),
(62,254,l),
(62,81,o),
(161,-13,o),
(309,-13,cs)
);
},
{
closed = 1;
nodes = (
(62,254,l),
(554,254,l),
(554,276,l),
(62,276,l)
);
}
);
width = 658;
}
);
metricLeft = O;
metricRight = O;
unicode = 399;
},
{
color = 3;
glyphname = Ezh;
kernRight = B;
lastChange = "2024-10-18 09:42:48 +0000";
layers = (
{
layerId = "3F96BAE2-444C-49D6-BFC1-9C0488685DF2";
shapes = (
{
closed = 1;
nodes = (
(302,-12,o),
(398,61,o),
(416,176,cs),
(438,313,o),
(337,396,o),
(227,411,c),
(241,371,l),
(459,615,l),
(461,629,l),
(160,629,ls),
(148,629,o),
(126,632,o),
(107,649,c),
(101,649,l),
(72,497,l),
(98,497,l),
(117,567,o),
(139,599,o),
(207,599,cs),
(409,599,l),
(382,618,l),
(161,371,l),
(159,357,l),
(266,357,o),
(352,280,o),
(333,157,cs),
(314,37,o),
(245,14,o),
(187,14,cs),
(99,14,o),
(84,99,o),
(26,99,cs),
(8,99,o),
(-5,85,o),
(-7,71,cs),
(-15,24,o),
(67,-12,o),
(169,-12,cs)
);
}
);
width = 462;
},
{
layerId = "DA9A1FD1-A1AE-48D8-AEBB-5D2735E579CD";
shapes = (
{
closed = 1;
nodes = (
(334,-12,o),
(448,56,o),
(468,185,cs),
(488,308,o),
(409,396,o),
(308,412,c),
(305,371,l),
(508,612,l),
(511,629,l),
(170,629,ls),
(159,629,o),
(144,632,o),
(127,649,c),
(111,649,l),
(82,497,l),
(106,497,l),
(124,560,o),
(149,589,o),
(213,589,cs),
(428,589,l),
(382,618,l),
(171,367,l),
(168,349,l),
(262,349,o),
(363,286,o),
(343,156,cs),
(328,60,o),
(274,16,o),
(217,16,cs),
(130,16,o),
(124,139,o),
(53,139,cs),
(25,139,o),
(2,122,o),
(-2,93,cs),
(-11,35,o),
(74,-12,o),
(209,-12,cs)
);
}
);
width = 515;
},
{
layerId = "D87563F8-F81F-45D9-80E8-0AF800F60BE2";
shapes = (
{
closed = 1;
nodes = (
(302,-12,o),
(398,59,o),
(418,182,cs),
(438,311,o),
(346,383,o),
(235,401,c),
(253,371,l),
(460,623,l),
(461,629,l),
(160,629,ls),
(148,629,o),
(126,632,o),
(107,649,c),
(101,649,l),
(74,507,l),
(85,507,l),
(105,579,o),
(129,613,o),
(180,613,cs),
(416,613,l),
(385,626,l),
(170,363,l),
(169,357,l),
(280,350,o),
(359,270,o),
(341,155,cs),
(321,27,o),
(246,0,o),
(188,0,cs),
(100,0,o),
(84,99,o),
(26,99,cs),
(8,99,o),
(-5,85,o),
(-7,71,cs),
(-15,24,o),
(67,-12,o),
(169,-12,cs)
);
}
);
width = 469;
},
{
layerId = "51D6B0A0-6F19-4220-A6A1-A0AA8B6A64E3";
shapes = (
{
closed = 1;
nodes = (
(334,-12,o),
(449,63,o),
(468,184,cs),
(489,315,o),
(393,394,o),
(297,412,c),
(304,371,l),
(509,621,l),
(510,629,l),
(169,629,ls),
(158,629,o),
(138,632,o),
(121,649,c),
(110,649,l),
(81,497,l),
(94,497,l),
(114,567,o),
(142,605,o),
(216,605,cs),
(429,605,l),
(381,618,l),
(169,361,l),
(167,349,l),
(261,349,o),
(365,274,o),
(345,150,cs),
(329,49,o),
(276,3,o),
(219,3,cs),
(132,3,o),
(123,139,o),
(49,139,cs),
(20,139,o),
(1,118,o),
(-3,96,cs),
(-12,35,o),
(66,-12,o),
(204,-12,cs)
);
}
);
width = 514;
}
);
metricLeft = "=|C";
metricRight = B;
unicode = 439;
},
{
color = 3;
glyphname = F;
kernLeft = H;
kernRight = F;
lastChange = "2024-10-18 09:42:02 +0000";
layers = (
{
anchors = (
{
name = bottom;
pos = (152,0);
},
{
name = top;
pos = (252,629);
}
);
background = {
shapes = (
{
closed = 1;
nodes = (
(65,-2,o),
(187,0,o),
(217,0,cs),
(280,0,o),
(342,-1,o),
(409,-3,c),
(462,144,l),
(436,144,l),
(401,68,o),
(378,34,o),
(324,34,cs),
(217,34,ls),
(174,34,o),
(159,44,o),
(159,63,cs),
(159,77,o),
(162,103,o),
(165,119,cs),
(197,323,l),
(348,323,ls),
(373,323,o),
(382,312,o),
(382,282,cs),
(382,271,o),
(380,261,o),
(379,253,c),
(405,254,l),
(430,413,l),
(405,413,l),
(399,373,o),
(381,354,o),
(349,354,cs),
(202,354,l),
(240,597,l),
(398,597,ls),
(438,597,o),
(448,563,o),
(448,537,cs),
(448,513,l),
(473,513,l),
(493,632,l),
(458,630,o),
(381,629,o),
(319,629,cs),
(245,629,o),
(142,630,o),
(91,632,c),
(86,604,l),
(105,604,ls),
(139,604,o),
(163,593,o),
(163,575,cs),
(163,564,o),
(160,545,o),
(157,525,cs),
(85,66,ls),
(80,32,o),
(52,25,o),
(19,25,cs),
(-4,25,l),
(-8,-3,l)
);
}
);
};
hints = (
{
horizontal = 1;
origin = (0,58);
target = (0,57);
type = Stem;
},
{
horizontal = 1;
origin = (0,15);
target = (0,28);
type = Stem;
},
{
horizontal = 1;
origin = (0,44);
target = (0,30);
type = Stem;
},
{
horizontal = 1;
origin = (0,2);
target = (0,57);
type = Stem;
},
{
horizontal = 1;
origin = (0,44);
target = (0,46);
type = Stem;
}
);
layerId = "3F96BAE2-444C-49D6-BFC1-9C0488685DF2";
shapes = (
{
closed = 1;
nodes = (
(55,-2,o),
(122,0,o),
(136,0,cs),
(155,0,o),
(201,-1,o),
(244,-3,c),
(247,24,l),
(218,24,ls),
(189,24,o),
(172,37,o),
(172,67,cs),
(172,76,o),
(174,95,o),
(178,117,cs),
(210,315,l),
(301,315,ls),
(315,315,o),
(340,307,o),
(341,261,cs),
(341,255,o),
(340,248,o),
(340,243,c),
(365,243,l),
(391,408,l),
(366,408,l),
(357,368,o),
(341,346,o),
(307,346,cs),
(215,346,l),
(254,597,l),
(342,597,ls),
(386,597,o),
(414,583,o),
(414,537,cs),
(414,529,o),
(413,519,o),
(413,515,c),
(438,515,l),
(455,634,l),
(401,632,o),
(340,631,o),
(287,631,cs),
(230,631,o),
(169,632,o),
(111,634,c),
(108,607,l),
(121,607,ls),
(155,607,o),
(177,598,o),
(176,576,cs),
(176,564,o),
(173,546,o),
(172,538,cs),
(102,84,ls),
(95,36,o),
(69,24,o),
(32,24,cs),
(25,24,l),
(20,-3,l)
);
}
);
width = 419;
},
{
anchors = (
{
name = bottom;
pos = (199,0);
},
{
name = top;
pos = (299,629);
}
);
background = {
shapes = (
{
closed = 1;
nodes = (
(99,-2,o),
(253,0,o),
(283,0,cs),
(346,0,o),
(387,-1,o),
(454,-3,c),
(507,144,l),
(479,144,l),
(446,71,o),
(425,34,o),
(371,34,cs),
(285,34,ls),
(242,34,o),
(227,50,o),
(227,74,cs),
(227,88,o),
(231,114,o),
(233,130,cs),
(262,320,l),
(380,320,ls),
(412,320,o),
(425,309,o),
(425,282,cs),
(425,271,o),
(423,257,o),
(422,249,c),
(449,250,l),
(474,413,l),
(448,413,l),
(442,375,o),
(419,354,o),
(383,354,cs),
(267,354,l),
(304,595,l),
(442,595,ls),
(484,595,o),
(491,561,o),
(491,537,cs),
(491,513,l),
(517,513,l),
(537,632,l),
(502,630,o),
(426,629,o),
(363,629,cs),
(290,629,o),
(170,630,o),
(107,632,c),
(102,604,l),
(121,604,ls),
(155,604,o),
(176,597,o),
(176,575,cs),
(176,564,o),
(173,545,o),
(170,525,cs),
(101,75,ls),
(95,33,o),
(69,25,o),
(35,25,cs),
(13,25,l),
(8,-3,l)
);
}
);
};
layerId = "DA9A1FD1-A1AE-48D8-AEBB-5D2735E579CD";
shapes = (
{
closed = 1;
nodes = (
(56,0,o),
(147,0,o),
(161,0,cs),
(214,0,o),
(256,-1,o),
(299,-3,c),
(302,25,l),
(272,25,ls),
(243,25,o),
(226,37,o),
(226,61,cs),
(226,76,o),
(229,95,o),
(232,117,cs),
(261,312,l),
(363,312,ls),
(376,312,o),
(401,303,o),
(401,261,cs),
(401,253,o),
(400,244,o),
(400,237,c),
(425,237,l),
(452,408,l),
(426,408,l),
(417,368,o),
(402,346,o),
(367,346,cs),
(265,346,l),
(304,597,l),
(389,597,ls),
(435,597,o),
(467,582,o),
(467,537,cs),
(467,528,o),
(466,517,o),
(466,513,c),
(492,513,l),
(509,634,l),
(455,632,o),
(391,631,o),
(338,631,cs),
(281,631,o),
(166,634,o),
(108,636,c),
(103,608,l),
(120,608,ls),
(154,608,o),
(176,593,o),
(176,569,cs),
(176,557,o),
(173,539,o),
(172,531,cs),
(102,86,ls),
(94,38,o),
(69,27,o),
(32,27,cs),
(25,27,l),
(21,-1,l)
);
}
);
width = 495;
},
{
anchors = (
{
name = bottom;
pos = (172,0);
},
{
name = top;
pos = (271,629);
}
);
layerId = "D87563F8-F81F-45D9-80E8-0AF800F60BE2";
shapes = (
{
closed = 1;
nodes = (
(59,-2,o),
(126,0,o),
(140,0,cs),
(159,0,o),
(201,-1,o),
(244,-3,c),
(245,8,l),
(216,8,ls),
(187,8,o),
(170,20,o),
(170,50,cs),
(170,59,o),
(173,78,o),
(176,100,cs),
(210,318,l),
(316,318,ls),
(330,318,o),
(355,311,o),
(355,261,cs),
(355,255,o),
(354,248,o),
(354,243,c),
(365,243,l),
(391,408,l),
(380,408,l),
(371,359,o),
(355,336,o),
(319,336,cs),
(212,336,l),
(255,613,l),
(343,613,ls),
(387,613,o),
(420,599,o),
(420,537,cs),
(420,529,o),
(419,519,o),
(419,515,c),
(430,515,l),
(447,634,l),
(393,632,o),
(340,631,o),
(287,631,cs),
(230,631,o),
(173,632,o),
(115,634,c),
(113,623,l),
(126,623,ls),
(160,623,o),
(183,612,o),
(183,588,cs),
(183,576,o),
(180,558,o),
(179,550,cs),
(104,67,ls),
(97,19,o),
(71,8,o),
(34,8,cs),
(27,8,l),
(24,-3,l)
);
}
);
width = 431;
},
{
anchors = (
{
name = bottom;
pos = (202,0);
},
{
name = top;
pos = (302,629);
}
);
background = {
shapes = (
{
closed = 1;
nodes = (
(105,-2,o),
(259,0,o),
(289,0,cs),
(352,0,o),
(393,-1,o),
(460,-3,c),
(513,144,l),
(499,144,l),
(462,63,o),
(433,27,o),
(374,27,cs),
(288,27,ls),
(245,27,o),
(230,39,o),
(230,63,cs),
(230,77,o),
(233,103,o),
(236,119,cs),
(269,324,l),
(401,324,ls),
(432,324,o),
(444,312,o),
(444,282,cs),
(444,271,o),
(442,261,o),
(441,253,c),
(455,254,l),
(480,413,l),
(467,413,l),
(461,373,o),
(438,351,o),
(401,351,cs),
(273,351,l),
(314,604,l),
(450,604,ls),
(499,604,o),
(510,566,o),
(510,537,cs),
(510,513,l),
(523,513,l),
(543,632,l),
(508,630,o),
(432,629,o),
(369,629,cs),
(296,629,o),
(176,630,o),
(113,632,c),
(111,619,l),
(130,619,ls),
(164,619,o),
(185,607,o),
(185,575,cs),
(185,564,o),
(182,545,o),
(179,525,cs),
(107,66,ls),
(100,24,o),
(72,10,o),
(38,10,cs),
(16,10,l),
(14,-3,l)
);
}
);
};
layerId = "51D6B0A0-6F19-4220-A6A1-A0AA8B6A64E3";
shapes = (
{
closed = 1;
nodes = (
(66,-2,o),
(159,0,o),
(199,0,cs),
(218,0,o),
(258,-1,o),
(301,-3,c),
(303,10,l),
(274,10,ls),
(245,10,o),
(228,22,o),
(228,54,cs),
(228,63,o),
(230,82,o),
(234,104,cs),
(269,315,l),
(371,315,ls),
(400,315,o),
(410,302,o),
(410,261,cs),
(410,255,o),
(409,248,o),
(409,243,c),
(423,243,l),
(449,408,l),
(435,408,l),
(426,363,o),
(410,341,o),
(375,341,cs),
(272,341,l),
(313,605,l),
(401,605,ls),
(445,605,o),
(475,591,o),
(475,537,cs),
(475,529,o),
(474,519,o),
(474,515,c),
(488,515,l),
(505,634,l),
(451,632,o),
(399,631,o),
(346,631,cs),
(286,631,o),
(183,632,o),
(109,634,c),
(106,621,l),
(129,621,ls),
(163,621,o),
(186,610,o),
(186,590,cs),
(186,577,o),
(183,554,o),
(181,544,cs),
(107,71,ls),
(99,21,o),
(69,10,o),
(27,10,cs),
(20,10,l),
(18,-3,l)
);
}
);
width = 489;
}
);
metricLeft = H;
metricRight = F;
note = F;
unicode = 70;
},
{
color = 3;
glyphname = Fhook;
kernLeft = H;
kernRight = F;
lastChange = "2024-10-18 09:42:06 +0000";
layers = (
{
layerId = "3F96BAE2-444C-49D6-BFC1-9C0488685DF2";
shapes = (
{
closed = 1;
nodes = (
(49,-285,o),
(124,-208,o),
(151,-42,cs),
(209,315,l),
(300,315,ls),
(314,315,o),
(339,307,o),
(340,261,cs),
(340,255,o),
(339,248,o),
(339,243,c),
(364,243,l),
(390,408,l),
(365,408,l),
(356,368,o),
(340,346,o),
(306,346,cs),
(214,346,l),
(253,597,l),
(341,597,ls),
(385,597,o),
(413,583,o),
(413,537,cs),
(413,529,o),
(412,519,o),
(412,515,c),
(437,515,l),
(454,634,l),
(400,632,o),
(339,631,o),
(286,631,cs),
(229,631,o),
(168,632,o),
(110,634,c),
(107,607,l),
(120,607,ls),
(154,607,o),
(176,598,o),
(175,576,cs),
(175,564,o),
(172,546,o),
(171,538,cs),
(65,-158,ls),
(55,-224,o),
(29,-254,o),
(-4,-254,cs),
(-36,-254,o),
(-48,-219,o),
(-80,-219,cs),
(-97,-219,o),
(-108,-231,o),
(-108,-247,cs),
(-108,-268,o),
(-82,-285,o),
(-42,-285,cs)
);
}
);
width = 418;
},
{
layerId = "DA9A1FD1-A1AE-48D8-AEBB-5D2735E579CD";
shapes = (
{
closed = 1;
nodes = (
(101,-286,o),
(201,-126,o),
(217,0,cs),
(261,312,l),
(363,312,ls),
(376,312,o),
(401,303,o),
(401,261,cs),
(401,253,o),
(400,244,o),
(400,237,c),
(425,237,l),
(452,408,l),
(426,408,l),
(417,368,o),
(402,346,o),
(367,346,cs),
(265,346,l),
(304,597,l),
(389,597,ls),
(435,597,o),
(467,582,o),
(467,537,cs),
(467,528,o),
(466,517,o),
(466,513,c),
(492,513,l),
(509,634,l),
(455,632,o),
(391,631,o),
(338,631,cs),
(281,631,o),
(166,634,o),
(108,636,c),
(103,608,l),
(120,608,ls),
(154,608,o),
(176,593,o),
(176,569,cs),
(176,557,o),
(173,539,o),
(172,531,cs),
(76,-106,ls),
(62,-202,o),
(39,-257,o),
(11,-257,cs),
(-21,-257,o),
(-28,-188,o),
(-79,-188,cs),
(-103,-188,o),
(-122,-207,o),
(-122,-230,cs),
(-122,-267,o),
(-75,-286,o),
(-30,-286,cs)
);
}
);
width = 495;
},
{
layerId = "D87563F8-F81F-45D9-80E8-0AF800F60BE2";
shapes = (
{
closed = 1;
nodes = (
(52,-285,o),
(126,-212,o),
(152,-49,cs),
(210,320,l),
(316,320,ls),
(330,320,o),
(355,311,o),
(355,261,cs),
(355,255,o),
(354,248,o),
(354,243,c),
(365,243,l),
(391,408,l),
(380,408,l),
(371,359,o),
(355,333,o),
(319,333,cs),
(212,333,l),
(255,615,l),
(343,615,ls),
(387,615,o),
(420,599,o),
(420,537,cs),
(420,529,o),
(419,519,o),
(419,515,c),
(430,515,l),
(447,634,l),
(393,632,o),
(340,631,o),
(287,631,cs),
(230,631,o),
(173,632,o),
(115,634,c),
(113,623,l),
(126,623,ls),
(160,623,o),
(183,612,o),
(183,588,cs),
(183,576,o),
(180,558,o),
(179,550,cs),
(71,-148,ls),
(57,-239,o),
(28,-270,o),
(-4,-270,cs),
(-34,-270,o),
(-45,-234,o),
(-77,-234,cs),
(-91,-234,o),
(-100,-242,o),
(-100,-255,cs),
(-100,-275,o),
(-74,-285,o),
(-35,-285,cs)
);
}
);
width = 431;
},
{
layerId = "51D6B0A0-6F19-4220-A6A1-A0AA8B6A64E3";
shapes = (
{
closed = 1;
nodes = (
(102,-286,o),
(205,-120,o),
(222,6,cs),
(269,315,l),
(371,315,ls),
(400,315,o),
(410,302,o),
(410,261,cs),
(410,255,o),
(409,248,o),
(409,243,c),
(423,243,l),
(449,408,l),
(435,408,l),
(426,363,o),
(410,341,o),
(375,341,cs),
(272,341,l),
(313,605,l),
(401,605,ls),
(445,605,o),
(475,591,o),
(475,537,cs),
(475,529,o),
(474,519,o),
(474,515,c),
(488,515,l),
(505,634,l),
(451,632,o),
(399,631,o),
(346,631,cs),
(286,631,o),
(183,632,o),
(109,634,c),
(106,621,l),
(129,621,ls),
(163,621,o),
(186,610,o),
(186,590,cs),
(186,577,o),
(183,554,o),
(181,544,cs),
(79,-105,ls),
(63,-207,o),
(41,-267,o),
(13,-267,cs),
(-19,-267,o),
(-26,-188,o),
(-77,-188,cs),
(-101,-188,o),
(-120,-207,o),
(-120,-230,cs),
(-120,-267,o),
(-73,-286,o),
(-28,-286,cs)
);
}
);
width = 489;
}
);
metricRight = F;
unicode = 401;
},
{
color = 3;
glyphname = G;
kernLeft = O;
kernRight = G;
lastChange = "2024-10-18 09:42:43 +0000";
layers = (
{
anchors = (
{
name = bottom;
pos = (329,0);
},
{
name = top;
pos = (424,629);
}
);
hints = (
{
horizontal = 1;
origin = (0,49);
target = (0,23);
type = Stem;
},
{
horizontal = 1;
origin = (0,14);
target = (0,13);
type = Stem;
},
{
horizontal = 1;
origin = (0,40);
target = (0,32);
type = Stem;
}
);
layerId = "3F96BAE2-444C-49D6-BFC1-9C0488685DF2";
shapes = (
{
closed = 1;
nodes = (
(408,-12,o),
(454,-8,o),
(508,3,c),
(532,152,ls),
(537,186,o),
(558,200,o),
(602,200,c),
(607,227,l),
(574,226,o),
(539,224,o),
(506,224,cs),
(476,224,o),
(434,226,o),
(400,227,c),
(395,200,l),
(431,200,o),
(460,199,o),
(460,158,cs),
(460,145,o),
(453,99,o),
(448,73,cs),
(439,28,o),
(398,17,o),
(351,17,cs),
(213,17,o),
(139,78,o),
(139,217,cs),
(139,312,o),
(169,445,o),
(229,520,cs),
(280,584,o),
(351,611,o),
(448,611,cs),
(543,611,o),
(572,578,o),
(572,488,c),
(598,488,l),
(617,626,l),
(546,637,o),
(506,641,o),
(460,641,cs),
(348,641,o),
(260,609,o),
(195,552,cs),
(105,473,o),
(61,350,o),
(61,237,cs),
(61,77,o),
(160,-12,o),
(357,-12,cs)
);
}
);
width = 636;
},
{
anchors = (
{
name = bottom;
pos = (346,0);
},
{
name = top;
pos = (451,629);
}
);
background = {
shapes = (
{
closed = 1;
nodes = (
(414,-11,o),
(476,3,o),
(514,15,c),
(576,123,l),
(552,131,l),
(498,49,o),
(448,19,o),
(357,19,cs),
(259,19,o),
(201,85,o),
(201,205,cs),
(201,270,o),
(214,343,o),
(246,430,cs),
(284,532,o),
(350,610,o),
(461,610,cs),
(522,610,o),
(574,594,o),
(574,514,cs),
(574,493,l),
(598,493,l),
(608,627,l),
(548,636,o),
(514,639,o),
(466,639,cs),
(318,639,o),
(216,599,o),
(136,476,cs),
(87,399,o),
(64,310,o),
(64,238,cs),
(64,74,o),
(182,-11,o),
(353,-11,cs)
);
}
);
};
layerId = "DA9A1FD1-A1AE-48D8-AEBB-5D2735E579CD";
shapes = (
{
closed = 1;
nodes = (
(429,-10,o),
(484,-5,o),
(559,13,c),
(583,150,ls),
(589,184,o),
(609,198,o),
(653,198,c),
(658,226,l),
(625,225,o),
(590,223,o),
(557,223,cs),
(513,223,o),
(442,225,o),
(395,226,c),
(390,198,l),
(421,198,o),
(455,197,o),
(455,156,cs),
(455,143,o),
(446,91,o),
(441,65,cs),
(431,18,o),
(393,20,o),
(368,20,cs),
(264,20,o),
(202,84,o),
(202,217,cs),
(202,281,o),
(217,433,o),
(291,525,cs),
(334,579,o),
(398,607,o),
(473,607,cs),
(583,607,o),
(612,576,o),
(612,490,c),
(638,490,l),
(656,626,l),
(565,637,o),
(532,641,o),
(488,641,cs),
(376,641,o),
(288,619,o),
(223,572,cs),
(117,495,o),
(62,365,o),
(62,237,cs),
(62,77,o),
(174,-10,o),
(378,-10,cs)
);
}
);
width = 681;
},
{
anchors = (
{
name = bottom;
pos = (334,0);
},
{
name = top;
pos = (430,629);
}
);
layerId = "D87563F8-F81F-45D9-80E8-0AF800F60BE2";
shapes = (
{
closed = 1;
nodes = (
(417,-12,o),
(463,-8,o),
(517,3,c),
(541,151,ls),
(547,185,o),
(567,199,o),
(611,199,c),
(612,210,l),
(579,209,o),
(544,207,o),
(511,207,cs),
(485,207,o),
(443,209,o),
(409,210,c),
(408,199,l),
(444,199,o),
(473,198,o),
(473,157,cs),
(473,144,o),
(464,91,o),
(459,65,cs),
(446,0,o),
(402,2,o),
(360,2,cs),
(222,2,o),
(144,70,o),
(144,217,cs),
(144,281,o),
(160,430,o),
(232,521,cs),
(289,592,o),
(353,626,o),
(463,626,cs),
(560,626,o),
(597,594,o),
(597,499,c),
(608,499,l),
(626,625,l),
(545,636,o),
(515,640,o),
(476,640,cs),
(348,640,o),
(268,613,o),
(197,547,cs),
(106,463,o),
(70,355,o),
(70,237,cs),
(70,77,o),
(169,-12,o),
(366,-12,cs)
);
}
);
width = 645;
},
{
anchors = (
{
name = bottom;
pos = (324,0);
},
{
name = top;
pos = (454,629);
}
);
layerId = "51D6B0A0-6F19-4220-A6A1-A0AA8B6A64E3";
shapes = (
{
closed = 1;
nodes = (
(429,-10,o),
(484,-5,o),
(559,13,c),
(586,165,ls),
(592,199,o),
(612,213,o),
(656,213,c),
(658,227,l),
(625,226,o),
(590,224,o),
(557,224,cs),
(513,224,o),
(442,226,o),
(395,227,c),
(393,213,l),
(424,213,o),
(458,212,o),
(458,171,cs),
(458,158,o),
(447,95,o),
(441,65,cs),
(428,4,o),
(393,4,o),
(368,4,cs),
(261,4,o),
(202,73,o),
(202,213,cs),
(202,278,o),
(214,435,o),
(289,529,cs),
(340,592,o),
(400,627,o),
(485,627,cs),
(598,627,o),
(628,595,o),
(628,502,c),
(641,502,l),
(656,626,l),
(565,637,o),
(532,641,o),
(488,641,cs),
(375,641,o),
(284,616,o),
(218,569,cs),
(108,491,o),
(62,359,o),
(62,237,cs),
(62,77,o),
(174,-10,o),
(378,-10,cs)
);
}
);
width = 690;
}
);
metricLeft = O;
note = G;
unicode = 71;
},
{
color = 3;
glyphname = H;
kernLeft = H;
kernRight = H;
lastChange = "2024-10-18 09:41:35 +0000";
layers = (
{
anchors = (
{
name = bottom;
pos = (312,0);
},
{
name = center;
pos = (362,315);
},
{
name = top;
pos = (412,629);
},
{
name = topleft;
pos = (87,629);
}
);
background = {
shapes = (
{
closed = 1;
nodes = (
(28,-1,o),
(65,0,o),
(111,0,cs),
(154,0,o),
(192,-1,o),
(234,-3,c),
(239,24,l),
(212,24,ls),
(165,24,o),
(153,32,o),
(163,89,cs),
(202,311,l),
(529,311,l),
(490,89,ls),
(480,33,o),
(467,24,o),
(420,24,cs),
(392,24,l),
(387,-3,l),
(431,-1,o),
(476,0,o),
(520,0,cs),
(561,0,o),
(601,-1,o),
(637,-3,c),
(642,24,l),
(638,24,l),
(580,24,o),
(564,25,o),
(575,86,cs),
(655,542,ls),
(666,604,o),
(684,605,o),
(742,605,c),
(744,605,l),
(749,632,l),
(703,630,o),
(653,629,o),
(630,629,cs),
(586,629,o),
(542,631,o),
(499,632,c),
(494,605,l),
(512,605,ls),
(567,605,o),
(580,600,o),
(570,542,cs),
(536,347,l),
(209,347,l),
(243,541,ls),
(252,595,o),
(266,605,o),
(317,605,cs),
(341,605,l),
(346,632,l),
(290,630,o),
(256,629,o),
(219,629,cs),
(191,629,o),
(142,630,o),
(96,632,c),
(91,605,l),
(93,605,l),
(157,605,o),
(169,602,o),
(158,541,cs),
(79,93,ls),
(68,30,o),
(58,24,o),
(-6,24,c),
(-10,24,l),
(-15,-3,l)
);
}
);
};
hints = (
{
horizontal = 1;
origin = (0,83);
target = (0,82);
type = Stem;
},
{
horizontal = 1;
origin = (0,15);
target = (0,57);
type = Stem;
},
{
horizontal = 1;
origin = (0,69);
target = (0,71);
type = Stem;
},
{
horizontal = 1;
origin = (0,24);
target = (0,29);
type = Stem;
}
);
layerId = "3F96BAE2-444C-49D6-BFC1-9C0488685DF2";
shapes = (
{
closed = 1;
nodes = (
(51,-1,o),
(86,0,o),
(129,0,cs),
(170,0,o),
(208,-1,o),
(250,-3,c),
(253,24,l),
(240,24,ls),
(204,24,o),
(178,31,o),
(178,65,cs),
(178,85,o),
(182,106,o),
(184,117,cs),
(215,311,l),
(505,311,l),
(467,76,ls),
(460,33,o),
(435,23,o),
(398,23,cs),
(374,23,l),
(370,-3,l),
(410,-2,o),
(470,0,o),
(496,0,cs),
(541,0,o),
(576,-2,o),
(613,-3,c),
(618,23,l),
(593,23,ls),
(555,23,o),
(543,38,o),
(543,59,cs),
(543,71,o),
(547,92,o),
(550,114,cs),
(617,538,ls),
(626,596,o),
(645,605,o),
(702,605,cs),
(709,605,l),
(714,632,l),
(691,630,o),
(631,629,o),
(588,629,cs),
(555,629,o),
(515,630,o),
(470,632,c),
(465,605,l),
(487,605,ls),
(520,605,o),
(543,595,o),
(543,566,cs),
(543,557,o),
(538,527,o),
(536,513,cs),
(509,344,l),
(221,344,l),
(252,547,ls),
(260,599,o),
(283,605,o),
(332,605,cs),
(345,605,l),
(349,632,l),
(308,630,o),
(274,629,o),
(235,629,cs),
(187,629,o),
(147,630,o),
(111,632,c),
(106,605,l),
(126,605,ls),
(156,605,o),
(180,599,o),
(180,566,cs),
(180,554,o),
(178,540,o),
(176,528,cs),
(109,92,ls),
(99,30,o),
(80,24,o),
(21,24,cs),
(16,24,l),
(12,-3,l)
);
}
);
width = 692;
},
{
anchors = (
{
name = bottom;
pos = (344,0);
},
{
name = center;
pos = (394,315);
},
{
name = top;
pos = (444,629);
},
{
name = topleft;
pos = (86,629);
}
);
background = {
shapes = (
{
closed = 1;
nodes = (
(127,570,l),
(146,570,ls),
(173,570,o),
(196,565,o),
(196,534,cs),
(196,523,o),
(194,510,o),
(192,499,cs),
(127,77,ls),
(118,19,o),
(101,14,o),
(41,14,c),
(38,-3,l),
(74,-1,o),
(107,0,o),
(142,0,cs),
(180,0,o),
(215,-1,o),
(254,-3,c),
(256,14,l),
(244,14,ls),
(210,14,o),
(186,20,o),
(186,52,cs),
(186,70,o),
(190,90,o),
(192,100,cs),
(222,288,l),
(504,288,l),
(468,62,ls),
(462,22,o),
(438,13,o),
(404,13,cs),
(382,13,l),
(379,-3,l),
(416,-2,o),
(472,0,o),
(491,0,cs),
(528,0,o),
(560,-2,o),
(595,-3,c),
(598,13,l),
(575,13,ls),
(540,13,o),
(529,27,o),
(529,52,cs),
(529,57,o),
(531,72,o),
(532,77,cs),
(600,508,ls),
(609,567,o),
(631,570,o),
(685,570,c),
(688,587,l),
(667,585,o),
(611,584,o),
(576,584,cs),
(550,584,o),
(513,585,o),
(472,587,c),
(469,570,l),
(489,570,ls),
(520,570,o),
(541,561,o),
(541,534,cs),
(541,526,o),
(536,498,o),
(534,485,cs),
(507,313,l),
(226,313,l),
(258,517,ls),
(266,565,o),
(286,570,o),
(332,570,cs),
(344,570,l),
(346,587,l),
(308,585,o),
(276,584,o),
(240,584,cs),
(200,584,o),
(163,585,o),
(130,587,c)
);
}
);
};
layerId = "DA9A1FD1-A1AE-48D8-AEBB-5D2735E579CD";
shapes = (
{
closed = 1;
nodes = (
(48,-1,o),
(83,0,o),
(121,0,cs),
(173,0,o),
(264,-1,o),
(306,-3,c),
(309,25,l),
(296,25,ls),
(259,25,o),
(234,32,o),
(234,66,cs),
(234,86,o),
(238,107,o),
(240,118,cs),
(270,305,l),
(516,305,l),
(480,77,ls),
(473,34,o),
(447,24,o),
(411,24,cs),
(387,24,l),
(383,-3,l),
(423,-2,o),
(483,0,o),
(514,0,cs),
(587,0,o),
(642,-2,o),
(680,-3,c),
(684,24,l),
(659,24,ls),
(622,24,o),
(610,39,o),
(610,60,cs),
(610,72,o),
(613,93,o),
(616,115,cs),
(683,537,ls),
(692,595,o),
(711,604,o),
(769,604,cs),
(775,604,l),
(780,632,l),
(758,630,o),
(697,629,o),
(627,629,cs),
(567,629,o),
(527,630,o),
(483,632,c),
(478,604,l),
(500,604,ls),
(533,604,o),
(556,594,o),
(556,565,cs),
(556,556,o),
(551,526,o),
(549,512,cs),
(521,339,l),
(276,339,l),
(308,546,ls),
(316,598,o),
(338,604,o),
(388,604,cs),
(401,604,l),
(405,632,l),
(364,630,o),
(330,629,o),
(269,629,cs),
(194,629,o),
(144,630,o),
(108,632,c),
(103,604,l),
(123,604,ls),
(152,604,o),
(177,598,o),
(177,565,cs),
(177,553,o),
(175,539,o),
(173,527,cs),
(106,93,ls),
(96,31,o),
(77,25,o),
(18,25,cs),
(13,25,l),
(9,-3,l)
);
}
);
width = 755;
},
{
anchors = (
{
name = bottom;
pos = (315,0);
},
{
name = center;
pos = (365,315);
},
{
name = top;
pos = (414,629);
},
{
name = topleft;
pos = (87,629);
}
);
background = {
shapes = (
{
closed = 1;
nodes = (
(101,570,l),
(120,570,ls),
(147,570,o),
(170,565,o),
(170,534,cs),
(170,523,o),
(168,510,o),
(166,499,cs),
(101,77,ls),
(92,19,o),
(75,14,o),
(15,14,c),
(12,-3,l),
(48,-1,o),
(81,0,o),
(116,0,cs),
(154,0,o),
(189,-1,o),
(228,-3,c),
(230,14,l),
(218,14,ls),
(184,14,o),
(160,20,o),
(160,52,cs),
(160,70,o),
(164,90,o),
(166,100,cs),
(196,288,l),
(478,288,l),
(442,62,ls),
(436,22,o),
(412,13,o),
(378,13,cs),
(356,13,l),
(353,-3,l),
(390,-2,o),
(446,0,o),
(465,0,cs),
(502,0,o),
(534,-2,o),
(569,-3,c),
(572,13,l),
(549,13,ls),
(514,13,o),
(503,27,o),
(503,52,cs),
(503,57,o),
(505,72,o),
(506,77,cs),
(574,508,ls),
(583,567,o),
(605,570,o),
(659,570,c),
(662,587,l),
(641,585,o),
(585,584,o),
(550,584,cs),
(524,584,o),
(487,585,o),
(446,587,c),
(443,570,l),
(463,570,ls),
(494,570,o),
(515,561,o),
(515,534,cs),
(515,526,o),
(510,498,o),
(508,485,cs),
(481,313,l),
(200,313,l),
(232,517,ls),
(240,565,o),
(260,570,o),
(306,570,cs),
(318,570,l),
(320,587,l),
(282,585,o),
(250,584,o),
(214,584,cs),
(174,584,o),
(137,585,o),
(104,587,c)
);
}
);
};
layerId = "D87563F8-F81F-45D9-80E8-0AF800F60BE2";
shapes = (
{
closed = 1;
nodes = (
(53,-1,o),
(88,0,o),
(126,0,cs),
(167,0,o),
(205,-1,o),
(247,-3,c),
(249,8,l),
(234,8,ls),
(198,8,o),
(172,15,o),
(172,49,cs),
(172,69,o),
(176,90,o),
(178,101,cs),
(213,319,l),
(518,319,l),
(476,60,ls),
(469,17,o),
(445,8,o),
(408,8,cs),
(384,8,l),
(382,-3,l),
(422,-2,o),
(482,0,o),
(503,0,cs),
(543,0,o),
(577,-2,o),
(614,-3,c),
(616,8,l),
(592,8,ls),
(554,8,o),
(542,22,o),
(542,43,cs),
(542,55,o),
(545,76,o),
(549,98,cs),
(623,554,ls),
(632,612,o),
(650,621,o),
(707,621,cs),
(713,621,l),
(715,632,l),
(692,630,o),
(633,629,o),
(595,629,cs),
(567,629,o),
(527,630,o),
(482,632,c),
(480,621,l),
(503,621,ls),
(536,621,o),
(559,611,o),
(559,582,cs),
(559,573,o),
(553,543,o),
(551,529,cs),
(520,337,l),
(217,337,l),
(253,563,ls),
(261,615,o),
(284,621,o),
(333,621,cs),
(346,621,l),
(347,632,l),
(306,630,o),
(271,629,o),
(232,629,cs),
(189,629,o),
(150,630,o),
(114,632,c),
(112,621,l),
(132,621,ls),
(162,621,o),
(186,615,o),
(186,582,cs),
(186,570,o),
(184,556,o),
(182,544,cs),
(108,76,ls),
(98,14,o),
(79,8,o),
(20,8,cs),
(16,8,l),
(14,-3,l)
);
}
);
width = 695;
},
{
anchors = (
{
name = bottom;
pos = (344,0);
},
{
name = center;
pos = (394,315);
},
{
name = top;
pos = (444,629);
},
{
name = topleft;
pos = (87,629);
}
);
background = {
shapes = (
{
closed = 1;
nodes = (
(127,570,l),
(146,570,ls),
(173,570,o),
(196,565,o),
(196,534,cs),
(196,523,o),
(194,510,o),
(192,499,cs),
(127,77,ls),
(118,19,o),
(101,14,o),
(41,14,c),
(38,-3,l),
(74,-1,o),
(107,0,o),
(142,0,cs),
(180,0,o),
(215,-1,o),
(254,-3,c),
(256,14,l),
(244,14,ls),
(210,14,o),
(186,20,o),
(186,52,cs),
(186,70,o),
(190,90,o),
(192,100,cs),
(222,288,l),
(504,288,l),
(468,62,ls),
(462,22,o),
(438,13,o),
(404,13,cs),
(382,13,l),
(379,-3,l),
(416,-2,o),
(472,0,o),
(491,0,cs),
(528,0,o),
(560,-2,o),
(595,-3,c),
(598,13,l),
(575,13,ls),
(540,13,o),
(529,27,o),
(529,52,cs),
(529,57,o),
(531,72,o),
(532,77,cs),
(600,508,ls),
(609,567,o),
(631,570,o),
(685,570,c),
(688,587,l),
(667,585,o),
(611,584,o),
(576,584,cs),
(550,584,o),
(513,585,o),
(472,587,c),
(469,570,l),
(489,570,ls),
(520,570,o),
(541,561,o),
(541,534,cs),
(541,526,o),
(536,498,o),
(534,485,cs),
(507,313,l),
(226,313,l),
(258,517,ls),
(266,565,o),
(286,570,o),
(332,570,cs),
(344,570,l),
(346,587,l),
(308,585,o),
(276,584,o),
(240,584,cs),
(200,584,o),
(163,585,o),
(130,587,c)
);
}
);
};
layerId = "51D6B0A0-6F19-4220-A6A1-A0AA8B6A64E3";
shapes = (
{
closed = 1;
nodes = (
(48,-1,o),
(83,0,o),
(121,0,cs),
(173,0,o),
(264,-1,o),
(306,-3,c),
(307,10,l),
(294,10,ls),
(257,10,o),
(232,17,o),
(232,51,cs),
(232,71,o),
(236,92,o),
(238,103,cs),
(271,307,l),
(518,307,l),
(478,63,ls),
(471,20,o),
(445,10,o),
(409,10,cs),
(385,10,l),
(383,-3,l),
(423,-2,o),
(483,0,o),
(514,0,cs),
(587,0,o),
(642,-2,o),
(680,-3,c),
(682,10,l),
(657,10,ls),
(620,10,o),
(608,25,o),
(608,46,cs),
(608,58,o),
(611,79,o),
(614,100,cs),
(686,552,ls),
(695,610,o),
(714,619,o),
(772,619,cs),
(778,619,l),
(780,632,l),
(758,630,o),
(697,629,o),
(627,629,cs),
(567,629,o),
(527,630,o),
(483,632,c),
(481,619,l),
(503,619,ls),
(536,619,o),
(559,609,o),
(559,580,cs),
(559,571,o),
(554,541,o),
(552,527,cs),
(521,336,l),
(276,336,l),
(311,561,ls),
(319,613,o),
(341,619,o),
(391,619,cs),
(404,619,l),
(405,632,l),
(364,630,o),
(330,629,o),
(269,629,cs),
(194,629,o),
(144,630,o),
(108,632,c),
(106,619,l),
(126,619,ls),
(155,619,o),
(180,613,o),
(180,580,cs),
(180,568,o),
(178,554,o),
(176,542,cs),
(104,78,ls),
(94,16,o),
(75,10,o),
(16,10,cs),
(11,10,l),
(9,-3,l)
);
}
);
width = 755;
}
);
metricRight = "=|";
note = H;
unicode = 72;
},
{
color = 3;
glyphname = Hbar;
kernLeft = H;
kernRight = H;
lastChange = "2024-08-24 15:40:11 +0000";
layers = (
{
layerId = "3F96BAE2-444C-49D6-BFC1-9C0488685DF2";
shapes = (
{
closed = 1;
nodes = (
(698,465,l),
(703,492,l),
(89,492,l),
(84,465,l)
);
},
{
ref = H;
}
);
width = 690;
},
{
layerId = "DA9A1FD1-A1AE-48D8-AEBB-5D2735E579CD";
shapes = (
{
closed = 1;
nodes = (
(756,463,l),
(761,495,l),
(89,495,l),
(84,463,l)
);
},
{
ref = H;
}
);
width = 755;
},
{
layerId = "D87563F8-F81F-45D9-80E8-0AF800F60BE2";
shapes = (
{
closed = 1;
nodes = (
(711,471,l),
(714,488,l),
(77,488,l),
(74,471,l)
);
},
{
ref = H;
}
);
width = 693;
},
{
layerId = "51D6B0A0-6F19-4220-A6A1-A0AA8B6A64E3";
shapes = (
{
closed = 1;
nodes = (
(757,469,l),
(760,490,l),
(82,490,l),
(79,469,l)
);
},
{
ref = H;
}
);
width = 754;
}
);
unicode = 294;
},
{
color = 3;
glyphname = I;
kernRight = H;
lastChange = "2024-10-18 09:42:02 +0000";
layers = (
{
anchors = (
{
name = bottom;
pos = (131,0);
},
{
name = ogonek;
pos = (233,10);
},
{
name = top;
pos = (231,629);
},
{
name = topleft;
pos = (87,629);
}
);
hints = (
{
horizontal = 1;
origin = (0,39);
target = (0,38);
type = Stem;
},
{
horizontal = 1;
origin = (0,25);
target = (0,27);
type = Stem;
}
);
layerId = "3F96BAE2-444C-49D6-BFC1-9C0488685DF2";
shapes = (
{
closed = 1;
nodes = (
(51,-1,o),
(86,0,o),
(129,0,cs),
(170,0,o),
(208,-1,o),
(250,-3,c),
(255,24,l),
(240,24,ls),
(204,24,o),
(178,31,o),
(178,65,cs),
(178,85,o),
(182,106,o),
(184,117,cs),
(252,547,ls),
(260,599,o),
(283,605,o),
(332,605,cs),
(345,605,l),
(349,632,l),
(308,630,o),
(274,629,o),
(235,629,cs),
(187,629,o),
(147,630,o),
(111,632,c),
(106,605,l),
(126,605,ls),
(156,605,o),
(180,599,o),
(180,566,cs),
(180,554,o),
(178,540,o),
(176,528,cs),
(109,92,ls),
(99,30,o),
(80,24,o),
(21,24,cs),
(16,24,l),
(12,-3,l)
);
}
);
width = 329;
},
{
anchors = (
{
name = bottom;
pos = (156,0);
},
{
name = ogonek;
pos = (280,10);
},
{
name = top;
pos = (256,629);
},
{
name = topleft;
pos = (86,629);
}
);
layerId = "DA9A1FD1-A1AE-48D8-AEBB-5D2735E579CD";
shapes = (
{
closed = 1;
nodes = (
(48,-1,o),
(83,0,o),
(121,0,cs),
(173,0,o),
(263,-1,o),
(305,-3,c),
(309,25,l),
(296,25,ls),
(259,25,o),
(234,32,o),
(234,66,cs),
(234,86,o),
(238,107,o),
(240,118,cs),
(308,546,ls),
(316,598,o),
(338,604,o),
(388,604,cs),
(401,604,l),
(405,632,l),
(364,630,o),
(330,629,o),
(269,629,cs),
(194,629,o),
(144,630,o),
(108,632,c),
(103,604,l),
(123,604,ls),
(152,604,o),
(177,598,o),
(177,565,cs),
(177,553,o),
(175,539,o),
(173,527,cs),
(106,93,ls),
(96,31,o),
(77,25,o),
(18,25,cs),
(13,25,l),
(9,-3,l)
);
}
);
width = 380;
},
{
anchors = (
{
name = bottom;
pos = (131,0);
},
{
name = ogonek;
pos = (232,10);
},
{
name = top;
pos = (230,629);
},
{
name = topleft;
pos = (87,629);
}
);
layerId = "D87563F8-F81F-45D9-80E8-0AF800F60BE2";
shapes = (
{
closed = 1;
nodes = (
(53,-1,o),
(88,0,o),
(126,0,cs),
(167,0,o),
(205,-1,o),
(247,-3,c),
(249,8,l),
(234,8,ls),
(198,8,o),
(172,15,o),
(172,49,cs),
(172,69,o),
(176,90,o),
(178,101,cs),
(253,563,ls),
(261,615,o),
(284,621,o),
(333,621,cs),
(346,621,l),
(347,632,l),
(306,630,o),
(271,629,o),
(232,629,cs),
(189,629,o),
(150,630,o),
(114,632,c),
(112,621,l),
(132,621,ls),
(162,621,o),
(186,615,o),
(186,582,cs),
(186,570,o),
(184,556,o),
(182,544,cs),
(108,76,ls),
(98,14,o),
(79,8,o),
(20,8,cs),
(16,8,l),
(14,-3,l)
);
}
);
width = 328;
},
{
anchors = (
{
name = bottom;
pos = (156,0);
},
{
name = ogonek;
pos = (278,10);
},
{
name = top;
pos = (256,629);
},
{
name = topleft;
pos = (87,629);
}
);
layerId = "51D6B0A0-6F19-4220-A6A1-A0AA8B6A64E3";
shapes = (
{
closed = 1;
nodes = (
(43,-2,o),
(94,0,o),
(155,0,cs),
(237,0,o),
(278,-2,o),
(303,-3,c),
(305,10,l),
(283,10,ls),
(256,10,o),
(231,14,o),
(231,49,cs),
(231,66,o),
(236,94,o),
(241,128,cs),
(311,565,ls),
(319,614,o),
(341,619,o),
(391,619,cs),
(401,619,l),
(403,632,l),
(362,630,o),
(311,629,o),
(272,629,cs),
(212,629,o),
(157,630,o),
(108,632,c),
(106,619,l),
(126,619,ls),
(155,619,o),
(180,615,o),
(180,581,cs),
(180,571,o),
(178,551,o),
(174,525,cs),
(102,73,ls),
(94,23,o),
(75,10,o),
(23,10,cs),
(10,10,l),
(8,-3,l)
);
}
);
width = 378;
}
);
metricLeft = H;
metricRight = H;
note = I;
unicode = 73;
},
{
color = 3;
glyphname = J;
kernLeft = J;
kernRight = J;
lastChange = "2024-10-18 09:42:06 +0000";
layers = (
{
anchors = (
{
name = bottom;
pos = (110,0);
},
{
name = top;
pos = (210,629);
}
);
hints = (
{
horizontal = 1;
origin = (0,37);
target = (0,28);
type = Stem;
},
{
horizontal = 1;
origin = (0,16);
target = (0,18);
type = Stem;
}
);
layerId = "3F96BAE2-444C-49D6-BFC1-9C0488685DF2";
shapes = (
{
closed = 1;
nodes = (
(-78,-285,o),
(-35,-281,o),
(20,-232,cs),
(73,-185,o),
(124,-109,o),
(151,57,cs),
(230,548,ls),
(239,601,o),
(262,605,o),
(314,605,c),
(319,632,l),
(281,631,o),
(242,629,o),
(205,629,cs),
(167,629,o),
(129,631,o),
(91,632,c),
(86,605,l),
(104,605,ls),
(142,605,o),
(159,598,o),
(159,565,cs),
(159,554,o),
(154,527,o),
(153,519,cs),
(68,-14,ls),
(53,-109,o),
(27,-243,o),
(-57,-243,cs),
(-97,-243,o),
(-117,-210,o),
(-154,-210,cs),
(-175,-210,o),
(-184,-225,o),
(-184,-239,cs),
(-184,-266,o),
(-150,-285,o),
(-108,-285,cs)
);
}
);
width = 287;
},
{
anchors = (
{
name = bottom;
pos = (145,0);
},
{
name = top;
pos = (245,629);
}
);
layerId = "DA9A1FD1-A1AE-48D8-AEBB-5D2735E579CD";
shapes = (
{
closed = 1;
nodes = (
(-46,-285,o),
(22,-260,o),
(80,-209,cs),
(140,-155,o),
(199,-92,o),
(226,75,cs),
(303,548,ls),
(312,601,o),
(335,604,o),
(387,604,c),
(391,632,l),
(353,631,o),
(305,629,o),
(224,629,cs),
(186,629,o),
(138,631,o),
(100,632,c),
(96,604,l),
(124,604,ls),
(156,604,o),
(172,600,o),
(172,573,cs),
(172,556,o),
(167,531,o),
(166,522,cs),
(81,-14,ls),
(69,-92,o),
(40,-241,o),
(-36,-241,cs),
(-71,-241,o),
(-92,-187,o),
(-133,-187,cs),
(-164,-187,o),
(-181,-207,o),
(-181,-229,cs),
(-181,-265,o),
(-140,-285,o),
(-95,-285,cs)
);
}
);
width = 358;
},
{
anchors = (
{
name = bottom;
pos = (112,0);
},
{
name = top;
pos = (211,629);
}
);
layerId = "D87563F8-F81F-45D9-80E8-0AF800F60BE2";
shapes = (
{
closed = 1;
nodes = (
(-78,-285,o),
(-35,-281,o),
(20,-232,cs),
(73,-185,o),
(124,-109,o),
(151,57,cs),
(232,564,ls),
(240,617,o),
(264,621,o),
(316,621,c),
(318,632,l),
(280,631,o),
(241,629,o),
(204,629,cs),
(166,629,o),
(128,631,o),
(90,632,c),
(88,621,l),
(106,621,ls),
(144,621,o),
(165,614,o),
(165,581,cs),
(165,570,o),
(161,547,o),
(160,539,cs),
(72,-14,ls),
(51,-146,o),
(38,-253,o),
(-57,-253,cs),
(-97,-253,o),
(-118,-219,o),
(-156,-219,cs),
(-176,-219,o),
(-184,-230,o),
(-184,-243,cs),
(-184,-267,o),
(-147,-285,o),
(-108,-285,cs)
);
}
);
width = 289;
},
{
anchors = (
{
name = bottom;
pos = (141,0);
},
{
name = top;
pos = (241,629);
}
);
layerId = "51D6B0A0-6F19-4220-A6A1-A0AA8B6A64E3";
shapes = (
{
closed = 1;
nodes = (
(-54,-285,o),
(0,-263,o),
(63,-207,cs),
(122,-154,o),
(190,-88,o),
(216,75,cs),
(295,563,ls),
(304,616,o),
(327,619,o),
(379,619,c),
(381,632,l),
(343,631,o),
(305,629,o),
(224,629,cs),
(183,629,o),
(141,631,o),
(100,632,c),
(98,619,l),
(116,619,ls),
(148,619,o),
(164,614,o),
(164,585,cs),
(164,570,o),
(161,552,o),
(159,537,cs),
(72,-14,ls),
(49,-161,o),
(29,-253,o),
(-47,-253,cs),
(-82,-253,o),
(-101,-187,o),
(-148,-187,cs),
(-174,-187,o),
(-193,-207,o),
(-193,-229,cs),
(-193,-262,o),
(-148,-285,o),
(-102,-285,cs)
);
}
);
width = 347;
}
);
metricRight = "=H*.8";
note = J;
unicode = 74;
},
{
color = 3;
glyphname = K;
kernLeft = H;
kernRight = X;
lastChange = "2024-10-18 09:42:02 +0000";
layers = (
{
anchors = (
{
name = bottom;
pos = (278,0);
},
{
name = top;
pos = (378,629);
}
);
hints = (
{
horizontal = 1;
origin = (0,82);
target = (0,81);
type = Stem;
},
{
horizontal = 1;
origin = (0,15);
target = (0,57);
type = Stem;
},
{
horizontal = 1;
origin = (0,68);
target = (0,70);
type = Stem;
},
{
horizontal = 1;
origin = (0,27);
target = (0,81);
type = Stem;
}
);
layerId = "3F96BAE2-444C-49D6-BFC1-9C0488685DF2";
shapes = (
{
closed = 1;
nodes = (
(48,-2,o),
(88,0,o),
(127,0,cs),
(167,0,o),
(210,-2,o),
(250,-3,c),
(255,24,l),
(224,24,ls),
(186,24,o),
(179,47,o),
(179,69,cs),
(179,79,o),
(181,95,o),
(184,114,cs),
(214,310,l),
(221,310,l),
(364,123,ls),
(401,75,o),
(403,63,o),
(403,48,cs),
(403,29,o),
(387,24,o),
(359,24,cs),
(336,24,l),
(331,-3,l),
(382,-2,o),
(434,0,o),
(459,0,cs),
(501,0,o),
(543,-2,o),
(585,-3,c),
(590,24,l),
(576,24,ls),
(545,24,o),
(518,36,o),
(493,69,cs),
(283,344,l),
(530,561,ls),
(567,594,o),
(586,605,o),
(624,605,c),
(628,632,l),
(596,630,o),
(565,629,o),
(535,629,cs),
(505,629,o),
(476,630,o),
(443,632,c),
(439,605,l),
(452,605,ls),
(476,605,o),
(495,604,o),
(495,584,cs),
(495,567,o),
(476,549,o),
(463,538,cs),
(222,325,l),
(218,325,l),
(253,552,ls),
(261,605,o),
(289,605,o),
(346,605,c),
(351,632,l),
(308,630,o),
(267,629,o),
(233,629,cs),
(194,629,o),
(153,630,o),
(111,632,c),
(107,605,l),
(133,605,ls),
(163,605,o),
(181,598,o),
(181,567,cs),
(181,561,o),
(179,542,o),
(178,537,cs),
(106,76,ls),
(100,35,o),
(77,24,o),
(41,24,cs),
(15,24,l),
(10,-3,l)
);
}
);
width = 609;
},
{
anchors = (
{
name = bottom;
pos = (320,0);
},
{
name = top;
pos = (420,629);
}
);
layerId = "DA9A1FD1-A1AE-48D8-AEBB-5D2735E579CD";
shapes = (
{
closed = 1;
nodes = (
(48,-1,o),
(130,0,o),
(168,0,cs),
(220,0,o),
(264,-1,o),
(306,-3,c),
(309,25,l),
(296,25,ls),
(259,25,o),
(234,32,o),
(234,66,cs),
(234,86,o),
(238,107,o),
(240,118,cs),
(271,310,l),
(282,310,l),
(401,117,ls),
(428,73,o),
(433,62,o),
(433,48,cs),
(433,29,o),
(418,25,o),
(394,25,cs),
(371,25,l),
(368,-3,l),
(419,-2,o),
(531,0,o),
(556,0,cs),
(598,0,o),
(630,-2,o),
(672,-3,c),
(676,25,l),
(663,25,ls),
(618,25,o),
(602,43,o),
(588,65,cs),
(389,377,l),
(595,561,ls),
(637,599,o),
(665,604,o),
(711,604,c),
(715,632,l),
(677,630,o),
(640,629,o),
(592,629,cs),
(562,629,o),
(533,630,o),
(500,632,c),
(496,604,l),
(509,604,ls),
(533,604,o),
(554,603,o),
(554,583,cs),
(554,566,o),
(534,549,o),
(521,537,cs),
(284,325,l),
(273,325,l),
(308,546,ls),
(316,594,o),
(327,604,o),
(401,604,c),
(405,632,l),
(364,630,o),
(330,629,o),
(269,629,cs),
(194,629,o),
(144,630,o),
(108,632,c),
(103,604,l),
(123,604,ls),
(152,604,o),
(177,598,o),
(177,565,cs),
(177,553,o),
(175,539,o),
(173,527,cs),
(106,93,ls),
(96,31,o),
(77,25,o),
(18,25,cs),
(13,25,l),
(9,-3,l)
);
}
);
width = 691;
},
{
anchors = (
{
name = bottom;
pos = (272,0);
},
{
name = top;
pos = (371,629);
}
);
layerId = "D87563F8-F81F-45D9-80E8-0AF800F60BE2";
shapes = (
{
closed = 1;
nodes = (
(52,-2,o),
(92,0,o),
(131,0,cs),
(171,0,o),
(210,-2,o),
(250,-3,c),
(251,8,l),
(220,8,ls),
(182,8,o),
(175,31,o),
(175,53,cs),
(175,63,o),
(177,79,o),
(180,98,cs),
(214,310,l),
(225,310,l),
(364,107,ls),
(399,56,o),
(402,48,o),
(402,32,cs),
(402,13,o),
(387,8,o),
(355,8,cs),
(332,8,l),
(331,-3,l),
(382,-2,o),
(434,0,o),
(459,0,cs),
(501,0,o),
(533,-2,o),
(575,-3,c),
(577,8,l),
(572,8,ls),
(529,8,o),
(500,22,o),
(479,53,cs),
(278,349,l),
(532,578,ls),
(569,611,o),
(588,621,o),
(626,621,c),
(628,632,l),
(596,630,o),
(565,629,o),
(535,629,cs),
(505,629,o),
(476,630,o),
(443,632,c),
(441,621,l),
(454,621,ls),
(483,621,o),
(514,620,o),
(514,600,cs),
(514,583,o),
(494,565,o),
(481,554,cs),
(227,325,l),
(218,325,l),
(255,568,ls),
(263,621,o),
(291,621,o),
(348,621,c),
(351,632,l),
(308,630,o),
(267,629,o),
(233,629,cs),
(198,629,o),
(157,630,o),
(115,632,c),
(113,621,l),
(139,621,ls),
(169,621,o),
(187,614,o),
(187,583,cs),
(187,577,o),
(185,558,o),
(184,553,cs),
(106,60,ls),
(100,19,o),
(77,8,o),
(41,8,cs),
(15,8,l),
(14,-3,l)
);
}
);
width = 608;
},
{
anchors = (
{
name = bottom;
pos = (320,0);
},
{
name = top;
pos = (420,629);
}
);
layerId = "51D6B0A0-6F19-4220-A6A1-A0AA8B6A64E3";
shapes = (
{
closed = 1;
nodes = (
(49,-1,o),
(131,0,o),
(169,0,cs),
(221,0,o),
(265,-1,o),
(307,-3,c),
(308,10,l),
(295,10,ls),
(258,10,o),
(233,17,o),
(233,51,cs),
(233,71,o),
(237,92,o),
(239,103,cs),
(272,310,l),
(283,310,l),
(400,102,ls),
(425,57,o),
(432,47,o),
(432,33,cs),
(432,14,o),
(417,10,o),
(393,10,cs),
(370,10,l),
(369,-3,l),
(420,-2,o),
(532,0,o),
(557,0,cs),
(599,0,o),
(631,-2,o),
(673,-3,c),
(675,10,l),
(662,10,ls),
(617,10,o),
(599,27,o),
(586,49,cs),
(382,387,l),
(598,576,ls),
(640,614,o),
(668,619,o),
(714,619,c),
(716,632,l),
(678,630,o),
(641,629,o),
(593,629,cs),
(580,629,o),
(551,630,o),
(518,632,c),
(516,619,l),
(529,619,ls),
(553,619,o),
(574,618,o),
(574,598,cs),
(574,581,o),
(554,564,o),
(541,552,cs),
(285,325,l),
(274,325,l),
(311,561,ls),
(319,609,o),
(330,619,o),
(404,619,c),
(406,632,l),
(365,630,o),
(331,629,o),
(270,629,cs),
(195,629,o),
(145,630,o),
(109,632,c),
(106,619,l),
(126,619,ls),
(155,619,o),
(180,613,o),
(180,580,cs),
(180,568,o),
(178,554,o),
(176,542,cs),
(105,78,ls),
(96,16,o),
(76,10,o),
(17,10,cs),
(12,10,l),
(10,-3,l)
);
}
);
width = 706;
}
);
metricLeft = H;
note = K;
unicode = 75;
},
{
color = 3;
glyphname = Khook;
kernLeft = H;
kernRight = X;
lastChange = "2024-10-18 09:42:06 +0000";
layers = (
{
layerId = "3F96BAE2-444C-49D6-BFC1-9C0488685DF2";
shapes = (
{
closed = 1;
nodes = (
(48,-2,o),
(88,0,o),
(127,0,cs),
(167,0,o),
(210,-2,o),
(250,-3,c),
(255,24,l),
(224,24,ls),
(186,24,o),
(179,47,o),
(179,69,cs),
(179,79,o),
(181,95,o),
(184,114,cs),
(214,310,l),
(221,310,l),
(364,123,ls),
(401,75,o),
(403,63,o),
(403,48,cs),
(403,29,o),
(387,24,o),
(359,24,cs),
(336,24,l),
(331,-3,l),
(382,-2,o),
(434,0,o),
(459,0,cs),
(501,0,o),
(543,-2,o),
(585,-3,c),
(590,24,l),
(576,24,ls),
(545,24,o),
(518,36,o),
(493,69,cs),
(282,349,l),
(476,538,ls),
(521,582,o),
(539,598,o),
(565,598,cs),
(590,598,o),
(608,573,o),
(630,573,cs),
(645,573,o),
(656,588,o),
(656,603,cs),
(656,626,o),
(632,638,o),
(601,638,cs),
(552,638,o),
(522,618,o),
(458,555,cs),
(222,325,l),
(218,325,l),
(253,552,ls),
(261,605,o),
(289,605,o),
(346,605,c),
(351,632,l),
(308,630,o),
(267,629,o),
(233,629,cs),
(194,629,o),
(153,630,o),
(111,632,c),
(107,605,l),
(133,605,ls),
(163,605,o),
(181,598,o),
(181,567,cs),
(181,561,o),
(179,542,o),
(178,537,cs),
(106,76,ls),
(100,35,o),
(77,24,o),
(41,24,cs),
(15,24,l),
(10,-3,l)
);
}
);
width = 609;
},
{
layerId = "DA9A1FD1-A1AE-48D8-AEBB-5D2735E579CD";
shapes = (
{
closed = 1;
nodes = (
(48,-1,o),
(130,0,o),
(168,0,cs),
(220,0,o),
(264,-1,o),
(306,-3,c),
(309,25,l),
(296,25,ls),
(259,25,o),
(234,32,o),
(234,66,cs),
(234,86,o),
(238,107,o),
(240,118,cs),
(271,310,l),
(282,310,l),
(401,117,ls),
(428,73,o),
(433,62,o),
(433,48,cs),
(433,29,o),
(418,25,o),
(394,25,cs),
(371,25,l),
(368,-3,l),
(419,-2,o),
(531,0,o),
(556,0,cs),
(598,0,o),
(630,-2,o),
(672,-3,c),
(676,25,l),
(663,25,ls),
(618,25,o),
(602,43,o),
(588,65,cs),
(389,377,l),
(563,538,ls),
(601,573,o),
(619,582,o),
(642,582,cs),
(667,582,o),
(685,557,o),
(707,557,cs),
(728,557,o),
(743,578,o),
(743,596,cs),
(743,624,o),
(714,638,o),
(685,638,cs),
(635,638,o),
(602,616,o),
(535,555,cs),
(284,325,l),
(273,325,l),
(308,546,ls),
(316,594,o),
(327,604,o),
(401,604,c),
(405,632,l),
(364,630,o),
(330,629,o),
(269,629,cs),
(194,629,o),
(144,630,o),
(108,632,c),
(103,604,l),
(123,604,ls),
(152,604,o),
(177,598,o),
(177,565,cs),
(177,553,o),
(175,539,o),
(173,527,cs),
(106,93,ls),
(96,31,o),
(77,25,o),
(18,25,cs),
(13,25,l),
(9,-3,l)
);
}
);
width = 691;
},
{
layerId = "D87563F8-F81F-45D9-80E8-0AF800F60BE2";
shapes = (
{
closed = 1;
nodes = (
(52,-2,o),
(92,0,o),
(131,0,cs),
(171,0,o),
(210,-2,o),
(250,-3,c),
(251,8,l),
(220,8,ls),
(182,8,o),
(175,31,o),
(175,53,cs),
(175,63,o),
(177,79,o),
(180,98,cs),
(214,310,l),
(225,310,l),
(364,107,ls),
(399,56,o),
(402,48,o),
(402,32,cs),
(402,13,o),
(387,8,o),
(355,8,cs),
(332,8,l),
(331,-3,l),
(382,-2,o),
(434,0,o),
(459,0,cs),
(501,0,o),
(533,-2,o),
(575,-3,c),
(577,8,l),
(572,8,ls),
(529,8,o),
(500,22,o),
(479,53,cs),
(277,351,l),
(481,541,ls),
(527,584,o),
(539,598,o),
(565,598,cs),
(590,598,o),
(608,573,o),
(630,573,cs),
(645,573,o),
(656,588,o),
(656,603,cs),
(656,626,o),
(642,638,o),
(612,638,cs),
(565,638,o),
(532,607,o),
(474,554,cs),
(227,325,l),
(218,325,l),
(255,568,ls),
(263,621,o),
(291,621,o),
(348,621,c),
(351,632,l),
(308,630,o),
(267,629,o),
(233,629,cs),
(198,629,o),
(157,630,o),
(115,632,c),
(113,621,l),
(139,621,ls),
(169,621,o),
(187,614,o),
(187,583,cs),
(187,577,o),
(185,558,o),
(184,553,cs),
(106,60,ls),
(100,19,o),
(77,8,o),
(41,8,cs),
(15,8,l),
(14,-3,l)
);
}
);
width = 608;
},
{
layerId = "51D6B0A0-6F19-4220-A6A1-A0AA8B6A64E3";
shapes = (
{
closed = 1;
nodes = (
(49,-1,o),
(131,0,o),
(169,0,cs),
(221,0,o),
(265,-1,o),
(307,-3,c),
(308,10,l),
(295,10,ls),
(258,10,o),
(233,17,o),
(233,51,cs),
(233,71,o),
(237,92,o),
(239,103,cs),
(272,310,l),
(283,310,l),
(400,102,ls),
(425,57,o),
(432,47,o),
(432,33,cs),
(432,14,o),
(417,10,o),
(393,10,cs),
(370,10,l),
(369,-3,l),
(420,-2,o),
(532,0,o),
(557,0,cs),
(599,0,o),
(631,-2,o),
(673,-3,c),
(675,10,l),
(662,10,ls),
(617,10,o),
(599,27,o),
(586,49,cs),
(382,387,l),
(557,542,ls),
(596,576,o),
(613,582,o),
(636,582,cs),
(661,582,o),
(679,557,o),
(701,557,cs),
(722,557,o),
(737,578,o),
(737,596,cs),
(737,624,o),
(718,638,o),
(688,638,cs),
(646,638,o),
(611,615,o),
(543,555,cs),
(285,325,l),
(274,325,l),
(311,561,ls),
(319,609,o),
(330,619,o),
(404,619,c),
(406,632,l),
(365,630,o),
(331,629,o),
(270,629,cs),
(195,629,o),
(145,630,o),
(109,632,c),
(106,619,l),
(126,619,ls),
(155,619,o),
(180,613,o),
(180,580,cs),
(180,568,o),
(178,554,o),
(176,542,cs),
(105,78,ls),
(96,16,o),
(76,10,o),
(17,10,cs),
(12,10,l),
(10,-3,l)
);
}
);
width = 706;
}
);
metricRight = K;
unicode = 408;
},
{
color = 3;
glyphname = L;
kernLeft = H;
kernRight = L;
lastChange = "2024-10-18 09:42:02 +0000";
layers = (
{
anchors = (
{
name = bottom;
pos = (185,0);
},
{
name = center;
pos = (235,315);
},
{
name = top;
pos = (285,629);
},
{
name = topright;
pos = (382,629);
}
);
hints = (
{
horizontal = 1;
origin = (0,41);
target = (0,11);
type = Stem;
},
{
horizontal = 1;
origin = (0,28);
target = (0,29);
type = Stem;
},
{
horizontal = 1;
origin = (0,41);
target = (0,40);
type = Stem;
}
);
layerId = "3F96BAE2-444C-49D6-BFC1-9C0488685DF2";
shapes = (
{
closed = 1;
nodes = (
(80,-1,o),
(155,0,o),
(193,0,cs),
(249,0,o),
(305,-2,o),
(361,-3,c),
(408,149,l),
(382,149,l),
(352,61,o),
(322,34,o),
(277,34,cs),
(219,34,ls),
(188,34,o),
(171,41,o),
(171,72,cs),
(171,84,o),
(174,110,o),
(176,123,cs),
(244,552,ls),
(252,601,o),
(274,607,o),
(327,607,c),
(331,634,l),
(293,633,o),
(270,631,o),
(239,631,cs),
(198,631,o),
(151,633,o),
(111,634,c),
(107,607,l),
(147,607,o),
(173,600,o),
(173,571,cs),
(173,551,o),
(169,525,o),
(166,508,cs),
(102,101,ls),
(92,39,o),
(82,24,o),
(30,24,cs),
(15,24,l),
(10,-3,l)
);
}
);
width = 447;
},
{
anchors = (
{
name = bottom;
pos = (209,0);
},
{
name = center;
pos = (259,315);
},
{
name = top;
pos = (309,629);
},
{
name = topright;
pos = (449,629);
}
);
layerId = "DA9A1FD1-A1AE-48D8-AEBB-5D2735E579CD";
shapes = (
{
closed = 1;
nodes = (
(96,-1,o),
(210,0,o),
(246,0,cs),
(302,0,o),
(358,-2,o),
(414,-3,c),
(459,138,l),
(431,138,l),
(401,58,o),
(367,34,o),
(323,34,cs),
(265,34,ls),
(232,34,o),
(220,44,o),
(220,69,cs),
(220,77,o),
(223,97,o),
(225,112,cs),
(295,552,ls),
(303,601,o),
(324,606,o),
(377,606,c),
(381,634,l),
(343,633,o),
(293,631,o),
(243,631,cs),
(204,631,o),
(164,633,o),
(108,634,c),
(104,606,l),
(142,606,o),
(170,600,o),
(170,571,cs),
(170,551,o),
(165,525,o),
(162,508,cs),
(96,101,ls),
(86,39,o),
(79,25,o),
(34,25,cs),
(11,25,l),
(7,-3,l)
);
}
);
width = 501;
},
{
anchors = (
{
name = bottom;
pos = (183,0);
},
{
name = center;
pos = (233,315);
},
{
name = top;
pos = (282,629);
},
{
name = topright;
pos = (385,629);
}
);
layerId = "D87563F8-F81F-45D9-80E8-0AF800F60BE2";
shapes = (
{
closed = 1;
nodes = (
(80,-1,o),
(147,0,o),
(183,0,cs),
(239,0,o),
(295,-2,o),
(351,-3,c),
(396,138,l),
(385,138,l),
(350,46,o),
(316,18,o),
(265,18,cs),
(207,18,ls),
(176,18,o),
(160,28,o),
(160,54,cs),
(160,65,o),
(162,92,o),
(165,112,cs),
(237,569,ls),
(245,618,o),
(266,623,o),
(319,623,c),
(321,634,l),
(283,633,o),
(260,631,o),
(229,631,cs),
(191,631,o),
(152,633,o),
(115,634,c),
(113,623,l),
(151,623,o),
(169,617,o),
(169,588,cs),
(169,568,o),
(164,542,o),
(161,525,cs),
(93,84,ls),
(83,22,o),
(76,8,o),
(31,8,cs),
(16,8,l),
(14,-3,l)
);
}
);
width = 430;
},
{
anchors = (
{
name = bottom;
pos = (209,0);
},
{
name = center;
pos = (259,315);
},
{
name = top;
pos = (309,629);
},
{
name = topright;
pos = (450,629);
}
);
layerId = "51D6B0A0-6F19-4220-A6A1-A0AA8B6A64E3";
shapes = (
{
closed = 1;
nodes = (
(96,-1,o),
(210,0,o),
(246,0,cs),
(302,0,o),
(358,-2,o),
(414,-3,c),
(459,138,l),
(444,138,l),
(411,53,o),
(377,26,o),
(329,26,cs),
(271,26,ls),
(239,26,o),
(220,39,o),
(220,69,cs),
(220,77,o),
(223,97,o),
(225,112,cs),
(297,567,ls),
(305,616,o),
(326,621,o),
(379,621,c),
(381,634,l),
(343,633,o),
(293,631,o),
(243,631,cs),
(204,631,o),
(164,633,o),
(108,634,c),
(106,621,l),
(144,621,o),
(172,615,o),
(172,586,cs),
(172,566,o),
(167,540,o),
(164,523,cs),
(97,90,ls),
(87,28,o),
(80,10,o),
(35,10,cs),
(9,10,l),
(7,-3,l)
);
}
);
width = 495;
}
);
metricLeft = H;
note = L;
unicode = 76;
},
{
color = 3;
glyphname = Lslash;
kernRight = L;
lastChange = "2024-10-18 09:15:42 +0000";
layers = (
{
background = {
shapes = (
{
closed = 1;
nodes = (
(414,138,l),
(397,138,l),
(364,53,o),
(332,26,o),
(283,26,cs),
(226,26,ls),
(193,26,o),
(177,39,o),
(177,69,cs),
(177,77,o),
(180,97,o),
(183,112,cs),
(220,351,l),
(306,449,l),
(313,495,l),
(228,396,l),
(254,562,ls),
(260,605,o),
(280,616,o),
(323,616,cs),
(336,616,l),
(338,634,l),
(300,633,o),
(278,631,o),
(246,631,cs),
(208,631,o),
(170,633,o),
(132,634,c),
(131,616,l),
(168,616,o),
(186,610,o),
(186,581,cs),
(186,561,o),
(181,540,o),
(178,518,cs),
(144,314,l),
(62,218,l),
(56,173,l),
(137,269,l),
(111,90,ls),
(103,33,o),
(94,14,o),
(52,14,cs),
(35,14,l),
(31,-3,l),
(97,-1,o),
(164,0,o),
(200,0,cs),
(256,0,o),
(312,-2,o),
(368,-3,c)
);
}
);
};
layerId = "3F96BAE2-444C-49D6-BFC1-9C0488685DF2";
shapes = (
{
closed = 1;
nodes = (
(324,416,l),
(311,437,l),
(44,231,l),
(56,210,l)
);
},
{
ref = L;
}
);
width = 436;
},
{
layerId = "DA9A1FD1-A1AE-48D8-AEBB-5D2735E579CD";
shapes = (
{
closed = 1;
nodes = (
(393,440,l),
(374,465,l),
(44,211,l),
(62,186,l)
);
},
{
ref = L;
}
);
width = 486;
},
{
layerId = "D87563F8-F81F-45D9-80E8-0AF800F60BE2";
shapes = (
{
closed = 1;
nodes = (
(321,424,l),
(311,437,l),
(44,231,l),
(53,218,l)
);
},
{
ref = L;
}
);
width = 430;
},
{
layerId = "51D6B0A0-6F19-4220-A6A1-A0AA8B6A64E3";
shapes = (
{
closed = 1;
nodes = (
(386,449,l),
(374,465,l),
(44,211,l),
(55,195,l)
);
},
{
ref = L;
}
);
width = 486;
}
);
note = Lslash;
unicode = 321;
},
{
color = 3;
glyphname = M;
kernLeft = M;
kernRight = M;
lastChange = "2024-10-18 09:20:41 +0000";
layers = (
{
anchors = (
{
name = bottom;
pos = (382,0);
},
{
name = top;
pos = (482,629);
}
);
hints = (
{
horizontal = 1;
origin = (0,70);
target = up;
type = BottomGhost;
},
{
horizontal = 1;
origin = (0,42);
target = (0,43);
type = Stem;
},
{
horizontal = 1;
origin = (0,60);
target = (0,61);
type = Stem;
}
);
layerId = "3F96BAE2-444C-49D6-BFC1-9C0488685DF2";
shapes = (
{
closed = 1;
nodes = (
(363,-14,l),
(698,605,l),
(682,610,l),
(617,76,ls),
(613,45,o),
(606,24,o),
(552,24,cs),
(525,24,l),
(521,-3,l),
(562,-2,o),
(603,0,o),
(644,0,cs),
(685,0,o),
(722,-2,o),
(759,-3,c),
(763,24,l),
(737,24,ls),
(699,24,o),
(688,40,o),
(688,66,cs),
(688,81,o),
(689,97,o),
(691,114,cs),
(745,545,ls),
(752,603,o),
(783,605,o),
(836,605,c),
(838,632,l),
(814,630,o),
(788,629,o),
(760,629,cs),
(734,629,o),
(710,630,o),
(680,632,c),
(372,61,l),
(397,65,l),
(267,632,l),
(249,631,o),
(223,629,o),
(193,629,cs),
(171,629,o),
(149,630,o),
(120,632,c),
(115,605,l),
(171,594,o),
(190,580,o),
(190,550,cs),
(190,544,o),
(187,528,o),
(183,507,cs),
(89,69,ls),
(79,24,o),
(50,24,o),
(2,24,c),
(-3,-3,l),
(32,-2,o),
(65,0,o),
(100,0,cs),
(123,0,o),
(159,-1,o),
(191,-3,c),
(196,24,l),
(143,24,o),
(121,24,o),
(121,61,cs),
(121,75,o),
(126,106,o),
(129,118,cs),
(230,578,l),
(210,578,l),
(348,-14,l)
);
}
);
width = 827;
},
{
anchors = (
{
name = bottom;
pos = (407,0);
},
{
name = top;
pos = (507,629);
}
);
layerId = "DA9A1FD1-A1AE-48D8-AEBB-5D2735E579CD";
shapes = (
{
closed = 1;
nodes = (
(359,-14,l),
(693,599,l),
(677,619,l),
(612,77,ls),
(608,46,o),
(601,25,o),
(547,25,cs),
(520,25,l),
(516,-3,l),
(557,-2,o),
(598,0,o),
(639,0,cs),
(736,0,o),
(773,-2,o),
(810,-3,c),
(814,25,l),
(788,25,ls),
(750,25,o),
(739,41,o),
(739,62,cs),
(739,82,o),
(741,98,o),
(743,112,cs),
(796,545,ls),
(803,603,o),
(834,604,o),
(887,604,c),
(890,632,l),
(866,630,o),
(823,629,o),
(795,629,cs),
(749,629,o),
(727,630,o),
(674,632,c),
(359,54,l),
(439,138,l),
(329,632,l),
(311,631,o),
(244,629,o),
(214,629,cs),
(192,629,o),
(148,630,o),
(119,632,c),
(116,604,l),
(180,596,o),
(188,579,o),
(188,553,cs),
(188,543,o),
(185,527,o),
(181,506,cs),
(88,70,ls),
(78,25,o),
(49,25,o),
(1,25,c),
(-4,-3,l),
(31,-2,o),
(64,0,o),
(99,0,cs),
(132,0,o),
(164,-1,o),
(196,-3,c),
(201,25,l),
(148,25,o),
(126,25,o),
(126,62,cs),
(126,76,o),
(130,98,o),
(132,108,cs),
(234,588,l),
(205,588,l),
(343,-14,l)
);
}
);
width = 879;
},
{
anchors = (
{
name = bottom;
pos = (380,0);
},
{
name = top;
pos = (479,629);
}
);
layerId = "D87563F8-F81F-45D9-80E8-0AF800F60BE2";
shapes = (
{
closed = 1;
nodes = (
(360,-14,l),
(695,621,l),
(682,619,l),
(610,60,ls),
(606,29,o),
(599,8,o),
(545,8,cs),
(518,8,l),
(517,-3,l),
(558,-2,o),
(599,0,o),
(640,0,cs),
(677,0,o),
(714,-2,o),
(751,-3,c),
(752,8,l),
(726,8,ls),
(688,8,o),
(677,24,o),
(677,50,cs),
(677,65,o),
(678,81,o),
(680,98,cs),
(738,562,ls),
(745,620,o),
(776,621,o),
(829,621,c),
(830,632,l),
(806,630,o),
(780,629,o),
(752,629,cs),
(726,629,o),
(713,630,o),
(683,632,c),
(373,47,l),
(398,65,l),
(260,632,l),
(242,631,o),
(223,629,o),
(193,629,cs),
(171,629,o),
(149,630,o),
(120,632,c),
(119,621,l),
(178,610,o),
(195,597,o),
(195,567,cs),
(195,561,o),
(192,545,o),
(188,524,cs),
(90,53,ls),
(81,8,o),
(49,8,o),
(-1,8,c),
(-3,-3,l),
(32,-2,o),
(65,0,o),
(100,0,cs),
(123,0,o),
(155,-1,o),
(187,-3,c),
(189,8,l),
(136,8,o),
(110,8,o),
(110,45,cs),
(110,59,o),
(115,90,o),
(118,102,cs),
(222,602,l),
(202,602,l),
(351,-14,l)
);
}
);
width = 814;
},
{
anchors = (
{
name = bottom;
pos = (413,0);
},
{
name = top;
pos = (513,629);
}
);
layerId = "51D6B0A0-6F19-4220-A6A1-A0AA8B6A64E3";
shapes = (
{
closed = 1;
nodes = (
(362,-14,l),
(692,612,l),
(685,619,l),
(618,63,ls),
(614,32,o),
(607,11,o),
(553,11,cs),
(526,11,l),
(524,-3,l),
(565,-2,o),
(606,0,o),
(647,0,cs),
(744,0,o),
(781,-2,o),
(818,-3,c),
(820,11,l),
(794,11,ls),
(756,11,o),
(745,27,o),
(745,48,cs),
(745,68,o),
(747,84,o),
(749,98,cs),
(805,550,ls),
(812,608,o),
(843,618,o),
(896,618,c),
(898,632,l),
(874,630,o),
(847,629,o),
(819,629,cs),
(773,629,o),
(735,630,o),
(682,632,c),
(396,93,l),
(441,138,l),
(336,632,l),
(318,631,o),
(252,629,o),
(222,629,cs),
(200,629,o),
(156,630,o),
(127,632,c),
(125,618,l),
(189,612,o),
(198,592,o),
(198,566,cs),
(198,556,o),
(195,540,o),
(191,519,cs),
(93,55,ls),
(83,10,o),
(54,10,o),
(6,10,c),
(4,-3,l),
(39,-2,o),
(72,0,o),
(107,0,cs),
(123,0,o),
(155,-1,o),
(187,-3,c),
(189,10,l),
(136,10,o),
(114,10,o),
(114,47,cs),
(114,61,o),
(118,83,o),
(120,93,cs),
(225,588,l),
(213,588,l),
(346,-14,l)
);
}
);
width = 891;
}
);
note = M;
unicode = 77;
},
{
color = 3;
glyphname = N;
kernLeft = H;
kernRight = J;
lastChange = "2024-10-18 09:42:06 +0000";
layers = (
{
anchors = (
{
name = bottom;
pos = (312,0);
},
{
name = top;
pos = (412,629);
}
);
hints = (
{
horizontal = 1;
origin = (0,59);
target = up;
type = BottomGhost;
},
{
horizontal = 1;
origin = (0,29);
target = (0,30);
type = Stem;
},
{
horizontal = 1;
origin = (0,48);
target = (0,50);
type = Stem;
}
);
layerId = "3F96BAE2-444C-49D6-BFC1-9C0488685DF2";
shapes = (
{
closed = 1;
nodes = (
(540,-13,l),
(630,546,ls),
(638,597,o),
(654,605,o),
(702,605,cs),
(717,605,l),
(720,632,l),
(687,630,o),
(658,629,o),
(626,629,cs),
(591,629,o),
(565,630,o),
(532,632,c),
(528,605,l),
(546,605,ls),
(582,605,o),
(600,596,o),
(600,561,cs),
(600,557,o),
(599,540,o),
(597,528,cs),
(525,84,l),
(548,89,l),
(240,632,l),
(215,630,o),
(200,629,o),
(177,629,cs),
(155,629,o),
(135,630,o),
(111,632,c),
(108,605,l),
(159,605,o),
(184,591,o),
(184,548,cs),
(184,541,o),
(182,530,o),
(181,525,cs),
(110,102,ls),
(99,37,o),
(84,24,o),
(33,24,cs),
(16,24,l),
(11,-3,l),
(48,-1,o),
(83,0,o),
(110,0,cs),
(147,0,o),
(174,-1,o),
(208,-3,c),
(213,24,l),
(197,24,ls),
(159,24,o),
(138,32,o),
(138,63,cs),
(138,69,o),
(142,93,o),
(143,101,cs),
(221,573,l),
(192,568,l),
(525,-13,l)
);
}
);
width = 690;
},
{
anchors = (
{
name = bottom;
pos = (323,0);
},
{
name = top;
pos = (423,629);
}
);
layerId = "DA9A1FD1-A1AE-48D8-AEBB-5D2735E579CD";
shapes = (
{
closed = 1;
nodes = (
(566,-13,l),
(655,546,ls),
(663,597,o),
(679,605,o),
(727,605,cs),
(742,605,l),
(746,632,l),
(713,630,o),
(684,629,o),
(652,629,cs),
(616,629,o),
(590,630,o),
(557,632,c),
(552,605,l),
(570,605,ls),
(606,605,o),
(624,596,o),
(624,561,cs),
(624,557,o),
(623,540,o),
(621,528,cs),
(549,76,l),
(589,143,l),
(283,632,l),
(258,630,o),
(196,629,o),
(173,629,cs),
(151,629,o),
(131,630,o),
(107,632,c),
(103,605,l),
(154,605,o),
(179,580,o),
(179,554,cs),
(179,543,o),
(177,530,o),
(176,525,cs),
(105,102,ls),
(94,37,o),
(79,24,o),
(28,24,cs),
(11,24,l),
(7,-3,l),
(44,-1,o),
(79,0,o),
(106,0,cs),
(142,0,o),
(169,-1,o),
(203,-3,c),
(207,24,l),
(191,24,ls),
(153,24,o),
(133,34,o),
(133,60,cs),
(133,71,o),
(136,93,o),
(137,101,cs),
(221,589,l),
(197,530,l),
(534,-13,l)
);
}
);
width = 713;
},
{
anchors = (
{
name = bottom;
pos = (314,0);
},
{
name = top;
pos = (413,629);
}
);
layerId = "D87563F8-F81F-45D9-80E8-0AF800F60BE2";
shapes = (
{
closed = 1;
nodes = (
(543,-13,l),
(634,562,ls),
(642,613,o),
(658,621,o),
(706,621,cs),
(721,621,l),
(723,632,l),
(690,630,o),
(661,629,o),
(629,629,cs),
(606,629,o),
(579,630,o),
(546,632,c),
(544,621,l),
(562,621,ls),
(598,621,o),
(616,612,o),
(616,577,cs),
(616,573,o),
(615,556,o),
(613,544,cs),
(535,59,l),
(554,87,l),
(246,632,l),
(221,630,o),
(203,629,o),
(180,629,cs),
(158,629,o),
(138,630,o),
(114,632,c),
(112,621,l),
(163,621,o),
(188,607,o),
(188,564,cs),
(188,557,o),
(186,546,o),
(185,541,cs),
(110,86,ls),
(99,21,o),
(84,8,o),
(33,8,cs),
(16,8,l),
(14,-3,l),
(51,-1,o),
(86,0,o),
(113,0,cs),
(136,0,o),
(163,-1,o),
(197,-3,c),
(199,8,l),
(183,8,ls),
(145,8,o),
(124,16,o),
(124,47,cs),
(124,53,o),
(128,77,o),
(129,85,cs),
(215,615,l),
(183,610,l),
(536,-13,l)
);
}
);
width = 694;
},
{
anchors = (
{
name = bottom;
pos = (324,0);
},
{
name = top;
pos = (424,629);
}
);
layerId = "51D6B0A0-6F19-4220-A6A1-A0AA8B6A64E3";
shapes = (
{
closed = 1;
nodes = (
(567,-13,l),
(658,560,ls),
(666,611,o),
(682,619,o),
(730,619,cs),
(745,619,l),
(747,632,l),
(714,630,o),
(685,629,o),
(653,629,cs),
(628,629,o),
(602,630,o),
(569,632,c),
(566,619,l),
(584,619,ls),
(620,619,o),
(638,610,o),
(638,575,cs),
(638,571,o),
(637,554,o),
(635,542,cs),
(571,139,l),
(587,158,l),
(290,632,l),
(265,630,o),
(226,629,o),
(203,629,cs),
(181,629,o),
(132,630,o),
(108,632,c),
(106,619,l),
(157,619,o),
(182,587,o),
(182,566,cs),
(182,555,o),
(180,542,o),
(179,537,cs),
(104,88,ls),
(93,23,o),
(78,10,o),
(27,10,cs),
(10,10,l),
(8,-3,l),
(45,-1,o),
(80,0,o),
(107,0,cs),
(131,0,o),
(158,-1,o),
(192,-3,c),
(194,10,l),
(178,10,ls),
(140,10,o),
(120,20,o),
(120,46,cs),
(120,57,o),
(123,79,o),
(124,87,cs),
(210,589,l),
(198,543,l),
(549,-13,l)
);
}
);
width = 713;
}
);
metricLeft = H;
metricRight = J;
note = N;
unicode = 78;
},
{
color = 3;
glyphname = Eng;
kernLeft = H;
kernRight = J;
lastChange = "2024-10-18 09:42:06 +0000";
layers = (
{
layerId = "3F96BAE2-444C-49D6-BFC1-9C0488685DF2";
shapes = (
{
closed = 1;
nodes = (
(436,-285,o),
(506,-219,o),
(533,-53,cs),
(629,546,ls),
(637,597,o),
(653,605,o),
(701,605,cs),
(716,605,l),
(719,632,l),
(686,630,o),
(657,629,o),
(625,629,cs),
(590,629,o),
(564,630,o),
(531,632,c),
(527,605,l),
(545,605,ls),
(581,605,o),
(599,596,o),
(599,561,cs),
(599,557,o),
(598,540,o),
(596,528,cs),
(524,84,l),
(553,89,l),
(249,632,l),
(224,630,o),
(199,629,o),
(176,629,cs),
(154,629,o),
(134,630,o),
(110,632,c),
(107,605,l),
(158,605,o),
(183,591,o),
(183,548,cs),
(183,541,o),
(181,530,o),
(180,525,cs),
(109,102,ls),
(98,37,o),
(83,24,o),
(32,24,cs),
(15,24,l),
(10,-3,l),
(47,-1,o),
(82,0,o),
(109,0,cs),
(146,0,o),
(173,-1,o),
(207,-3,c),
(212,24,l),
(196,24,ls),
(158,24,o),
(137,32,o),
(137,63,cs),
(137,69,o),
(141,93,o),
(142,101,cs),
(220,573,l),
(191,568,l),
(524,-13,l),
(513,30,l),
(484,-165,o),
(444,-254,o),
(383,-254,cs),
(351,-254,o),
(339,-219,o),
(307,-219,cs),
(290,-219,o),
(279,-231,o),
(279,-247,cs),
(279,-268,o),
(305,-285,o),
(345,-285,cs)
);
}
);
width = 689;
},
{
layerId = "DA9A1FD1-A1AE-48D8-AEBB-5D2735E579CD";
shapes = (
{
closed = 1;
nodes = (
(454,-286,o),
(546,-138,o),
(566,-13,cs),
(655,546,ls),
(663,597,o),
(679,605,o),
(727,605,cs),
(742,605,l),
(746,632,l),
(713,630,o),
(684,629,o),
(652,629,cs),
(616,629,o),
(590,630,o),
(557,632,c),
(552,605,l),
(570,605,ls),
(606,605,o),
(624,596,o),
(624,561,cs),
(624,557,o),
(623,540,o),
(621,528,cs),
(549,76,l),
(589,143,l),
(283,632,l),
(258,630,o),
(196,629,o),
(173,629,cs),
(151,629,o),
(131,630,o),
(107,632,c),
(103,605,l),
(154,605,o),
(179,580,o),
(179,554,cs),
(179,543,o),
(177,530,o),
(176,525,cs),
(105,102,ls),
(94,37,o),
(79,24,o),
(28,24,cs),
(11,24,l),
(7,-3,l),
(44,-1,o),
(79,0,o),
(106,0,cs),
(142,0,o),
(169,-1,o),
(203,-3,c),
(207,24,l),
(191,24,ls),
(153,24,o),
(133,34,o),
(133,60,cs),
(133,71,o),
(136,93,o),
(137,101,cs),
(221,589,l),
(197,530,l),
(534,-13,l),
(534,18,l),
(505,-159,o),
(438,-257,o),
(364,-257,cs),
(332,-257,o),
(325,-188,o),
(274,-188,cs),
(250,-188,o),
(231,-207,o),
(231,-230,cs),
(231,-267,o),
(278,-286,o),
(323,-286,cs)
);
}
);
width = 713;
},
{
layerId = "D87563F8-F81F-45D9-80E8-0AF800F60BE2";
shapes = (
{
closed = 1;
nodes = (
(442,-285,o),
(507,-222,o),
(538,-32,cs),
(634,562,ls),
(642,613,o),
(658,621,o),
(706,621,cs),
(721,621,l),
(723,632,l),
(690,630,o),
(661,629,o),
(629,629,cs),
(610,629,o),
(583,630,o),
(550,632,c),
(548,621,l),
(566,621,ls),
(602,621,o),
(620,612,o),
(620,577,cs),
(620,573,o),
(619,556,o),
(617,544,cs),
(538,59,l),
(554,87,l),
(246,632,l),
(221,630,o),
(203,629,o),
(180,629,cs),
(158,629,o),
(138,630,o),
(114,632,c),
(112,621,l),
(163,621,o),
(188,607,o),
(188,564,cs),
(188,557,o),
(186,546,o),
(185,541,cs),
(110,86,ls),
(99,21,o),
(84,8,o),
(33,8,cs),
(16,8,l),
(14,-3,l),
(51,-1,o),
(86,0,o),
(113,0,cs),
(133,0,o),
(160,-1,o),
(194,-3,c),
(196,8,l),
(180,8,ls),
(142,8,o),
(121,16,o),
(121,47,cs),
(121,53,o),
(125,77,o),
(126,85,cs),
(212,615,l),
(183,610,l),
(536,-13,l),
(529,8,l),
(501,-151,o),
(465,-268,o),
(386,-268,cs),
(356,-268,o),
(345,-234,o),
(313,-234,cs),
(299,-234,o),
(290,-242,o),
(290,-255,cs),
(290,-275,o),
(316,-285,o),
(355,-285,cs)
);
}
);
width = 694;
},
{
layerId = "51D6B0A0-6F19-4220-A6A1-A0AA8B6A64E3";
shapes = (
{
closed = 1;
nodes = (
(473,-286,o),
(550,-126,o),
(570,0,cs),
(658,560,ls),
(666,611,o),
(682,619,o),
(730,619,cs),
(745,619,l),
(747,632,l),
(714,630,o),
(685,629,o),
(653,629,cs),
(628,629,o),
(602,630,o),
(569,632,c),
(566,619,l),
(584,619,ls),
(620,619,o),
(638,610,o),
(638,575,cs),
(638,571,o),
(637,554,o),
(635,542,cs),
(571,139,l),
(592,158,l),
(295,632,l),
(270,630,o),
(226,629,o),
(203,629,cs),
(181,629,o),
(132,630,o),
(108,632,c),
(106,619,l),
(157,619,o),
(182,587,o),
(182,566,cs),
(182,555,o),
(180,542,o),
(179,537,cs),
(104,88,ls),
(93,23,o),
(78,10,o),
(27,10,cs),
(10,10,l),
(8,-3,l),
(45,-1,o),
(80,0,o),
(107,0,cs),
(131,0,o),
(158,-1,o),
(192,-3,c),
(194,10,l),
(178,10,ls),
(140,10,o),
(120,20,o),
(120,46,cs),
(120,57,o),
(123,79,o),
(124,87,cs),
(210,589,l),
(198,543,l),
(549,-13,l),
(550,20,l),
(527,-145,o),
(448,-263,o),
(375,-263,cs),
(343,-263,o),
(336,-188,o),
(285,-188,cs),
(261,-188,o),
(242,-207,o),
(242,-230,cs),
(242,-267,o),
(289,-286,o),
(334,-286,cs)
);
}
);
width = 713;
}
);
metricRight = N;
unicode = 330;
},
{
color = 3;
glyphname = O;
kernLeft = O;
kernRight = O;
lastChange = "2024-10-18 09:42:43 +0000";
layers = (
{
anchors = (
{
name = bottom;
pos = (276,0);
},
{
name = center;
pos = (326,315);
},
{
name = ogonek;
pos = (429,10);
},
{
name = top;
pos = (376,629);
},
{
name = topleft;
pos = (87,629);
},
{
name = topright;
pos = (665,629);
}
);
background = {
shapes = (
{
closed = 1;
nodes = (
(454,-12,o),
(541,205,o),
(541,356,cs),
(541,476,o),
(481,595,o),
(335,595,cs),
(155,595,o),
(62,388,o),
(62,229,cs),
(62,82,o),
(145,-12,o),
(272,-12,cs)
);
},
{
closed = 1;
nodes = (
(187,3,o),
(131,81,o),
(131,223,cs),
(131,264,o),
(137,377,o),
(171,458,cs),
(200,529,o),
(252,579,o),
(328,579,cs),
(425,579,o),
(472,487,o),
(472,360,cs),
(472,295,o),
(461,197,o),
(430,120,cs),
(403,53,o),
(352,3,o),
(278,3,cs)
);
}
);
};
hints = (
{
horizontal = 1;
origin = (0,11);
target = (1,11);
type = Stem;
},
{
horizontal = 1;
origin = (0,5);
target = (1,5);
type = Stem;
}
);
layerId = "3F96BAE2-444C-49D6-BFC1-9C0488685DF2";
shapes = (
{
closed = 1;
nodes = (
(493,-13,o),
(589,221,o),
(589,384,cs),
(589,514,o),
(523,643,o),
(362,643,cs),
(165,643,o),
(63,419,o),
(63,247,cs),
(63,89,o),
(155,-13,o),
(294,-13,cs)
);
},
{
closed = 1;
nodes = (
(202,13,o),
(142,94,o),
(142,241,cs),
(142,409,o),
(190,615,o),
(355,615,cs),
(459,615,o),
(510,520,o),
(510,389,cs),
(510,216,o),
(458,13,o),
(301,13,cs)
);
}
);
width = 618;
},
{
anchors = (
{
name = bottom;
pos = (310,0);
},
{
name = center;
pos = (360,315);
},
{
name = ogonek;
pos = (494,9);
},
{
name = top;
pos = (410,629);
},
{
name = topleft;
pos = (86,629);
},
{
name = topright;
pos = (734,629);
}
);
background = {
shapes = (
{
closed = 1;
nodes = (
(485,-12,o),
(572,205,o),
(572,356,cs),
(572,476,o),
(512,595,o),
(366,595,cs),
(186,595,o),
(93,388,o),
(93,229,cs),
(93,82,o),
(176,-12,o),
(303,-12,cs)
);
},
{
closed = 1;
nodes = (
(218,3,o),
(162,81,o),
(162,223,cs),
(162,264,o),
(168,377,o),
(202,458,cs),
(231,529,o),
(283,579,o),
(359,579,cs),
(456,579,o),
(503,487,o),
(503,360,cs),
(503,295,o),
(492,197,o),
(461,120,cs),
(434,53,o),
(383,3,o),
(309,3,cs)
);
}
);
};
layerId = "DA9A1FD1-A1AE-48D8-AEBB-5D2735E579CD";
shapes = (
{
closed = 1;
nodes = (
(550,-13,o),
(657,221,o),
(657,384,cs),
(657,514,o),
(580,643,o),
(395,643,cs),
(176,643,o),
(63,419,o),
(63,247,cs),
(63,89,o),
(167,-13,o),
(327,-13,cs)
);
},
{
closed = 1;
nodes = (
(251,16,o),
(201,92,o),
(201,241,cs),
(201,411,o),
(245,612,o),
(388,612,cs),
(476,612,o),
(518,522,o),
(518,389,cs),
(518,215,o),
(472,16,o),
(334,16,cs)
);
}
);
width = 688;
},
{
anchors = (
{
name = bottom;
pos = (280,0);
},
{
name = center;
pos = (330,315);
},
{
name = ogonek;
pos = (432,10);
},
{
name = top;
pos = (379,629);
},
{
name = topleft;
pos = (87,629);
},
{
name = topright;
pos = (671,629);
}
);
background = {
shapes = (
{
closed = 1;
nodes = (
(458,-12,o),
(545,205,o),
(545,356,cs),
(545,476,o),
(485,595,o),
(339,595,cs),
(159,595,o),
(66,388,o),
(66,229,cs),
(66,82,o),
(149,-12,o),
(276,-12,cs)
);
},
{
closed = 1;
nodes = (
(191,3,o),
(135,81,o),
(135,223,cs),
(135,264,o),
(141,377,o),
(175,458,cs),
(204,529,o),
(256,579,o),
(332,579,cs),
(429,579,o),
(476,487,o),
(476,360,cs),
(476,295,o),
(465,197,o),
(434,120,cs),
(407,53,o),
(356,3,o),
(282,3,cs)
);
}
);
};
layerId = "D87563F8-F81F-45D9-80E8-0AF800F60BE2";
shapes = (
{
closed = 1;
nodes = (
(495,-13,o),
(589,221,o),
(589,384,cs),
(589,514,o),
(524,643,o),
(366,643,cs),
(172,643,o),
(71,419,o),
(71,247,cs),
(71,89,o),
(161,-13,o),
(298,-13,cs)
);
},
{
closed = 1;
nodes = (
(206,1,o),
(146,83,o),
(146,241,cs),
(146,418,o),
(194,630,o),
(359,630,cs),
(463,630,o),
(514,532,o),
(514,389,cs),
(514,208,o),
(462,1,o),
(305,1,cs)
);
}
);
width = 626;
},
{
anchors = (
{
name = bottom;
pos = (310,0);
},
{
name = center;
pos = (360,315);
},
{
name = ogonek;
pos = (494,10);
},
{
name = top;
pos = (410,629);
},
{
name = topleft;
pos = (87,629);
},
{
name = topright;
pos = (733,629);
}
);
background = {
shapes = (
{
closed = 1;
nodes = (
(485,-12,o),
(572,205,o),
(572,356,cs),
(572,476,o),
(512,595,o),
(366,595,cs),
(186,595,o),
(93,388,o),
(93,229,cs),
(93,82,o),
(176,-12,o),
(303,-12,cs)
);
},
{
closed = 1;
nodes = (
(218,3,o),
(162,81,o),
(162,223,cs),
(162,264,o),
(168,377,o),
(202,458,cs),
(231,529,o),
(283,579,o),
(359,579,cs),
(456,579,o),
(503,487,o),
(503,360,cs),
(503,295,o),
(492,197,o),
(461,120,cs),
(434,53,o),
(383,3,o),
(309,3,cs)
);
}
);
};
layerId = "51D6B0A0-6F19-4220-A6A1-A0AA8B6A64E3";
shapes = (
{
closed = 1;
nodes = (
(550,-13,o),
(657,221,o),
(657,384,cs),
(657,513,o),
(580,641,o),
(395,641,cs),
(176,641,o),
(63,418,o),
(63,247,cs),
(63,89,o),
(167,-13,o),
(327,-13,cs)
);
},
{
closed = 1;
nodes = (
(251,1,o),
(201,84,o),
(201,241,cs),
(201,415,o),
(245,627,o),
(388,627,cs),
(476,627,o),
(518,527,o),
(518,389,cs),
(518,210,o),
(472,1,o),
(334,1,cs)
);
}
);
width = 687;
}
);
metricRight = "=|";
note = O;
unicode = 79;
},
{
color = 3;
glyphname = Ohorn;
kernLeft = O;
kernRight = Ohorn;
lastChange = "2024-10-29 15:04:09 +0000";
layers = (
{
anchors = (
{
name = bottom;
pos = (276,0);
},
{
name = center;
pos = (326,315);
},
{
name = ogonek;
pos = (429,10);
},
{
name = top;
pos = (376,629);
},
{
name = topleft;
pos = (87,629);
},
{
name = topright;
pos = (665,629);
}
);
hints = (
{
horizontal = 1;
origin = (0,11);
target = (1,11);
type = Stem;
},
{
horizontal = 1;
origin = (0,5);
target = (1,5);
type = Stem;
}
);
layerId = "3F96BAE2-444C-49D6-BFC1-9C0488685DF2";
shapes = (
{
closed = 1;
nodes = (
(493,-13,o),
(589,221,o),
(589,384,cs),
(589,514,o),
(523,643,o),
(362,643,cs),
(165,643,o),
(63,419,o),
(63,247,cs),
(63,89,o),
(155,-13,o),
(294,-13,cs)
);
},
{
closed = 1;
nodes = (
(202,13,o),
(142,94,o),
(142,241,cs),
(142,409,o),
(190,615,o),
(355,615,cs),
(459,615,o),
(510,520,o),
(510,389,cs),
(510,216,o),
(458,13,o),
(301,13,cs)
);
},
{
closed = 1;
nodes = (
(626,436,o),
(669,481,o),
(680,548,cs),
(688,603,o),
(670,643,o),
(637,643,cs),
(618,643,o),
(603,634,o),
(598,607,cs),
(591,557,o),
(652,580,o),
(642,515,cs),
(635,475,o),
(596,452,o),
(547,440,c),
(547,420,l)
);
}
);
width = 646;
},
{
anchors = (
{
name = bottom;
pos = (310,0);
},
{
name = center;
pos = (360,315);
},
{
name = ogonek;
pos = (494,9);
},
{
name = top;
pos = (410,629);
},
{
name = topleft;
pos = (86,629);
},
{
name = topright;
pos = (734,629);
}
);
layerId = "DA9A1FD1-A1AE-48D8-AEBB-5D2735E579CD";
shapes = (
{
closed = 1;
nodes = (
(550,-13,o),
(657,221,o),
(657,384,cs),
(657,514,o),
(580,643,o),
(395,643,cs),
(176,643,o),
(63,419,o),
(63,247,cs),
(63,89,o),
(167,-13,o),
(327,-13,cs)
);
},
{
closed = 1;
nodes = (
(251,16,o),
(201,92,o),
(201,241,cs),
(201,411,o),
(245,612,o),
(388,612,cs),
(476,612,o),
(518,522,o),
(518,389,cs),
(518,215,o),
(472,16,o),
(334,16,cs)
);
},
{
closed = 1;
nodes = (
(699,409,o),
(755,455,o),
(769,538,cs),
(778,599,o),
(753,641,o),
(705,641,cs),
(675,641,o),
(651,623,o),
(645,587,cs),
(636,529,o),
(722,556,o),
(713,502,cs),
(707,458,o),
(671,430,o),
(608,424,c),
(609,402,l)
);
}
);
width = 728;
},
{
anchors = (
{
name = bottom;
pos = (280,0);
},
{
name = center;
pos = (330,315);
},
{
name = ogonek;
pos = (432,10);
},
{
name = top;
pos = (379,629);
},
{
name = topleft;
pos = (87,629);
},
{
name = topright;
pos = (671,629);
}
);
layerId = "D87563F8-F81F-45D9-80E8-0AF800F60BE2";
shapes = (
{
closed = 1;
nodes = (
(495,-13,o),
(589,221,o),
(589,384,cs),
(589,514,o),
(524,643,o),
(366,643,cs),
(172,643,o),
(71,419,o),
(71,247,cs),
(71,89,o),
(161,-13,o),
(298,-13,cs)
);
},
{
closed = 1;
nodes = (
(206,1,o),
(146,83,o),
(146,241,cs),
(146,418,o),
(194,630,o),
(359,630,cs),
(463,630,o),
(514,532,o),
(514,389,cs),
(514,208,o),
(462,1,o),
(305,1,cs)
);
},
{
closed = 1;
nodes = (
(631,432,o),
(671,477,o),
(682,544,cs),
(689,599,o),
(674,639,o),
(645,639,cs),
(625,639,o),
(613,626,o),
(610,606,cs),
(603,564,o),
(663,579,o),
(653,511,cs),
(645,468,o),
(607,443,o),
(558,430,c),
(558,416,l)
);
}
);
width = 648;
},
{
anchors = (
{
name = bottom;
pos = (310,0);
},
{
name = center;
pos = (360,315);
},
{
name = ogonek;
pos = (494,10);
},
{
name = top;
pos = (410,629);
},
{
name = topleft;
pos = (87,629);
},
{
name = topright;
pos = (733,629);
}
);
layerId = "51D6B0A0-6F19-4220-A6A1-A0AA8B6A64E3";
shapes = (
{
closed = 1;
nodes = (
(550,-13,o),
(657,221,o),
(657,384,cs),
(657,513,o),
(580,641,o),
(395,641,cs),
(176,641,o),
(63,418,o),
(63,247,cs),
(63,89,o),
(167,-13,o),
(327,-13,cs)
);
},
{
closed = 1;
nodes = (
(251,1,o),
(201,84,o),
(201,241,cs),
(201,415,o),
(245,627,o),
(388,627,cs),
(476,627,o),
(518,527,o),
(518,389,cs),
(518,210,o),
(472,1,o),
(334,1,cs)
);
},
{
closed = 1;
nodes = (
(700,403,o),
(763,447,o),
(776,533,cs),
(786,596,o),
(762,641,o),
(710,641,cs),
(676,641,o),
(655,618,o),
(650,594,cs),
(640,528,o),
(733,549,o),
(722,481,cs),
(717,450,o),
(679,419,o),
(620,400,c),
(620,388,l)
);
}
);
width = 735;
}
);
unicode = 416;
},
{
color = 3;
glyphname = Oopen;
kernLeft = O;
kernRight = O;
lastChange = "2024-10-18 09:42:43 +0000";
layers = (
{
layerId = "3F96BAE2-444C-49D6-BFC1-9C0488685DF2";
shapes = (
{
closed = 1;
nodes = (
(493,-13,o),
(589,221,o),
(589,384,cs),
(589,514,o),
(523,643,o),
(362,643,cs),
(231,643,o),
(141,543,o),
(97,426,c),
(164,426,l),
(192,531,o),
(249,615,o),
(355,615,cs),
(459,615,o),
(510,520,o),
(510,389,cs),
(510,216,o),
(458,13,o),
(301,13,cs),
(211,13,o),
(153,80,o),
(143,203,c),
(66,203,l),
(81,70,o),
(168,-13,o),
(294,-13,cs)
);
}
);
width = 618;
},
{
layerId = "DA9A1FD1-A1AE-48D8-AEBB-5D2735E579CD";
shapes = (
{
closed = 1;
nodes = (
(550,-13,o),
(657,221,o),
(657,384,cs),
(657,514,o),
(580,643,o),
(395,643,cs),
(248,643,o),
(149,542,o),
(100,424,c),
(220,424,l),
(245,529,o),
(296,612,o),
(388,612,cs),
(476,612,o),
(518,522,o),
(518,389,cs),
(518,215,o),
(472,16,o),
(334,16,cs),
(258,16,o),
(210,79,o),
(202,203,c),
(66,203,l),
(84,70,o),
(183,-13,o),
(327,-13,cs)
);
}
);
width = 688;
},
{
layerId = "D87563F8-F81F-45D9-80E8-0AF800F60BE2";
shapes = (
{
closed = 1;
nodes = (
(495,-13,o),
(589,221,o),
(589,384,cs),
(589,514,o),
(524,643,o),
(366,643,cs),
(237,643,o),
(149,544,o),
(105,427,c),
(166,427,l),
(193,540,o),
(251,632,o),
(359,632,cs),
(463,632,o),
(514,532,o),
(514,389,cs),
(514,208,o),
(462,-2,o),
(305,-2,cs),
(214,-2,o),
(156,69,o),
(147,203,c),
(73,203,l),
(89,70,o),
(174,-13,o),
(298,-13,cs)
);
}
);
width = 626;
},
{
layerId = "51D6B0A0-6F19-4220-A6A1-A0AA8B6A64E3";
shapes = (
{
closed = 1;
nodes = (
(550,-13,o),
(657,221,o),
(657,384,cs),
(657,513,o),
(580,641,o),
(395,641,cs),
(249,641,o),
(150,542,o),
(100,425,c),
(219,425,l),
(243,536,o),
(294,627,o),
(388,627,cs),
(476,627,o),
(518,527,o),
(518,389,cs),
(518,210,o),
(472,1,o),
(334,1,cs),
(258,1,o),
(210,71,o),
(202,203,c),
(66,203,l),
(84,70,o),
(182,-13,o),
(327,-13,cs)
);
}
);
width = 687;
}
);
metricRight = O;
unicode = 390;
},
{
color = 3;
glyphname = Oslash;
kernLeft = O;
kernRight = O;
lastChange = "2024-10-29 15:04:09 +0000";
layers = (
{
anchors = (
{
name = bottom;
pos = (276,0);
},
{
name = center;
pos = (326,315);
},
{
name = ogonek;
pos = (429,10);
},
{
name = top;
pos = (376,629);
},
{
name = topleft;
pos = (87,629);
},
{
name = topright;
pos = (665,629);
}
);
hints = (
{
horizontal = 1;
origin = (1,11);
target = (2,11);
type = Stem;
},
{
horizontal = 1;
origin = (1,5);
target = (2,5);
type = Stem;
}
);
layerId = "3F96BAE2-444C-49D6-BFC1-9C0488685DF2";
shapes = (
{
closed = 1;
nodes = (
(587,623,l),
(565,641,l),
(59,5,l),
(80,-12,l)
);
},
{
closed = 1;
nodes = (
(493,-13,o),
(589,221,o),
(589,384,cs),
(589,514,o),
(523,643,o),
(362,643,cs),
(165,643,o),
(63,419,o),
(63,247,cs),
(63,89,o),
(155,-13,o),
(294,-13,cs)
);
},
{
closed = 1;
nodes = (
(202,13,o),
(142,94,o),
(142,241,cs),
(142,409,o),
(190,615,o),
(355,615,cs),
(459,615,o),
(510,520,o),
(510,389,cs),
(510,216,o),
(458,13,o),
(301,13,cs)
);
}
);
width = 618;
},
{
anchors = (
{
name = bottom;
pos = (310,0);
},
{
name = center;
pos = (360,315);
},
{
name = ogonek;
pos = (494,9);
},
{
name = top;
pos = (410,629);
},
{
name = topleft;
pos = (86,629);
},
{
name = topright;
pos = (734,629);
}
);
layerId = "DA9A1FD1-A1AE-48D8-AEBB-5D2735E579CD";
shapes = (
{
closed = 1;
nodes = (
(628,620,l),
(603,641,l),
(97,5,l),
(121,-15,l)
);
},
{
closed = 1;
nodes = (
(550,-13,o),
(657,221,o),
(657,384,cs),
(657,514,o),
(580,643,o),
(395,643,cs),
(176,643,o),
(63,419,o),
(63,247,cs),
(63,89,o),
(167,-13,o),
(327,-13,cs)
);
},
{
closed = 1;
nodes = (
(251,16,o),
(201,92,o),
(201,241,cs),
(201,411,o),
(245,612,o),
(388,612,cs),
(476,612,o),
(518,522,o),
(518,389,cs),
(518,215,o),
(472,16,o),
(334,16,cs)
);
}
);
width = 688;
},
{
anchors = (
{
name = bottom;
pos = (280,0);
},
{
name = center;
pos = (330,315);
},
{
name = ogonek;
pos = (432,10);
},
{
name = top;
pos = (379,629);
},
{
name = topleft;
pos = (87,629);
},
{
name = topright;
pos = (671,629);
}
);
layerId = "D87563F8-F81F-45D9-80E8-0AF800F60BE2";
shapes = (
{
closed = 1;
nodes = (
(588,630,l),
(575,641,l),
(69,5,l),
(82,-5,l)
);
},
{
closed = 1;
nodes = (
(495,-13,o),
(589,221,o),
(589,384,cs),
(589,514,o),
(524,643,o),
(366,643,cs),
(172,643,o),
(71,419,o),
(71,247,cs),
(71,89,o),
(161,-13,o),
(298,-13,cs)
);
},
{
closed = 1;
nodes = (
(206,1,o),
(146,83,o),
(146,241,cs),
(146,418,o),
(194,630,o),
(359,630,cs),
(463,630,o),
(514,532,o),
(514,389,cs),
(514,208,o),
(462,1,o),
(305,1,cs)
);
}
);
width = 624;
},
{
anchors = (
{
name = bottom;
pos = (310,0);
},
{
name = center;
pos = (360,315);
},
{
name = ogonek;
pos = (494,10);
},
{
name = top;
pos = (410,629);
},
{
name = topleft;
pos = (87,629);
},
{
name = topright;
pos = (733,629);
}
);
layerId = "51D6B0A0-6F19-4220-A6A1-A0AA8B6A64E3";
shapes = (
{
closed = 1;
nodes = (
(624,629,l),
(605,642,l),
(99,6,l),
(117,-6,l)
);
},
{
closed = 1;
nodes = (
(550,-13,o),
(657,221,o),
(657,384,cs),
(657,513,o),
(580,641,o),
(395,641,cs),
(176,641,o),
(63,418,o),
(63,247,cs),
(63,89,o),
(167,-13,o),
(327,-13,cs)
);
},
{
closed = 1;
nodes = (
(251,1,o),
(201,84,o),
(201,241,cs),
(201,415,o),
(245,627,o),
(388,627,cs),
(476,627,o),
(518,527,o),
(518,389,cs),
(518,210,o),
(472,1,o),
(334,1,cs)
);
}
);
width = 686;
}
);
note = Oslash;
unicode = 216;
},
{
color = 3;
glyphname = OE;
kernLeft = O;
kernRight = O;
lastChange = "2024-10-18 09:42:43 +0000";
layers = (
{
anchors = (
{
name = bottom;
pos = (393,0);
},
{
name = top;
pos = (493,629);
}
);
background = {
shapes = (
{
closed = 1;
nodes = (
(48,132,o),
(99,-12,o),
(308,-12,cs),
(386,-12,o),
(352,0,o),
(561,0,cs),
(635,0,o),
(702,-1,o),
(781,-3,c),
(834,144,l),
(819,144,l),
(786,78,o),
(757,27,o),
(688,27,cs),
(578,27,ls),
(538,27,o),
(518,36,o),
(518,69,cs),
(518,77,o),
(521,89,o),
(523,105,cs),
(557,324,l),
(716,324,ls),
(747,324,o),
(759,312,o),
(759,282,cs),
(759,271,o),
(757,260,o),
(756,253,c),
(773,254,l),
(798,413,l),
(782,413,l),
(774,373,o),
(753,351,o),
(716,351,cs),
(562,351,l),
(602,606,l),
(770,606,ls),
(821,606,o),
(833,577,o),
(833,538,cs),
(833,516,l),
(847,516,l),
(866,634,l),
(798,632,o),
(750,631,o),
(675,631,cs),
(499,631,o),
(489,643,o),
(408,643,cs),
(139,643,o),
(48,390,o),
(48,243,cs)
);
},
{
closed = 1;
nodes = (
(499,623,o),
(524,611,o),
(524,567,cs),
(524,555,o),
(521,528,o),
(518,516,cs),
(453,95,ls),
(444,40,o),
(395,5,o),
(320,5,cs),
(198,5,o),
(123,90,o),
(123,240,cs),
(123,349,o),
(158,623,o),
(429,623,cs)
);
}
);
};
layerId = "3F96BAE2-444C-49D6-BFC1-9C0488685DF2";
shapes = (
{
closed = 1;
nodes = (
(400,-13,o),
(453,0,o),
(581,0,cs),
(644,0,o),
(706,-1,o),
(773,-3,c),
(826,144,l),
(800,144,l),
(765,68,o),
(742,34,o),
(688,34,cs),
(581,34,ls),
(538,34,o),
(523,44,o),
(523,63,cs),
(523,77,o),
(526,103,o),
(529,119,cs),
(561,323,l),
(712,323,ls),
(737,323,o),
(746,312,o),
(746,282,cs),
(746,271,o),
(744,261,o),
(743,253,c),
(769,254,l),
(794,413,l),
(769,413,l),
(763,373,o),
(745,354,o),
(713,354,cs),
(566,354,l),
(604,597,l),
(762,597,ls),
(802,597,o),
(812,563,o),
(812,537,cs),
(812,513,l),
(837,513,l),
(857,632,l),
(822,630,o),
(745,629,o),
(683,629,cs),
(573,629,o),
(521,643,o),
(408,643,cs),
(155,643,o),
(63,419,o),
(63,247,cs),
(63,89,o),
(163,-13,o),
(325,-13,c)
);
},
{
closed = 1;
nodes = (
(210,13,o),
(142,94,o),
(142,241,cs),
(142,409,o),
(201,618,o),
(405,618,cs),
(477,618,o),
(527,609,o),
(527,584,cs),
(527,573,o),
(524,545,o),
(521,525,cs),
(449,66,ls),
(442,22,o),
(386,13,o),
(322,13,cs)
);
}
);
width = 852;
},
{
anchors = (
{
name = bottom;
pos = (401,0);
},
{
name = top;
pos = (501,629);
}
);
layerId = "DA9A1FD1-A1AE-48D8-AEBB-5D2735E579CD";
shapes = (
{
closed = 1;
nodes = (
(394,-13,o),
(473,0,o),
(550,0,cs),
(624,0,o),
(691,-1,o),
(784,-3,c),
(837,144,l),
(809,144,l),
(776,71,o),
(755,34,o),
(701,34,cs),
(615,34,ls),
(572,34,o),
(557,50,o),
(557,74,cs),
(557,88,o),
(561,114,o),
(563,130,cs),
(592,320,l),
(710,320,ls),
(742,320,o),
(755,309,o),
(755,282,cs),
(755,271,o),
(753,257,o),
(752,249,c),
(779,250,l),
(804,413,l),
(778,413,l),
(772,375,o),
(749,354,o),
(713,354,cs),
(597,354,l),
(634,595,l),
(772,595,ls),
(814,595,o),
(821,561,o),
(821,537,cs),
(821,513,l),
(847,513,l),
(867,632,l),
(812,630,o),
(751,629,o),
(653,629,cs),
(546,629,o),
(493,643,o),
(414,643,cs),
(176,643,o),
(63,419,o),
(63,247,cs),
(63,89,o),
(167,-13,o),
(338,-13,cs)
);
},
{
closed = 1;
nodes = (
(251,16,o),
(201,92,o),
(201,241,cs),
(201,411,o),
(245,612,o),
(412,612,cs),
(468,612,o),
(506,603,o),
(506,575,cs),
(506,564,o),
(503,545,o),
(500,525,cs),
(431,75,ls),
(423,26,o),
(384,16,o),
(334,16,cs)
);
}
);
width = 869;
},
{
anchors = (
{
name = bottom;
pos = (396,0);
},
{
name = top;
pos = (495,629);
}
);
layerId = "D87563F8-F81F-45D9-80E8-0AF800F60BE2";
shapes = (
{
closed = 1;
nodes = (
(408,-13,o),
(456,0,o),
(584,0,cs),
(647,0,o),
(709,-1,o),
(776,-3,c),
(829,144,l),
(818,144,l),
(779,55,o),
(754,15,o),
(694,15,cs),
(579,15,ls),
(539,15,o),
(525,31,o),
(525,63,cs),
(525,77,o),
(528,103,o),
(531,119,cs),
(565,329,l),
(722,329,ls),
(752,329,o),
(764,316,o),
(764,282,cs),
(764,271,o),
(762,261,o),
(761,253,c),
(772,254,l),
(797,413,l),
(787,413,l),
(780,371,o),
(758,347,o),
(721,347,cs),
(568,347,l),
(612,614,l),
(770,614,ls),
(823,614,o),
(830,570,o),
(830,537,cs),
(830,513,l),
(840,513,l),
(860,632,l),
(825,630,o),
(722,629,o),
(660,629,cs),
(550,629,o),
(529,643,o),
(416,643,cs),
(163,643,o),
(71,419,o),
(71,247,cs),
(71,89,o),
(171,-13,o),
(323,-13,c)
);
},
{
closed = 1;
nodes = (
(217,-2,o),
(150,86,o),
(150,241,cs),
(150,415,o),
(210,632,o),
(416,632,cs),
(488,632,o),
(538,621,o),
(538,592,cs),
(538,579,o),
(533,548,o),
(529,525,cs),
(456,54,ls),
(449,10,o),
(393,-2,o),
(329,-2,cs)
);
}
);
width = 855;
},
{
anchors = (
{
name = bottom;
pos = (401,0);
},
{
name = top;
pos = (501,629);
}
);
layerId = "51D6B0A0-6F19-4220-A6A1-A0AA8B6A64E3";
shapes = (
{
closed = 1;
nodes = (
(394,-13,o),
(473,0,o),
(550,0,cs),
(635,0,o),
(691,-1,o),
(782,-3,c),
(835,144,l),
(821,144,l),
(784,63,o),
(755,27,o),
(696,27,cs),
(610,27,ls),
(567,27,o),
(552,39,o),
(552,63,cs),
(552,77,o),
(555,103,o),
(558,119,cs),
(591,324,l),
(723,324,ls),
(754,324,o),
(766,312,o),
(766,282,cs),
(766,271,o),
(764,262,o),
(763,254,c),
(777,254,l),
(802,413,l),
(789,413,l),
(783,373,o),
(760,351,o),
(723,351,cs),
(595,351,l),
(636,604,l),
(772,604,ls),
(821,604,o),
(832,566,o),
(832,537,cs),
(832,513,l),
(845,513,l),
(865,632,l),
(820,630,o),
(734,629,o),
(653,629,cs),
(546,629,o),
(493,643,o),
(414,643,cs),
(176,643,o),
(63,419,o),
(63,247,cs),
(63,89,o),
(167,-13,o),
(337,-13,cs)
);
},
{
closed = 1;
nodes = (
(251,2,o),
(201,84,o),
(201,241,cs),
(201,417,o),
(246,627,o),
(415,627,cs),
(471,627,o),
(509,618,o),
(509,590,cs),
(509,579,o),
(506,560,o),
(503,540,cs),
(431,61,ls),
(424,12,o),
(384,2,o),
(334,2,cs)
);
}
);
width = 867;
}
);
metricLeft = O;
metricRight = E;
note = OE;
unicode = 338;
},
{
color = 3;
glyphname = P;
kernLeft = H;
kernRight = P;
lastChange = "2024-10-18 09:42:43 +0000";
layers = (
{
anchors = (
{
name = bottom;
pos = (203,0);
},
{
name = top;
pos = (303,629);
}
);
hints = (
{
horizontal = 1;
origin = (0,41);
target = (0,40);
type = Stem;
},
{
horizontal = 1;
origin = (0,17);
target = (1,9);
type = Stem;
},
{
horizontal = 1;
origin = (0,23);
target = (1,3);
type = Stem;
},
{
horizontal = 1;
origin = (0,27);
target = (0,29);
type = Stem;
}
);
layerId = "3F96BAE2-444C-49D6-BFC1-9C0488685DF2";
shapes = (
{
closed = 1;
nodes = (
(48,-1,o),
(96,0,o),
(129,0,cs),
(163,0,o),
(213,-1,o),
(250,-3,c),
(255,24,l),
(237,24,ls),
(201,24,o),
(176,34,o),
(176,63,cs),
(176,78,o),
(179,95,o),
(184,126,cs),
(213,319,l),
(245,313,o),
(259,312,o),
(275,312,cs),
(389,312,o),
(473,389,o),
(473,496,cs),
(473,593,o),
(396,640,o),
(276,640,cs),
(204,640,o),
(145,630,o),
(119,630,cs),
(111,630,l),
(106,603,l),
(123,603,ls),
(160,603,o),
(178,596,o),
(179,570,cs),
(179,557,o),
(177,540,o),
(175,525,cs),
(108,87,ls),
(103,53,o),
(98,24,o),
(30,24,cs),
(17,24,l),
(12,-3,l)
);
},
{
closed = 1;
nodes = (
(261,336,o),
(236,339,o),
(218,344,c),
(256,613,l),
(350,611,o),
(403,567,o),
(403,484,cs),
(403,393,o),
(361,336,o),
(281,336,cs)
);
}
);
width = 466;
},
{
anchors = (
{
name = bottom;
pos = (247,0);
},
{
name = top;
pos = (347,629);
}
);
layerId = "DA9A1FD1-A1AE-48D8-AEBB-5D2735E579CD";
shapes = (
{
closed = 1;
nodes = (
(45,-1,o),
(93,0,o),
(126,0,cs),
(220,0,o),
(266,-1,o),
(303,-3,c),
(307,25,l),
(289,25,ls),
(253,25,o),
(228,35,o),
(228,64,cs),
(228,79,o),
(231,96,o),
(236,127,cs),
(265,312,l),
(289,308,o),
(308,305,o),
(329,305,cs),
(469,305,o),
(561,379,o),
(561,493,cs),
(561,591,o),
(477,640,o),
(318,640,cs),
(243,640,o),
(149,630,o),
(127,630,cs),
(107,630,l),
(102,602,l),
(119,602,ls),
(156,602,o),
(174,593,o),
(175,567,cs),
(175,554,o),
(173,538,o),
(171,523,cs),
(104,88,ls),
(99,54,o),
(94,25,o),
(26,25,cs),
(13,25,l),
(9,-3,l)
);
},
{
closed = 1;
nodes = (
(313,334,o),
(288,337,o),
(270,342,c),
(310,613,l),
(391,606,o),
(435,566,o),
(435,481,cs),
(435,391,o),
(400,334,o),
(333,334,cs)
);
}
);
width = 556;
},
{
anchors = (
{
name = bottom;
pos = (203,0);
},
{
name = top;
pos = (302,629);
}
);
layerId = "D87563F8-F81F-45D9-80E8-0AF800F60BE2";
shapes = (
{
closed = 1;
nodes = (
(51,-1,o),
(99,0,o),
(132,0,cs),
(166,0,o),
(212,-1,o),
(249,-3,c),
(250,8,l),
(232,8,ls),
(196,8,o),
(171,18,o),
(171,47,cs),
(171,62,o),
(175,80,o),
(180,111,cs),
(213,327,l),
(245,321,o),
(259,320,o),
(275,320,cs),
(388,320,o),
(468,393,o),
(468,496,cs),
(468,593,o),
(395,641,o),
(275,641,cs),
(207,641,o),
(148,631,o),
(134,631,cs),
(114,631,l),
(112,620,l),
(129,620,ls),
(166,620,o),
(183,608,o),
(184,582,cs),
(184,569,o),
(182,553,o),
(180,538,cs),
(107,71,ls),
(102,37,o),
(97,8,o),
(29,8,cs),
(16,8,l),
(15,-3,l)
);
},
{
closed = 1;
nodes = (
(259,334,o),
(234,337,o),
(216,342,c),
(260,629,l),
(352,627,o),
(402,577,o),
(402,484,cs),
(402,390,o),
(359,334,o),
(279,334,cs)
);
}
);
width = 466;
},
{
anchors = (
{
name = bottom;
pos = (247,0);
},
{
name = top;
pos = (347,629);
}
);
layerId = "51D6B0A0-6F19-4220-A6A1-A0AA8B6A64E3";
shapes = (
{
closed = 1;
nodes = (
(45,-1,o),
(93,0,o),
(126,0,cs),
(220,0,o),
(266,-1,o),
(303,-3,c),
(305,10,l),
(287,10,ls),
(251,10,o),
(226,20,o),
(226,49,cs),
(226,64,o),
(229,81,o),
(234,112,cs),
(265,315,l),
(289,311,o),
(308,308,o),
(329,308,cs),
(469,308,o),
(561,381,o),
(561,493,cs),
(561,591,o),
(477,640,o),
(318,640,cs),
(243,640,o),
(149,630,o),
(127,630,cs),
(107,630,l),
(105,617,l),
(122,617,ls),
(159,617,o),
(177,608,o),
(178,582,cs),
(178,569,o),
(176,553,o),
(174,538,cs),
(102,73,ls),
(97,39,o),
(92,10,o),
(24,10,cs),
(11,10,l),
(9,-3,l)
);
},
{
closed = 1;
nodes = (
(312,325,o),
(287,328,o),
(269,333,c),
(312,626,l),
(393,619,o),
(435,566,o),
(435,481,cs),
(435,387,o),
(400,325,o),
(332,325,cs)
);
}
);
width = 555;
}
);
metricLeft = H;
metricRight = "=O*.7";
note = P;
unicode = 80;
},
{
color = 3;
glyphname = Thorn;
lastChange = "2024-10-18 09:42:43 +0000";
layers = (
{
hints = (
{
horizontal = 1;
origin = (0,39);
target = (0,38);
type = Stem;
},
{
horizontal = 1;
origin = (2,9);
target = (1,9);
type = Stem;
},
{
horizontal = 1;
origin = (2,3);
target = (1,5);
type = Stem;
},
{
horizontal = 1;
origin = (0,25);
target = (0,27);
type = Stem;
}
);
layerId = "3F96BAE2-444C-49D6-BFC1-9C0488685DF2";
shapes = (
{
closed = 1;
nodes = (
(51,-1,o),
(86,0,o),
(129,0,cs),
(170,0,o),
(208,-1,o),
(250,-3,c),
(253,24,l),
(240,24,ls),
(204,24,o),
(178,31,o),
(178,65,cs),
(178,85,o),
(182,106,o),
(184,118,cs),
(252,547,ls),
(260,599,o),
(283,605,o),
(332,605,cs),
(345,605,l),
(349,632,l),
(308,630,o),
(274,629,o),
(235,629,cs),
(187,629,o),
(147,630,o),
(111,632,c),
(106,605,l),
(126,605,ls),
(156,605,o),
(180,599,o),
(180,566,cs),
(180,554,o),
(178,540,o),
(176,528,cs),
(109,92,ls),
(99,30,o),
(80,24,o),
(21,24,cs),
(16,24,l),
(12,-3,l)
);
},
{
closed = 1;
nodes = (
(367,163,o),
(451,248,o),
(451,347,cs),
(451,444,o),
(374,491,o),
(221,491,c),
(180,170,l),
(223,164,o),
(237,163,o),
(253,163,cs)
);
},
{
closed = 1;
nodes = (
(239,187,o),
(214,190,o),
(196,195,c),
(234,464,l),
(328,462,o),
(381,418,o),
(381,335,cs),
(381,244,o),
(339,187,o),
(259,187,cs)
);
}
);
width = 468;
},
{
layerId = "DA9A1FD1-A1AE-48D8-AEBB-5D2735E579CD";
shapes = (
{
closed = 1;
nodes = (
(48,-1,o),
(83,0,o),
(121,0,cs),
(173,0,o),
(264,-1,o),
(306,-3,c),
(309,24,l),
(296,24,ls),
(259,24,o),
(234,31,o),
(234,65,cs),
(234,85,o),
(238,106,o),
(240,117,cs),
(308,547,ls),
(316,599,o),
(338,605,o),
(388,605,cs),
(401,605,l),
(405,632,l),
(364,630,o),
(330,629,o),
(269,629,cs),
(194,629,o),
(144,630,o),
(108,632,c),
(103,605,l),
(123,605,ls),
(152,605,o),
(177,599,o),
(177,566,cs),
(177,554,o),
(175,540,o),
(173,528,cs),
(106,92,ls),
(96,30,o),
(77,24,o),
(18,24,cs),
(13,24,l),
(9,-3,l)
);
},
{
closed = 1;
nodes = (
(454,170,o),
(546,244,o),
(546,358,cs),
(546,456,o),
(462,505,o),
(284,505,c),
(250,177,l),
(274,173,o),
(293,170,o),
(314,170,cs)
);
},
{
closed = 1;
nodes = (
(298,199,o),
(272,202,o),
(254,207,c),
(295,478,l),
(376,471,o),
(420,431,o),
(420,346,cs),
(420,256,o),
(385,199,o),
(318,199,cs)
);
}
);
width = 563;
},
{
layerId = "D87563F8-F81F-45D9-80E8-0AF800F60BE2";
shapes = (
{
closed = 1;
nodes = (
(53,-1,o),
(88,0,o),
(126,0,cs),
(167,0,o),
(205,-1,o),
(247,-3,c),
(249,8,l),
(234,8,ls),
(198,8,o),
(172,15,o),
(172,49,cs),
(172,69,o),
(176,90,o),
(178,101,cs),
(250,563,ls),
(258,615,o),
(284,621,o),
(333,621,cs),
(346,621,l),
(347,632,l),
(306,630,o),
(271,629,o),
(232,629,cs),
(189,629,o),
(150,630,o),
(114,632,c),
(112,621,l),
(132,621,ls),
(162,621,o),
(186,615,o),
(186,582,cs),
(186,570,o),
(184,556,o),
(182,544,cs),
(108,76,ls),
(98,14,o),
(79,8,o),
(20,8,cs),
(16,8,l),
(14,-3,l)
);
},
{
closed = 1;
nodes = (
(367,187,o),
(447,260,o),
(447,363,cs),
(447,460,o),
(374,508,o),
(233,508,c),
(192,194,l),
(224,188,o),
(238,187,o),
(254,187,cs)
);
},
{
closed = 1;
nodes = (
(237,198,o),
(212,201,o),
(194,206,c),
(239,496,l),
(331,494,o),
(381,444,o),
(381,351,cs),
(381,257,o),
(337,198,o),
(257,198,cs)
);
}
);
width = 466;
},
{
layerId = "51D6B0A0-6F19-4220-A6A1-A0AA8B6A64E3";
shapes = (
{
closed = 1;
nodes = (
(48,-1,o),
(83,0,o),
(121,0,cs),
(173,0,o),
(264,-1,o),
(306,-3,c),
(307,10,l),
(294,10,ls),
(257,10,o),
(232,17,o),
(232,51,cs),
(232,71,o),
(236,92,o),
(238,103,cs),
(309,561,ls),
(317,613,o),
(339,619,o),
(389,619,cs),
(402,619,l),
(403,632,l),
(362,630,o),
(328,629,o),
(269,629,cs),
(194,629,o),
(144,630,o),
(108,632,c),
(106,619,l),
(126,619,ls),
(155,619,o),
(180,613,o),
(180,580,cs),
(180,568,o),
(178,554,o),
(176,542,cs),
(104,78,ls),
(94,16,o),
(75,10,o),
(16,10,cs),
(11,10,l),
(9,-3,l)
);
},
{
closed = 1;
nodes = (
(451,171,o),
(543,244,o),
(543,356,cs),
(543,454,o),
(459,503,o),
(286,503,c),
(247,178,l),
(271,174,o),
(290,171,o),
(311,171,cs)
);
},
{
closed = 1;
nodes = (
(294,188,o),
(269,191,o),
(251,196,c),
(294,489,l),
(375,482,o),
(417,429,o),
(417,344,cs),
(417,250,o),
(382,188,o),
(314,188,cs)
);
}
);
width = 559;
}
);
metricLeft = H;
metricRight = P;
note = Thorn;
unicode = 222;
},
{
color = 3;
glyphname = Q;
kernLeft = Q;
kernRight = O;
lastChange = "2024-10-18 09:42:43 +0000";
layers = (
{
anchors = (
{
name = bottom;
pos = (275,0);
},
{
name = top;
pos = (375,629);
}
);
hints = (
{
horizontal = 1;
origin = (0,34);
target = (0,6);
type = Stem;
},
{
horizontal = 1;
origin = (0,24);
target = (1,11);
type = Stem;
},
{
horizontal = 1;
origin = (0,18);
target = (1,5);
type = Stem;
}
);
layerId = "3F96BAE2-444C-49D6-BFC1-9C0488685DF2";
shapes = (
{
closed = 1;
nodes = (
(494,-241,o),
(579,-185,o),
(628,-72,c),
(606,-61,l),
(562,-153,o),
(514,-183,o),
(449,-183,cs),
(363,-183,o),
(242,-135,o),
(152,-103,c),
(222,-69,o),
(393,-9,o),
(466,64,cs),
(544,138,o),
(593,268,o),
(593,386,cs),
(593,524,o),
(512,641,o),
(368,641,cs),
(165,641,o),
(62,416,o),
(62,247,cs),
(62,94,o),
(141,-14,o),
(297,-14,c),
(182,-56,o),
(63,-114,o),
(63,-124,cs),
(63,-131,o),
(103,-144,o),
(123,-151,cs),
(301,-213,ls),
(369,-237,o),
(396,-241,o),
(421,-241,cs)
);
},
{
closed = 1;
nodes = (
(204,11,o),
(141,95,o),
(141,235,cs),
(141,411,o),
(191,617,o),
(360,617,cs),
(458,617,o),
(514,525,o),
(514,402,cs),
(514,225,o),
(462,11,o),
(302,11,cs)
);
}
);
width = 618;
},
{
anchors = (
{
name = bottom;
pos = (310,0);
},
{
name = top;
pos = (410,629);
}
);
background = {
shapes = (
{
closed = 1;
nodes = (
(550,-13,o),
(657,221,o),
(657,384,cs),
(657,514,o),
(580,643,o),
(395,643,cs),
(176,643,o),
(63,419,o),
(63,247,cs),
(63,89,o),
(167,-13,o),
(327,-13,cs)
);
},
{
closed = 1;
nodes = (
(251,16,o),
(201,92,o),
(201,241,cs),
(201,411,o),
(245,612,o),
(388,612,cs),
(476,612,o),
(518,522,o),
(518,389,cs),
(518,215,o),
(472,16,o),
(334,16,cs)
);
},
{
closed = 1;
nodes = (
(526,-241,o),
(611,-185,o),
(660,-72,c),
(646,-64,l),
(602,-153,o),
(550,-192,o),
(481,-192,cs),
(393,-192,o),
(268,-133,o),
(172,-100,c),
(237,-72,o),
(450,-6,o),
(518,62,cs),
(600,140,o),
(657,254,o),
(657,384,cs),
(657,525,o),
(564,645,o),
(400,645,cs),
(176,645,o),
(63,418,o),
(63,247,cs),
(63,96,o),
(157,-13,o),
(322,-13,c),
(207,-55,o),
(88,-113,o),
(88,-125,cs),
(88,-130,o),
(132,-143,o),
(155,-151,cs),
(333,-213,ls),
(401,-237,o),
(428,-241,o),
(453,-241,cs)
);
},
{
closed = 1;
nodes = (
(253,16,o),
(201,100,o),
(201,241,cs),
(201,412,o),
(244,612,o),
(388,612,cs),
(471,612,o),
(518,517,o),
(518,389,cs),
(518,220,o),
(473,16,o),
(334,16,cs)
);
}
);
};
layerId = "DA9A1FD1-A1AE-48D8-AEBB-5D2735E579CD";
shapes = (
{
closed = 1;
nodes = (
(526,-277,o),
(611,-209,o),
(660,-72,c),
(636,-63,l),
(598,-141,o),
(552,-179,o),
(492,-179,cs),
(406,-179,o),
(283,-128,o),
(189,-100,c),
(251,-72,o),
(441,1,o),
(514,62,cs),
(604,137,o),
(657,254,o),
(657,384,cs),
(657,523,o),
(564,641,o),
(400,641,cs),
(176,641,o),
(63,416,o),
(63,247,cs),
(63,96,o),
(157,-13,o),
(322,-13,c),
(196,-60,o),
(65,-125,o),
(65,-139,cs),
(65,-147,o),
(122,-166,o),
(155,-179,cs),
(333,-249,ls),
(378,-266,o),
(416,-277,o),
(453,-277,cs)
);
},
{
closed = 1;
nodes = (
(253,16,o),
(201,100,o),
(201,241,cs),
(201,410,o),
(244,608,o),
(388,608,cs),
(471,608,o),
(518,515,o),
(518,389,cs),
(518,220,o),
(473,16,o),
(334,16,cs)
);
}
);
width = 688;
},
{
anchors = (
{
name = bottom;
pos = (280,0);
},
{
name = top;
pos = (379,629);
}
);
layerId = "D87563F8-F81F-45D9-80E8-0AF800F60BE2";
shapes = (
{
closed = 1;
nodes = (
(503,-241,o),
(588,-185,o),
(637,-72,c),
(627,-68,l),
(582,-157,o),
(529,-192,o),
(458,-192,cs),
(370,-192,o),
(245,-133,o),
(149,-100,c),
(211,-72,o),
(409,-4,o),
(485,69,cs),
(553,136,o),
(602,265,o),
(602,386,cs),
(602,524,o),
(521,641,o),
(377,641,cs),
(174,641,o),
(71,416,o),
(71,247,cs),
(71,95,o),
(153,-14,o),
(324,-14,c),
(217,-56,o),
(78,-114,o),
(78,-126,cs),
(78,-131,o),
(113,-144,o),
(132,-151,cs),
(310,-213,ls),
(378,-237,o),
(405,-241,o),
(430,-241,cs)
);
},
{
closed = 1;
nodes = (
(211,0,o),
(146,88,o),
(146,235,cs),
(146,417,o),
(197,627,o),
(369,627,cs),
(470,627,o),
(527,533,o),
(527,402,cs),
(527,220,o),
(474,0,o),
(311,0,cs)
);
}
);
width = 626;
},
{
anchors = (
{
name = bottom;
pos = (310,0);
},
{
name = top;
pos = (410,629);
}
);
layerId = "51D6B0A0-6F19-4220-A6A1-A0AA8B6A64E3";
shapes = (
{
closed = 1;
nodes = (
(523,-277,o),
(605,-208,o),
(652,-69,c),
(638,-64,l),
(600,-142,o),
(552,-179,o),
(492,-179,cs),
(404,-179,o),
(277,-123,o),
(181,-93,c),
(243,-65,o),
(433,8,o),
(506,69,cs),
(598,146,o),
(657,257,o),
(657,384,cs),
(657,523,o),
(564,641,o),
(400,641,cs),
(176,641,o),
(63,416,o),
(63,247,cs),
(63,96,o),
(163,-13,o),
(328,-13,c),
(202,-60,o),
(65,-125,o),
(65,-139,cs),
(65,-147,o),
(122,-166,o),
(155,-179,cs),
(333,-249,ls),
(378,-267,o),
(416,-277,o),
(453,-277,cs)
);
},
{
closed = 1;
nodes = (
(253,2,o),
(201,90,o),
(201,241,cs),
(201,417,o),
(244,623,o),
(388,623,cs),
(471,623,o),
(518,523,o),
(518,389,cs),
(518,213,o),
(473,2,o),
(334,2,cs)
);
}
);
width = 687;
}
);
metricLeft = O;
metricWidth = O;
note = Q;
unicode = 81;
},
{
color = 3;
glyphname = R;
kernLeft = H;
kernRight = R;
lastChange = "2024-10-18 09:42:02 +0000";
layers = (
{
anchors = (
{
name = bottom;
pos = (277,0);
},
{
name = top;
pos = (332,629);
}
);
background = {
shapes = (
{
closed = 1;
nodes = (
(538,-13,o),
(567,-11,o),
(565,-11,c),
(570,16,l),
(551,16,ls),
(501,16,o),
(489,24,o),
(468,69,cs),
(350,327,l),
(432,375,o),
(480,428,o),
(480,504,cs),
(480,591,o),
(409,641,o),
(290,641,cs),
(196,641,o),
(155,631,o),
(111,631,c),
(107,604,l),
(156,604,o),
(179,596,o),
(179,571,cs),
(179,542,o),
(174,518,o),
(170,493,cs),
(107,96,ls),
(96,27,o),
(76,24,o),
(14,24,c),
(10,-3,l),
(47,-2,o),
(87,0,o),
(128,0,cs),
(167,0,o),
(209,-2,o),
(248,-3,c),
(251,24,l),
(231,24,ls),
(191,24,o),
(174,29,o),
(174,57,cs),
(174,70,o),
(177,90,o),
(179,101,cs),
(212,309,l),
(220,310,o),
(232,311,o),
(245,311,cs),
(277,311,o),
(292,294,o),
(310,253,cs),
(407,31,ls),
(422,-4,o),
(453,-13,o),
(510,-13,cs)
);
},
{
closed = 1;
nodes = (
(247,336,o),
(234,337,o),
(218,340,c),
(261,613,l),
(359,609,o),
(402,573,o),
(402,494,cs),
(402,404,o),
(348,336,o),
(260,336,cs)
);
}
);
};
hints = (
{
horizontal = 1;
origin = (0,54);
target = (0,4);
type = Stem;
},
{
horizontal = 1;
origin = (0,47);
target = (1,9);
type = Stem;
},
{
horizontal = 1;
origin = (0,14);
target = (1,3);
type = Stem;
},
{
horizontal = 1;
origin = (0,35);
target = (0,37);
type = Stem;
}
);
layerId = "3F96BAE2-444C-49D6-BFC1-9C0488685DF2";
shapes = (
{
closed = 1;
nodes = (
(538,-4,o),
(567,-2,o),
(565,-2,c),
(570,25,l),
(551,25,ls),
(501,25,o),
(489,33,o),
(468,78,cs),
(350,327,l),
(432,375,o),
(480,428,o),
(480,504,cs),
(480,591,o),
(409,641,o),
(290,641,cs),
(196,641,o),
(155,631,o),
(111,631,c),
(107,604,l),
(156,604,o),
(179,596,o),
(179,571,cs),
(179,542,o),
(174,518,o),
(170,493,cs),
(107,96,ls),
(96,27,o),
(76,24,o),
(14,24,c),
(10,-3,l),
(47,-2,o),
(87,0,o),
(128,0,cs),
(167,0,o),
(209,-2,o),
(248,-3,c),
(251,24,l),
(231,24,ls),
(191,24,o),
(174,29,o),
(174,57,cs),
(174,70,o),
(177,90,o),
(179,101,cs),
(212,309,l),
(220,310,o),
(232,311,o),
(245,311,cs),
(277,311,o),
(292,294,o),
(310,253,cs),
(407,40,ls),
(422,5,o),
(453,-4,o),
(510,-4,cs)
);
},
{
closed = 1;
nodes = (
(247,336,o),
(234,337,o),
(218,340,c),
(261,613,l),
(359,609,o),
(402,573,o),
(402,494,cs),
(402,404,o),
(348,336,o),
(260,336,cs)
);
}
);
width = 570;
},
{
anchors = (
{
name = bottom;
pos = (311,0);
},
{
name = top;
pos = (371,629);
}
);
background = {
shapes = (
{
closed = 1;
nodes = (
(43,-1,o),
(84,0,o),
(168,0,cs),
(204,0,o),
(257,-3,o),
(290,-3,cs),
(447,-3,o),
(551,87,o),
(551,194,cs),
(551,270,o),
(499,321,o),
(420,352,c),
(486,378,o),
(550,429,o),
(550,513,cs),
(550,605,o),
(445,643,o),
(309,643,cs),
(225,643,o),
(156,637,o),
(109,636,c),
(105,608,l),
(123,608,ls),
(167,608,o),
(172,587,o),
(172,573,cs),
(172,559,o),
(171,541,o),
(169,529,cs),
(99,76,ls),
(92,33,o),
(74,27,o),
(5,25,c),
(1,-3,l)
);
},
{
closed = 1;
nodes = (
(246,26,o),
(233,36,o),
(233,66,cs),
(233,80,o),
(237,107,o),
(239,119,cs),
(270,327,l),
(280,328,o),
(294,330,o),
(302,330,cs),
(379,330,o),
(419,292,o),
(419,198,cs),
(419,99,o),
(385,26,o),
(291,26,cs)
);
},
{
closed = 1;
nodes = (
(291,357,o),
(288,357,o),
(275,359,c),
(314,614,l),
(387,608,o),
(425,569,o),
(425,492,cs),
(425,411,o),
(381,357,o),
(304,357,cs)
);
}
);
};
layerId = "DA9A1FD1-A1AE-48D8-AEBB-5D2735E579CD";
shapes = (
{
closed = 1;
nodes = (
(630,-4,o),
(646,-2,o),
(644,-2,c),
(649,26,l),
(643,26,ls),
(593,26,o),
(583,34,o),
(560,78,cs),
(425,340,l),
(505,384,o),
(550,434,o),
(550,504,cs),
(550,591,o),
(476,641,o),
(347,641,cs),
(221,641,o),
(167,631,o),
(108,631,c),
(104,603,l),
(153,603,o),
(176,596,o),
(176,571,cs),
(176,542,o),
(171,518,o),
(167,493,cs),
(104,97,ls),
(93,28,o),
(73,25,o),
(11,25,c),
(7,-3,l),
(44,-2,o),
(84,0,o),
(125,0,cs),
(224,0,o),
(266,-2,o),
(305,-3,c),
(308,25,l),
(288,25,ls),
(248,25,o),
(231,30,o),
(231,58,cs),
(231,71,o),
(234,91,o),
(236,102,cs),
(269,309,l),
(275,310,o),
(285,311,o),
(292,311,cs),
(308,311,o),
(316,298,o),
(337,253,cs),
(424,63,ls),
(452,2,o),
(509,-4,o),
(602,-4,cs)
);
},
{
closed = 1;
nodes = (
(299,336,o),
(291,337,o),
(275,340,c),
(318,613,l),
(392,609,o),
(425,572,o),
(425,492,cs),
(425,403,o),
(379,336,o),
(312,336,cs)
);
}
);
width = 650;
},
{
anchors = (
{
name = bottom;
pos = (275,0);
},
{
name = top;
pos = (333,629);
}
);
background = {
shapes = (
{
closed = 1;
nodes = (
(538,-13,o),
(567,-11,o),
(565,-11,c),
(568,0,l),
(549,0,ls),
(501,0,o),
(486,10,o),
(463,63,cs),
(342,337,l),
(433,393,o),
(476,434,o),
(476,504,cs),
(476,591,o),
(409,642,o),
(290,642,cs),
(200,642,o),
(159,632,o),
(115,632,c),
(113,621,l),
(162,621,o),
(184,614,o),
(184,589,cs),
(184,560,o),
(178,531,o),
(171,486,cs),
(109,80,ls),
(98,11,o),
(78,8,o),
(16,8,c),
(14,-3,l),
(51,-2,o),
(91,0,o),
(132,0,cs),
(171,0,o),
(209,-2,o),
(248,-3,c),
(249,8,l),
(229,8,ls),
(189,8,o),
(172,18,o),
(172,48,cs),
(172,52,o),
(175,74,o),
(177,85,cs),
(213,314,l),
(221,315,o),
(233,316,o),
(246,316,cs),
(278,316,o),
(293,294,o),
(310,253,cs),
(406,25,ls),
(421,-10,o),
(453,-13,o),
(510,-13,cs)
);
},
{
closed = 1;
nodes = (
(245,326,o),
(232,327,o),
(216,329,c),
(261,629,l),
(361,626,o),
(402,588,o),
(402,494,cs),
(402,400,o),
(346,326,o),
(258,326,cs)
);
}
);
};
layerId = "D87563F8-F81F-45D9-80E8-0AF800F60BE2";
shapes = (
{
closed = 1;
nodes = (
(538,-4,o),
(567,-2,o),
(565,-2,c),
(568,9,l),
(549,9,ls),
(501,9,o),
(487,19,o),
(463,72,cs),
(342,337,l),
(433,393,o),
(476,434,o),
(476,504,cs),
(476,591,o),
(409,642,o),
(290,642,cs),
(200,642,o),
(159,632,o),
(115,632,c),
(113,621,l),
(162,621,o),
(184,614,o),
(184,589,cs),
(184,560,o),
(178,531,o),
(171,486,cs),
(109,80,ls),
(98,11,o),
(78,8,o),
(16,8,c),
(14,-3,l),
(51,-2,o),
(91,0,o),
(132,0,cs),
(171,0,o),
(209,-2,o),
(248,-3,c),
(249,8,l),
(229,8,ls),
(189,8,o),
(172,18,o),
(172,48,cs),
(172,52,o),
(175,74,o),
(177,85,cs),
(213,314,l),
(221,315,o),
(233,316,o),
(246,316,cs),
(278,316,o),
(292,294,o),
(310,253,cs),
(406,34,ls),
(421,-1,o),
(453,-4,o),
(510,-4,cs)
);
},
{
closed = 1;
nodes = (
(245,326,o),
(232,327,o),
(216,329,c),
(261,629,l),
(361,626,o),
(402,588,o),
(402,494,cs),
(402,400,o),
(346,326,o),
(258,326,cs)
);
}
);
width = 570;
},
{
anchors = (
{
name = bottom;
pos = (322,0);
},
{
name = top;
pos = (372,629);
}
);
layerId = "51D6B0A0-6F19-4220-A6A1-A0AA8B6A64E3";
shapes = (
{
closed = 1;
nodes = (
(630,-4,o),
(637,-2,o),
(644,-2,c),
(647,11,l),
(641,11,ls),
(600,11,o),
(585,29,o),
(560,78,cs),
(425,340,l),
(505,384,o),
(550,434,o),
(550,504,cs),
(550,591,o),
(476,641,o),
(347,641,cs),
(221,641,o),
(167,631,o),
(108,631,c),
(106,618,l),
(155,618,o),
(178,611,o),
(178,583,cs),
(178,557,o),
(174,533,o),
(170,508,cs),
(103,83,ls),
(92,14,o),
(72,10,o),
(10,10,c),
(7,-3,l),
(44,-2,o),
(84,0,o),
(125,0,cs),
(224,0,o),
(266,-2,o),
(305,-3,c),
(307,10,l),
(287,10,ls),
(247,10,o),
(231,27,o),
(231,50,cs),
(231,65,o),
(234,89,o),
(236,102,cs),
(270,315,l),
(276,316,o),
(286,317,o),
(293,317,cs),
(308,317,o),
(315,301,o),
(337,253,cs),
(424,63,ls),
(452,2,o),
(509,-4,o),
(602,-4,cs)
);
},
{
closed = 1;
nodes = (
(298,330,o),
(290,331,o),
(274,334,c),
(319,623,l),
(392,619,o),
(425,579,o),
(425,492,cs),
(425,400,o),
(378,330,o),
(311,330,cs)
);
}
);
width = 650;
}
);
metricLeft = H;
note = R;
unicode = 82;
},
{
color = 3;
glyphname = S;
kernLeft = S;
kernRight = S;
lastChange = "2024-10-18 09:20:41 +0000";
layers = (
{
anchors = (
{
name = bottom;
pos = (171,0);
},
{
name = top;
pos = (291,629);
}
);
hints = (
{
horizontal = 1;
origin = (0,51);
target = (0,37);
type = Stem;
},
{
horizontal = 1;
origin = (0,25);
target = (0,11);
type = Stem;
},
{
horizontal = 1;
origin = (0,22);
target = down;
type = TopGhost;
},
{
horizontal = 1;
origin = (0,48);
target = up;
type = BottomGhost;
}
);
layerId = "3F96BAE2-444C-49D6-BFC1-9C0488685DF2";
shapes = (
{
closed = 1;
nodes = (
(276,-12,o),
(360,69,o),
(360,170,cs),
(360,235,o),
(318,302,o),
(256,382,cs),
(208,443,o),
(187,488,o),
(187,521,cs),
(187,579,o),
(229,616,o),
(286,616,cs),
(341,616,o),
(377,587,o),
(377,530,cs),
(377,519,o),
(375,506,o),
(374,495,c),
(401,495,l),
(422,642,l),
(409,636,o),
(384,633,o),
(369,633,cs),
(339,633,o),
(315,641,o),
(285,641,cs),
(214,641,o),
(134,587,o),
(134,488,cs),
(134,425,o),
(174,362,o),
(217,304,cs),
(261,245,o),
(300,192,o),
(300,135,cs),
(300,65,o),
(254,13,o),
(175,13,cs),
(100,13,o),
(62,53,o),
(62,132,cs),
(62,142,o),
(63,152,o),
(63,162,c),
(35,162,l),
(18,-11,l),
(34,-4,o),
(56,-2,o),
(71,-2,cs),
(86,-2,o),
(149,-12,o),
(175,-12,cs)
);
}
);
width = 428;
},
{
anchors = (
{
name = bottom;
pos = (178,0);
},
{
name = top;
pos = (298,629);
}
);
layerId = "DA9A1FD1-A1AE-48D8-AEBB-5D2735E579CD";
shapes = (
{
closed = 1;
nodes = (
(291,-12,o),
(381,69,o),
(381,178,cs),
(381,244,o),
(358,303,o),
(309,376,cs),
(261,447,o),
(237,495,o),
(237,535,cs),
(237,578,o),
(265,614,o),
(316,614,cs),
(361,614,o),
(400,588,o),
(400,538,cs),
(400,525,o),
(398,508,o),
(397,495,c),
(422,495,l),
(442,642,l),
(431,636,o),
(409,633,o),
(395,633,cs),
(361,633,o),
(334,641,o),
(293,641,cs),
(188,641,o),
(133,568,o),
(133,482,cs),
(133,426,o),
(160,364,o),
(199,306,cs),
(242,241,o),
(278,186,o),
(278,127,cs),
(278,63,o),
(243,16,o),
(185,16,cs),
(102,16,o),
(59,52,o),
(59,124,cs),
(59,137,o),
(60,149,o),
(60,162,c),
(36,162,l),
(18,-11,l),
(31,-4,o),
(52,-2,o),
(68,-2,cs),
(83,-2,o),
(150,-12,o),
(178,-12,cs)
);
}
);
width = 444;
},
{
anchors = (
{
name = bottom;
pos = (182,0);
},
{
name = top;
pos = (291,629);
}
);
layerId = "D87563F8-F81F-45D9-80E8-0AF800F60BE2";
shapes = (
{
closed = 1;
nodes = (
(273,-12,o),
(355,69,o),
(355,170,cs),
(355,235,o),
(313,304,o),
(251,384,cs),
(205,444,o),
(187,495,o),
(187,530,cs),
(187,587,o),
(229,627,o),
(290,627,cs),
(349,627,o),
(388,598,o),
(388,538,cs),
(388,525,o),
(386,508,o),
(385,495,c),
(396,495,l),
(417,642,l),
(405,636,o),
(383,633,o),
(369,633,cs),
(339,633,o),
(315,641,o),
(278,641,cs),
(192,641,o),
(134,568,o),
(134,488,cs),
(134,425,o),
(174,362,o),
(217,304,cs),
(262,243,o),
(300,186,o),
(300,127,cs),
(300,53,o),
(254,2,o),
(175,2,cs),
(88,2,o),
(46,40,o),
(46,124,cs),
(46,137,o),
(47,149,o),
(47,162,c),
(36,162,l),
(19,-11,l),
(32,-4,o),
(57,-2,o),
(76,-2,cs),
(88,-2,o),
(150,-12,o),
(175,-12,cs)
);
}
);
width = 428;
},
{
anchors = (
{
name = bottom;
pos = (179,0);
},
{
name = top;
pos = (299,629);
}
);
layerId = "51D6B0A0-6F19-4220-A6A1-A0AA8B6A64E3";
shapes = (
{
closed = 1;
nodes = (
(291,-12,o),
(381,69,o),
(381,178,cs),
(381,244,o),
(358,303,o),
(309,376,cs),
(261,448,o),
(237,497,o),
(237,537,cs),
(237,587,o),
(265,627,o),
(316,627,cs),
(369,627,o),
(412,597,o),
(412,538,cs),
(412,525,o),
(410,508,o),
(409,495,c),
(422,495,l),
(442,642,l),
(431,636,o),
(409,633,o),
(395,633,cs),
(361,633,o),
(334,641,o),
(293,641,cs),
(188,641,o),
(133,569,o),
(133,484,cs),
(133,427,o),
(159,365,o),
(199,306,cs),
(242,241,o),
(278,186,o),
(278,127,cs),
(278,54,o),
(243,0,o),
(185,0,cs),
(93,0,o),
(48,41,o),
(48,124,cs),
(48,137,o),
(49,149,o),
(49,162,c),
(36,162,l),
(18,-11,l),
(31,-4,o),
(52,-2,o),
(68,-2,cs),
(83,-2,o),
(150,-12,o),
(178,-12,cs)
);
}
);
width = 443;
}
);
note = S;
unicode = 83;
},
{
color = 3;
glyphname = Germandbls;
kernLeft = H;
kernRight = S;
lastChange = "2024-10-18 09:42:48 +0000";
layers = (
{
layerId = "3F96BAE2-444C-49D6-BFC1-9C0488685DF2";
shapes = (
{
closed = 1;
nodes = (
(484,-11,o),
(568,51,o),
(583,145,cs),
(598,244,o),
(548,316,o),
(426,382,c),
(606,609,l),
(609,629,l),
(230,629,ls),
(206,629,o),
(157,630,o),
(111,632,c),
(106,605,l),
(108,605,ls),
(172,605,o),
(184,601,o),
(174,540,cs),
(104,94,ls),
(94,31,o),
(84,24,o),
(20,24,cs),
(16,24,l),
(11,-3,l),
(55,-1,o),
(72,0,o),
(114,0,cs),
(128,0,o),
(155,-1,o),
(168,-3,c),
(171,28,o),
(183,119,o),
(188,150,cs),
(259,599,l),
(518,599,l),
(338,364,l),
(335,348,l),
(472,292,o),
(519,208,o),
(507,131,cs),
(496,61,o),
(442,13,o),
(383,13,cs),
(314,13,o),
(280,50,o),
(269,123,c),
(247,123,l),
(238,-3,l),
(255,-3,l),
(262,1,o),
(270,5,o),
(279,5,cs),
(295,5,o),
(326,-11,o),
(389,-11,cs)
);
}
);
width = 634;
},
{
layerId = "DA9A1FD1-A1AE-48D8-AEBB-5D2735E579CD";
shapes = (
{
closed = 1;
nodes = (
(560,-11,o),
(645,51,o),
(662,157,cs),
(683,283,o),
(612,344,o),
(526,396,c),
(688,619,l),
(689,629,l),
(297,629,ls),
(252,629,o),
(175,630,o),
(109,632,c),
(105,605,l),
(114,605,ls),
(150,605,o),
(191,597,o),
(183,548,cs),
(109,84,ls),
(100,30,o),
(45,25,o),
(29,25,cs),
(12,25,l),
(7,-3,l),
(70,-1,o),
(117,0,o),
(146,0,cs),
(171,0,o),
(190,-1,o),
(231,-3,c),
(229,17,o),
(239,99,o),
(245,138,cs),
(316,589,l),
(536,589,l),
(382,371,l),
(378,347,l),
(504,269,o),
(563,212,o),
(548,123,cs),
(537,53,o),
(497,23,o),
(438,23,cs),
(374,23,o),
(332,44,o),
(319,136,c),
(293,136,l),
(293,-3,l),
(313,-3,l),
(320,4,o),
(328,9,o),
(337,9,cs),
(357,9,o),
(387,-11,o),
(453,-11,cs)
);
}
);
width = 713;
},
{
layerId = "D87563F8-F81F-45D9-80E8-0AF800F60BE2";
shapes = (
{
closed = 1;
nodes = (
(470,-11,o),
(545,52,o),
(560,147,cs),
(577,257,o),
(518,321,o),
(410,382,c),
(592,625,l),
(591,629,l),
(220,629,ls),
(196,629,o),
(160,630,o),
(114,632,c),
(112,621,l),
(114,621,ls),
(178,621,o),
(190,618,o),
(180,557,cs),
(104,78,ls),
(94,15,o),
(84,8,o),
(20,8,cs),
(16,8,l),
(14,-3,l),
(58,-1,o),
(75,0,o),
(117,0,cs),
(118,0,o),
(149,-1,o),
(162,-3,c),
(165,28,o),
(177,119,o),
(182,150,cs),
(255,613,l),
(511,613,l),
(326,362,l),
(325,353,l),
(459,291,o),
(509,215,o),
(496,131,cs),
(484,59,o),
(441,-2,o),
(374,-2,cs),
(296,-2,o),
(255,34,o),
(242,117,c),
(233,117,l),
(224,-3,l),
(233,-3,l),
(239,1,o),
(246,5,o),
(253,5,cs),
(272,5,o),
(310,-11,o),
(379,-11,cs)
);
}
);
width = 617;
},
{
layerId = "51D6B0A0-6F19-4220-A6A1-A0AA8B6A64E3";
shapes = (
{
closed = 1;
nodes = (
(577,-11,o),
(644,58,o),
(659,153,cs),
(678,273,o),
(609,349,o),
(523,398,c),
(686,619,l),
(687,629,l),
(295,629,ls),
(235,629,o),
(167,630,o),
(108,632,c),
(106,619,l),
(111,619,l),
(159,619,o),
(199,618,o),
(191,566,cs),
(112,64,ls),
(104,11,o),
(67,10,o),
(21,10,c),
(10,10,l),
(7,-3,l),
(65,-2,o),
(108,0,o),
(170,0,cs),
(201,0,o),
(216,-2,o),
(239,-3,c),
(238,11,o),
(243,60,o),
(251,112,cs),
(329,605,l),
(549,605,l),
(377,371,l),
(374,359,l),
(504,281,o),
(562,206,o),
(547,112,cs),
(535,39,o),
(492,4,o),
(436,4,cs),
(365,4,o),
(325,44,o),
(312,132,c),
(298,132,l),
(297,-3,l),
(311,-3,l),
(318,2,o),
(325,6,o),
(334,6,cs),
(358,6,o),
(395,-11,o),
(460,-11,cs)
);
}
);
width = 710;
}
);
metricLeft = H;
metricRight = B;
unicode = 7838;
},
{
color = 3;
glyphname = T;
kernLeft = T;
kernRight = T;
lastChange = "2024-10-18 09:20:41 +0000";
layers = (
{
anchors = (
{
name = bottom;
pos = (241,0);
},
{
name = center;
pos = (291,315);
},
{
name = top;
pos = (341,629);
}
);
hints = (
{
horizontal = 1;
origin = (0,42);
target = (0,41);
type = Stem;
},
{
horizontal = 1;
origin = (0,27);
target = (0,36);
type = Stem;
},
{
horizontal = 1;
origin = (0,30);
target = down;
type = TopGhost;
}
);
layerId = "3F96BAE2-444C-49D6-BFC1-9C0488685DF2";
shapes = (
{
closed = 1;
nodes = (
(160,-1,o),
(238,0,o),
(253,0,cs),
(263,0,o),
(323,-1,o),
(365,-3,c),
(369,24,l),
(341,24,ls),
(312,24,o),
(295,33,o),
(295,64,cs),
(295,71,o),
(297,88,o),
(298,93,cs),
(378,599,l),
(511,599,ls),
(544,599,o),
(554,591,o),
(554,554,cs),
(554,538,o),
(552,527,o),
(548,504,c),
(576,504,l),
(598,647,l),
(576,635,o),
(539,629,o),
(524,629,cs),
(168,629,ls),
(148,629,o),
(126,636,o),
(108,647,c),
(77,504,l),
(105,504,l),
(115,543,o),
(131,599,o),
(179,599,cs),
(306,599,l),
(224,80,ls),
(217,34,o),
(200,24,o),
(153,24,cs),
(136,24,l),
(132,-3,l)
);
}
);
width = 560;
},
{
anchors = (
{
name = bottom;
pos = (270,0);
},
{
name = center;
pos = (320,315);
},
{
name = top;
pos = (370,629);
}
);
layerId = "DA9A1FD1-A1AE-48D8-AEBB-5D2735E579CD";
shapes = (
{
closed = 1;
nodes = (
(163,-1,o),
(241,0,o),
(256,0,cs),
(267,0,o),
(380,-1,o),
(422,-3,c),
(428,25,l),
(399,25,ls),
(370,25,o),
(351,34,o),
(351,65,cs),
(351,72,o),
(353,89,o),
(354,94,cs),
(434,597,l),
(566,597,ls),
(599,597,o),
(612,582,o),
(612,545,cs),
(612,529,o),
(610,518,o),
(607,495,c),
(632,495,l),
(656,647,l),
(633,635,o),
(596,631,o),
(581,631,cs),
(172,631,ls),
(151,631,o),
(130,636,o),
(111,647,c),
(79,495,l),
(105,495,l),
(116,534,o),
(132,597,o),
(187,597,cs),
(312,597,l),
(230,81,ls),
(223,35,o),
(204,25,o),
(158,25,cs),
(140,25,l),
(135,-3,l)
);
}
);
width = 607;
},
{
anchors = (
{
name = bottom;
pos = (243,0);
},
{
name = center;
pos = (293,315);
},
{
name = top;
pos = (342,629);
}
);
layerId = "D87563F8-F81F-45D9-80E8-0AF800F60BE2";
shapes = (
{
closed = 1;
nodes = (
(161,-1,o),
(239,0,o),
(254,0,cs),
(264,0,o),
(324,-1,o),
(366,-3,c),
(368,8,l),
(340,8,ls),
(311,8,o),
(292,17,o),
(292,48,cs),
(292,55,o),
(294,72,o),
(295,77,cs),
(380,613,l),
(521,613,ls),
(554,613,o),
(572,597,o),
(572,559,cs),
(572,543,o),
(570,527,o),
(566,504,c),
(577,504,l),
(599,647,l),
(577,635,o),
(540,631,o),
(525,631,cs),
(169,631,ls),
(149,631,o),
(127,636,o),
(109,647,c),
(78,504,l),
(89,504,l),
(101,546,o),
(117,613,o),
(177,613,cs),
(312,613,l),
(225,64,ls),
(218,18,o),
(199,8,o),
(152,8,cs),
(135,8,l),
(133,-3,l)
);
}
);
width = 559;
},
{
anchors = (
{
name = bottom;
pos = (271,0);
},
{
name = center;
pos = (321,315);
},
{
name = top;
pos = (371,629);
}
);
layerId = "51D6B0A0-6F19-4220-A6A1-A0AA8B6A64E3";
shapes = (
{
closed = 1;
nodes = (
(163,-1,o),
(241,0,o),
(256,0,cs),
(267,0,o),
(380,-1,o),
(422,-3,c),
(424,10,l),
(396,10,ls),
(367,10,o),
(348,19,o),
(348,50,cs),
(348,57,o),
(350,74,o),
(351,79,cs),
(435,607,l),
(577,607,ls),
(610,607,o),
(625,591,o),
(625,554,cs),
(625,538,o),
(623,527,o),
(620,504,c),
(633,504,l),
(656,647,l),
(633,635,o),
(596,631,o),
(581,631,cs),
(172,631,ls),
(151,631,o),
(130,636,o),
(111,647,c),
(80,504,l),
(93,504,l),
(104,543,o),
(120,607,o),
(175,607,cs),
(313,607,l),
(227,66,ls),
(220,20,o),
(201,10,o),
(155,10,cs),
(137,10,l),
(135,-3,l)
);
}
);
width = 607;
}
);
note = T;
unicode = 84;
},
{
color = 3;
glyphname = Tbar;
kernLeft = T;
kernRight = T;
lastChange = "2024-08-24 15:40:18 +0000";
layers = (
{
layerId = "3F96BAE2-444C-49D6-BFC1-9C0488685DF2";
shapes = (
{
closed = 1;
nodes = (
(470,313,l),
(474,340,l),
(152,340,l),
(148,313,l)
);
},
{
ref = T;
}
);
width = 573;
},
{
layerId = "DA9A1FD1-A1AE-48D8-AEBB-5D2735E579CD";
shapes = (
{
closed = 1;
nodes = (
(511,310,l),
(516,342,l),
(144,342,l),
(139,310,l)
);
},
{
ref = T;
}
);
width = 607;
},
{
layerId = "D87563F8-F81F-45D9-80E8-0AF800F60BE2";
shapes = (
{
closed = 1;
nodes = (
(473,317,l),
(475,334,l),
(153,334,l),
(151,317,l)
);
},
{
ref = T;
}
);
width = 573;
},
{
layerId = "51D6B0A0-6F19-4220-A6A1-A0AA8B6A64E3";
shapes = (
{
closed = 1;
nodes = (
(515,316,l),
(518,337,l),
(146,337,l),
(143,316,l)
);
},
{
ref = T;
}
);
width = 607;
}
);
unicode = 358;
},
{
color = 3;
glyphname = U;
kernLeft = U;
kernRight = J;
lastChange = "2024-10-18 09:42:06 +0000";
layers = (
{
anchors = (
{
name = bottom;
pos = (305,0);
},
{
name = ogonek;
pos = (463,10);
},
{
name = top;
pos = (415,629);
},
{
name = topright;
pos = (721,629);
}
);
hints = (
{
horizontal = 1;
origin = (0,58);
target = (0,25);
type = Stem;
},
{
horizontal = 1;
origin = (0,43);
target = (0,45);
type = Stem;
}
);
layerId = "3F96BAE2-444C-49D6-BFC1-9C0488685DF2";
shapes = (
{
closed = 1;
nodes = (
(424,-12,o),
(528,35,o),
(555,199,cs),
(610,539,ls),
(617,582,o),
(621,605,o),
(692,605,cs),
(702,605,l),
(706,632,l),
(674,630,o),
(648,629,o),
(603,629,cs),
(566,629,o),
(540,630,o),
(500,632,c),
(496,605,l),
(542,605,o),
(571,602,o),
(571,569,cs),
(571,562,o),
(571,559,o),
(569,546,cs),
(514,195,ls),
(493,63,o),
(420,16,o),
(318,16,cs),
(233,16,o),
(178,59,o),
(178,121,cs),
(178,132,o),
(180,150,o),
(183,170,cs),
(239,524,ls),
(248,578,o),
(251,605,o),
(323,605,cs),
(336,605,l),
(341,632,l),
(303,630,o),
(262,629,o),
(225,629,cs),
(184,629,o),
(146,630,o),
(102,632,c),
(98,605,l),
(115,605,ls),
(157,605,o),
(172,595,o),
(172,570,cs),
(172,559,o),
(168,537,o),
(166,524,cs),
(115,199,ls),
(110,169,o),
(107,144,o),
(107,130,cs),
(107,49,o),
(196,-12,o),
(318,-12,cs)
);
}
);
width = 675;
},
{
anchors = (
{
name = bottom;
pos = (326,0);
},
{
name = ogonek;
pos = (530,10);
},
{
name = top;
pos = (436,629);
},
{
name = topright;
pos = (766,629);
}
);
layerId = "DA9A1FD1-A1AE-48D8-AEBB-5D2735E579CD";
shapes = (
{
closed = 1;
nodes = (
(471,-12,o),
(575,35,o),
(602,199,cs),
(657,538,ls),
(664,580,o),
(668,604,o),
(739,604,cs),
(749,604,l),
(753,632,l),
(721,630,o),
(695,629,o),
(640,629,cs),
(603,629,o),
(577,630,o),
(537,632,c),
(533,604,l),
(579,604,o),
(608,601,o),
(608,568,cs),
(608,561,o),
(608,558,o),
(606,545,cs),
(551,195,ls),
(530,64,o),
(465,18,o),
(363,18,cs),
(283,18,o),
(234,65,o),
(234,122,cs),
(234,137,o),
(236,155,o),
(239,173,cs),
(292,523,ls),
(300,577,o),
(304,604,o),
(376,604,cs),
(389,604,l),
(394,632,l),
(356,630,o),
(315,629,o),
(278,629,cs),
(216,629,o),
(156,630,o),
(99,632,c),
(95,604,l),
(112,604,ls),
(154,604,o),
(169,592,o),
(169,565,cs),
(169,556,o),
(165,536,o),
(163,523,cs),
(114,213,ls),
(108,177,o),
(106,158,o),
(106,144,cs),
(106,46,o),
(214,-12,o),
(361,-12,cs)
);
}
);
width = 720;
},
{
anchors = (
{
name = bottom;
pos = (307,0);
},
{
name = ogonek;
pos = (466,10);
},
{
name = top;
pos = (416,629);
},
{
name = topright;
pos = (725,629);
}
);
layerId = "D87563F8-F81F-45D9-80E8-0AF800F60BE2";
shapes = (
{
closed = 1;
nodes = (
(425,-12,o),
(528,35,o),
(554,199,cs),
(611,555,ls),
(618,597,o),
(623,621,o),
(697,621,cs),
(707,621,l),
(709,632,l),
(677,630,o),
(651,629,o),
(606,629,cs),
(569,629,o),
(543,630,o),
(503,632,c),
(501,621,l),
(553,621,o),
(582,618,o),
(582,585,cs),
(582,578,o),
(582,575,o),
(580,562,cs),
(523,195,ls),
(501,54,o),
(428,3,o),
(321,3,cs),
(236,3,o),
(177,52,o),
(177,121,cs),
(177,127,o),
(177,138,o),
(182,170,cs),
(240,540,ls),
(248,594,o),
(252,621,o),
(324,621,cs),
(337,621,l),
(339,632,l),
(301,630,o),
(261,629,o),
(224,629,cs),
(183,629,o),
(149,630,o),
(105,632,c),
(103,621,l),
(120,621,ls),
(162,621,o),
(177,610,o),
(177,585,cs),
(177,574,o),
(173,551,o),
(171,538,cs),
(118,199,ls),
(112,163,o),
(110,144,o),
(110,130,cs),
(110,49,o),
(199,-12,o),
(321,-12,cs)
);
}
);
width = 680;
},
{
anchors = (
{
name = bottom;
pos = (327,0);
},
{
name = ogonek;
pos = (527,10);
},
{
name = top;
pos = (437,629);
},
{
name = topright;
pos = (767,629);
}
);
layerId = "51D6B0A0-6F19-4220-A6A1-A0AA8B6A64E3";
shapes = (
{
closed = 1;
nodes = (
(472,-12,o),
(577,35,o),
(603,199,cs),
(660,553,ls),
(667,595,o),
(671,619,o),
(742,619,cs),
(752,619,l),
(754,632,l),
(722,630,o),
(696,629,o),
(641,629,cs),
(604,629,o),
(578,630,o),
(538,632,c),
(536,619,l),
(588,619,o),
(621,616,o),
(621,583,cs),
(621,576,o),
(621,573,o),
(619,560,cs),
(562,195,ls),
(540,51,o),
(471,5,o),
(364,5,cs),
(283,5,o),
(233,55,o),
(233,122,cs),
(233,137,o),
(235,155,o),
(238,173,cs),
(293,538,ls),
(301,592,o),
(305,619,o),
(377,619,cs),
(390,619,l),
(393,632,l),
(355,630,o),
(286,629,o),
(251,629,cs),
(189,629,o),
(157,630,o),
(100,632,c),
(98,619,l),
(115,619,ls),
(157,619,o),
(172,607,o),
(172,580,cs),
(172,571,o),
(168,551,o),
(166,538,cs),
(115,213,ls),
(109,177,o),
(107,158,o),
(107,144,cs),
(107,46,o),
(215,-12,o),
(362,-12,cs)
);
}
);
width = 720;
}
);
metricLeft = "=|J";
metricRight = J;
note = U;
unicode = 85;
},
{
color = 3;
glyphname = Uhorn;
kernLeft = U;
kernRight = Uhorn;
lastChange = "2024-10-18 09:15:42 +0000";
layers = (
{
anchors = (
{
name = bottom;
pos = (304,0);
},
{
name = ogonek;
pos = (462,10);
},
{
name = top;
pos = (414,629);
}
);
layerId = "3F96BAE2-444C-49D6-BFC1-9C0488685DF2";
shapes = (
{
closed = 1;
nodes = (
(423,-12,o),
(527,35,o),
(554,199,cs),
(624,629,l),
(587,629,o),
(539,630,o),
(499,632,c),
(495,603,l),
(541,603,o),
(570,600,o),
(570,567,cs),
(570,560,o),
(570,557,o),
(568,544,cs),
(513,195,ls),
(492,63,o),
(419,16,o),
(317,16,cs),
(232,16,o),
(177,59,o),
(177,121,cs),
(177,132,o),
(179,150,o),
(182,170,cs),
(238,522,ls),
(247,576,o),
(250,603,o),
(322,603,cs),
(335,603,l),
(340,632,l),
(302,630,o),
(261,629,o),
(224,629,cs),
(183,629,o),
(145,630,o),
(101,632,c),
(97,603,l),
(114,603,ls),
(156,603,o),
(171,593,o),
(171,568,cs),
(171,557,o),
(167,535,o),
(165,522,cs),
(114,199,ls),
(109,169,o),
(106,144,o),
(106,130,cs),
(106,49,o),
(195,-12,o),
(317,-12,cs)
);
},
{
closed = 1;
nodes = (
(674,431,o),
(729,476,o),
(740,543,cs),
(748,598,o),
(730,638,o),
(697,638,cs),
(678,638,o),
(663,629,o),
(658,602,cs),
(651,552,o),
(712,575,o),
(702,510,cs),
(695,470,o),
(641,447,o),
(577,435,c),
(577,415,l)
);
}
);
width = 707;
},
{
anchors = (
{
name = bottom;
pos = (326,0);
},
{
name = ogonek;
pos = (530,10);
},
{
name = top;
pos = (436,629);
}
);
layerId = "DA9A1FD1-A1AE-48D8-AEBB-5D2735E579CD";
shapes = (
{
closed = 1;
nodes = (
(471,-12,o),
(576,35,o),
(602,199,cs),
(671,629,l),
(634,629,o),
(577,630,o),
(537,632,c),
(533,604,l),
(579,604,o),
(608,601,o),
(608,568,cs),
(608,561,o),
(608,558,o),
(606,545,cs),
(551,195,ls),
(530,64,o),
(465,18,o),
(363,18,cs),
(283,18,o),
(234,65,o),
(234,122,cs),
(234,137,o),
(236,155,o),
(239,173,cs),
(292,523,ls),
(300,577,o),
(304,604,o),
(376,604,cs),
(389,604,l),
(394,632,l),
(356,630,o),
(315,629,o),
(278,629,cs),
(216,629,o),
(156,630,o),
(99,632,c),
(95,604,l),
(112,604,ls),
(154,604,o),
(169,592,o),
(169,565,cs),
(169,556,o),
(165,536,o),
(163,523,cs),
(114,213,ls),
(108,177,o),
(106,158,o),
(106,144,cs),
(106,46,o),
(214,-12,o),
(361,-12,cs)
);
},
{
closed = 1;
nodes = (
(739,405,o),
(819,450,o),
(833,534,cs),
(842,595,o),
(817,637,o),
(769,637,cs),
(739,637,o),
(715,619,o),
(709,583,cs),
(700,525,o),
(786,552,o),
(777,498,cs),
(771,457,o),
(713,434,o),
(616,426,c),
(617,398,l)
);
}
);
width = 792;
},
{
anchors = (
{
name = bottom;
pos = (307,0);
},
{
name = ogonek;
pos = (466,10);
},
{
name = top;
pos = (416,629);
}
);
layerId = "D87563F8-F81F-45D9-80E8-0AF800F60BE2";
shapes = (
{
closed = 1;
nodes = (
(425,-12,o),
(528,35,o),
(554,199,cs),
(622,629,l),
(570,629,o),
(543,630,o),
(503,632,c),
(501,621,l),
(553,621,o),
(586,618,o),
(586,585,cs),
(586,578,o),
(586,575,o),
(584,562,cs),
(527,195,ls),
(505,54,o),
(428,3,o),
(321,3,cs),
(236,3,o),
(177,52,o),
(177,121,cs),
(177,127,o),
(177,138,o),
(182,170,cs),
(240,540,ls),
(248,594,o),
(252,621,o),
(324,621,cs),
(337,621,l),
(339,632,l),
(301,630,o),
(261,629,o),
(224,629,cs),
(183,629,o),
(149,630,o),
(105,632,c),
(103,621,l),
(120,621,ls),
(162,621,o),
(177,610,o),
(177,585,cs),
(177,574,o),
(173,551,o),
(171,538,cs),
(118,199,ls),
(112,163,o),
(110,144,o),
(110,130,cs),
(110,49,o),
(199,-12,o),
(321,-12,cs)
);
},
{
closed = 1;
nodes = (
(667,429,o),
(720,461,o),
(735,541,cs),
(745,596,o),
(727,636,o),
(698,636,cs),
(678,636,o),
(666,623,o),
(663,603,cs),
(656,561,o),
(716,576,o),
(706,514,cs),
(698,464,o),
(641,440,o),
(571,427,c),
(571,413,l)
);
}
);
width = 702;
},
{
anchors = (
{
name = bottom;
pos = (327,0);
},
{
name = ogonek;
pos = (527,10);
},
{
name = top;
pos = (437,629);
}
);
layerId = "51D6B0A0-6F19-4220-A6A1-A0AA8B6A64E3";
shapes = (
{
closed = 1;
nodes = (
(472,-12,o),
(576,35,o),
(603,199,cs),
(673,629,l),
(636,629,o),
(578,630,o),
(538,632,c),
(536,619,l),
(582,619,o),
(611,616,o),
(611,583,cs),
(611,576,o),
(611,573,o),
(609,560,cs),
(552,195,ls),
(530,51,o),
(466,5,o),
(364,5,cs),
(284,5,o),
(235,55,o),
(235,122,cs),
(235,137,o),
(237,155,o),
(240,173,cs),
(295,538,ls),
(303,592,o),
(307,619,o),
(379,619,cs),
(392,619,l),
(395,632,l),
(357,630,o),
(288,629,o),
(251,629,cs),
(189,629,o),
(157,630,o),
(100,632,c),
(98,619,l),
(115,619,ls),
(157,619,o),
(172,607,o),
(172,580,cs),
(172,571,o),
(168,551,o),
(166,538,cs),
(115,213,ls),
(109,177,o),
(107,158,o),
(107,144,cs),
(107,46,o),
(215,-12,o),
(362,-12,cs)
);
},
{
closed = 1;
nodes = (
(728,397,o),
(825,440,o),
(838,527,cs),
(848,590,o),
(824,635,o),
(772,635,cs),
(738,635,o),
(717,612,o),
(712,588,cs),
(702,522,o),
(795,543,o),
(785,481,cs),
(779,443,o),
(711,413,o),
(612,394,c),
(612,382,l)
);
}
);
width = 798;
}
);
unicode = 431;
},
{
color = 3;
glyphname = V;
kernLeft = V;
kernRight = V;
lastChange = "2024-10-18 09:20:41 +0000";
layers = (
{
anchors = (
{
name = bottom;
pos = (272,0);
},
{
name = top;
pos = (372,629);
}
);
hints = (
{
horizontal = 1;
origin = (0,40);
target = up;
type = BottomGhost;
},
{
horizontal = 1;
origin = (0,35);
target = (0,36);
type = Stem;
}
);
layerId = "3F96BAE2-444C-49D6-BFC1-9C0488685DF2";
shapes = (
{
closed = 1;
nodes = (
(238,-10,l),
(579,548,ls),
(601,583,o),
(620,604,o),
(664,605,c),
(668,632,l),
(647,630,o),
(595,629,o),
(579,629,cs),
(551,629,o),
(513,630,o),
(481,632,c),
(477,605,l),
(493,605,ls),
(531,605,o),
(550,597,o),
(550,577,cs),
(550,564,o),
(545,551,o),
(536,536,cs),
(251,65,l),
(282,90,l),
(225,514,ls),
(222,534,o),
(220,556,o),
(220,569,cs),
(220,601,o),
(246,605,o),
(302,605,c),
(306,632,l),
(264,630,o),
(223,629,o),
(185,629,cs),
(150,629,o),
(109,630,o),
(67,632,c),
(63,605,l),
(127,605,o),
(140,604,o),
(151,525,cs),
(223,-10,l)
);
}
);
width = 591;
},
{
anchors = (
{
name = bottom;
pos = (283,0);
},
{
name = top;
pos = (383,629);
}
);
background = {
shapes = (
{
closed = 1;
nodes = (
(685,631,o),
(651,630,o),
(632,630,cs),
(590,630,o),
(556,631,o),
(529,633,c),
(525,605,l),
(545,605,ls),
(570,605,o),
(592,603,o),
(592,579,cs),
(592,561,o),
(573,530,o),
(560,508,cs),
(279,37,l),
(332,101,l),
(264,541,ls),
(263,550,o),
(262,560,o),
(262,568,cs),
(262,597,o),
(278,602,o),
(341,605,c),
(345,633,l),
(300,632,o),
(208,630,o),
(184,630,cs),
(155,630,o),
(110,631,o),
(62,633,c),
(58,606,l),
(116,606,o),
(129,592,o),
(143,509,cs),
(229,-11,l),
(285,-11,l),
(610,521,ls),
(648,583,o),
(658,605,o),
(721,606,c),
(726,633,l)
);
}
);
};
layerId = "DA9A1FD1-A1AE-48D8-AEBB-5D2735E579CD";
shapes = (
{
closed = 1;
nodes = (
(267,-10,l),
(608,548,ls),
(630,583,o),
(649,604,o),
(693,605,c),
(697,632,l),
(676,630,o),
(624,629,o),
(608,629,cs),
(576,629,o),
(538,630,o),
(506,632,c),
(502,605,l),
(518,605,ls),
(556,605,o),
(575,597,o),
(575,577,cs),
(575,564,o),
(570,551,o),
(561,536,cs),
(276,68,l),
(331,111,l),
(277,514,ls),
(274,534,o),
(272,556,o),
(272,569,cs),
(272,601,o),
(298,605,o),
(354,605,c),
(358,632,l),
(316,630,o),
(275,629,o),
(214,629,cs),
(149,629,o),
(108,630,o),
(66,632,c),
(62,605,l),
(126,605,o),
(139,604,o),
(150,525,cs),
(222,-10,l)
);
}
);
width = 621;
},
{
anchors = (
{
name = bottom;
pos = (266,0);
},
{
name = top;
pos = (365,629);
}
);
layerId = "D87563F8-F81F-45D9-80E8-0AF800F60BE2";
shapes = (
{
closed = 1;
nodes = (
(236,-11,l),
(576,571,ls),
(593,600,o),
(616,622,o),
(654,623,c),
(656,634,l),
(639,632,o),
(609,631,o),
(571,631,cs),
(549,631,o),
(521,632,o),
(489,634,c),
(487,623,l),
(498,623,ls),
(541,623,o),
(561,614,o),
(561,597,cs),
(561,586,o),
(555,570,o),
(545,554,cs),
(259,63,l),
(281,71,l),
(225,532,ls),
(223,552,o),
(219,573,o),
(219,582,cs),
(219,618,o),
(246,623,o),
(302,623,c),
(304,634,l),
(262,632,o),
(221,631,o),
(187,631,cs),
(152,631,o),
(111,632,o),
(69,634,c),
(67,623,l),
(131,623,o),
(145,622,o),
(155,543,cs),
(225,-11,l)
);
}
);
width = 578;
},
{
anchors = (
{
name = bottom;
pos = (288,0);
},
{
name = top;
pos = (388,629);
}
);
layerId = "51D6B0A0-6F19-4220-A6A1-A0AA8B6A64E3";
shapes = (
{
closed = 1;
nodes = (
(268,-10,l),
(611,562,ls),
(632,597,o),
(652,618,o),
(696,619,c),
(698,632,l),
(677,630,o),
(625,629,o),
(609,629,cs),
(592,629,o),
(554,630,o),
(522,632,c),
(520,619,l),
(536,619,ls),
(574,619,o),
(595,611,o),
(595,591,cs),
(595,578,o),
(588,565,o),
(579,550,cs),
(308,95,l),
(333,103,l),
(277,528,ls),
(274,548,o),
(272,570,o),
(272,583,cs),
(272,615,o),
(298,619,o),
(354,619,c),
(356,632,l),
(314,630,o),
(273,629,o),
(215,629,cs),
(150,629,o),
(109,630,o),
(67,632,c),
(65,619,l),
(129,619,o),
(143,618,o),
(153,539,cs),
(223,-10,l)
);
}
);
width = 621;
}
);
note = V;
unicode = 86;
},
{
color = 4;
glyphname = uni0194;
kernLeft = V;
kernRight = V;
lastChange = "2024-10-18 09:40:20 +0000";
layers = (
{
layerId = "3F96BAE2-444C-49D6-BFC1-9C0488685DF2";
shapes = (
{
closed = 1;
nodes = (
(291,-188,o),
(334,-136,o),
(344,-73,cs),
(353,-16,o),
(347,32,o),
(318,150,cs),
(218,552,ls),
(216,561,o),
(214,573,o),
(215,580,cs),
(219,604,o),
(246,605,o),
(282,605,c),
(283,605,l),
(287,632,l),
(250,631,o),
(212,629,o),
(168,629,cs),
(135,629,o),
(103,631,o),
(67,632,c),
(63,605,l),
(64,605,l),
(120,605,o),
(130,590,o),
(148,519,cs),
(254,99,ls),
(276,13,o),
(284,-44,o),
(274,-104,cs),
(269,-138,o),
(248,-163,o),
(227,-163,cs),
(212,-163,o),
(201,-148,o),
(208,-107,cs),
(216,-58,o),
(246,-1,o),
(309,108,cs),
(556,534,ls),
(585,584,o),
(599,605,o),
(644,605,cs),
(662,605,l),
(666,632,l),
(644,632,o),
(605,629,o),
(575,629,cs),
(538,629,o),
(493,632,o),
(478,632,c),
(474,605,l),
(496,605,ls),
(521,605,o),
(537,598,o),
(533,573,cs),
(530,557,o),
(521,535,o),
(505,507,cs),
(286,126,ls),
(218,8,o),
(183,-55,o),
(175,-109,cs),
(166,-163,o),
(190,-188,o),
(230,-188,cs)
);
}
);
width = 590;
},
{
layerId = "DA9A1FD1-A1AE-48D8-AEBB-5D2735E579CD";
shapes = (
{
closed = 1;
nodes = (
(347,-188,o),
(409,-136,o),
(426,-28,cs),
(433,13,o),
(439,74,o),
(398,209,cs),
(310,498,ls),
(305,514,o),
(299,543,o),
(302,565,cs),
(307,599,o),
(347,605,o),
(378,605,c),
(379,605,l),
(383,632,l),
(351,632,o),
(285,629,o),
(223,629,cs),
(185,629,o),
(121,632,o),
(65,632,c),
(61,605,l),
(71,605,ls),
(132,605,o),
(145,579,o),
(166,508,cs),
(290,95,ls),
(316,9,o),
(318,-56,o),
(312,-96,cs),
(307,-125,o),
(293,-144,o),
(269,-144,cs),
(251,-144,o),
(233,-128,o),
(240,-84,cs),
(248,-28,o),
(297,43,o),
(386,177,cs),
(590,483,ls),
(660,588,o),
(677,605,o),
(735,605,c),
(737,605,l),
(741,632,l),
(710,632,o),
(652,629,o),
(636,629,cs),
(619,629,o),
(555,632,o),
(534,632,c),
(530,605,l),
(531,605,l),
(568,605,o),
(599,603,o),
(592,563,cs),
(588,538,o),
(579,525,o),
(548,480,cs),
(387,245,ls),
(297,99,o),
(212,-10,o),
(200,-86,cs),
(190,-153,o),
(213,-188,o),
(276,-188,cs)
);
}
);
width = 665;
},
{
layerId = "D87563F8-F81F-45D9-80E8-0AF800F60BE2";
shapes = (
{
closed = 1;
nodes = (
(299,-188,o),
(339,-136,o),
(349,-73,cs),
(358,-16,o),
(351,29,o),
(322,147,cs),
(220,568,ls),
(218,577,o),
(222,590,o),
(216,596,cs),
(220,620,o),
(247,621,o),
(283,621,c),
(284,621,l),
(286,632,l),
(249,631,o),
(216,629,o),
(180,629,cs),
(144,629,o),
(107,631,o),
(68,632,c),
(66,621,l),
(67,621,l),
(132,621,o),
(136,606,o),
(153,536,cs),
(256,108,ls),
(277,22,o),
(292,-44,o),
(282,-104,cs),
(277,-138,o),
(258,-163,o),
(239,-163,cs),
(217,-163,o),
(204,-148,o),
(211,-107,cs),
(219,-58,o),
(253,-2,o),
(302,84,cs),
(567,550,ls),
(595,599,o),
(611,621,o),
(658,621,cs),
(676,621,l),
(678,632,l),
(656,632,o),
(617,629,o),
(587,629,cs),
(555,629,o),
(510,632,o),
(496,632,c),
(494,621,l),
(516,621,ls),
(545,621,o),
(562,615,o),
(558,590,cs),
(556,573,o),
(549,557,o),
(533,529,cs),
(304,126,ls),
(236,6,o),
(195,-55,o),
(187,-109,cs),
(178,-163,o),
(202,-188,o),
(242,-188,cs)
);
}
);
width = 600;
},
{
layerId = "51D6B0A0-6F19-4220-A6A1-A0AA8B6A64E3";
shapes = (
{
closed = 1;
nodes = (
(348,-188,o),
(407,-136,o),
(424,-28,cs),
(431,13,o),
(433,68,o),
(395,204,cs),
(310,512,ls),
(306,528,o),
(298,560,o),
(302,582,cs),
(307,616,o),
(341,619,o),
(368,619,c),
(369,619,l),
(371,632,l),
(339,632,o),
(273,629,o),
(226,629,cs),
(188,629,o),
(124,632,o),
(68,632,c),
(66,619,l),
(76,619,ls),
(138,619,o),
(150,593,o),
(170,522,cs),
(283,115,ls),
(310,19,o),
(312,-52,o),
(305,-96,cs),
(299,-134,o),
(288,-159,o),
(270,-159,cs),
(248,-159,o),
(227,-139,o),
(235,-89,cs),
(245,-24,o),
(295,51,o),
(400,214,cs),
(594,516,ls),
(654,610,o),
(680,619,o),
(740,619,c),
(742,619,l),
(744,632,l),
(713,632,o),
(655,629,o),
(639,629,cs),
(622,629,o),
(558,632,o),
(537,632,c),
(535,619,l),
(536,619,l),
(571,619,o),
(599,617,o),
(593,577,cs),
(589,551,o),
(583,536,o),
(553,489,cs),
(389,235,ls),
(295,90,o),
(222,-12,o),
(209,-92,cs),
(199,-155,o),
(222,-188,o),
(287,-188,cs)
);
}
);
width = 666;
}
);
metricLeft = v.sc;
metricRight = v.sc;
unicode = 404;
},
{
color = 3;
glyphname = Vhook;
kernLeft = U;
kernRight = J;
lastChange = "2024-10-18 09:42:43 +0000";
layers = (
{
layerId = "3F96BAE2-444C-49D6-BFC1-9C0488685DF2";
shapes = (
{
closed = 1;
nodes = (
(489,-12,o),
(555,95,o),
(570,189,cs),
(609,437,ls),
(626,547,o),
(613,637,o),
(499,637,cs),
(452,637,o),
(420,622,o),
(417,600,cs),
(414,581,o),
(425,569,o),
(444,569,cs),
(472,569,o),
(496,614,o),
(526,614,cs),
(571,614,o),
(591,560,o),
(579,486,cs),
(532,188,ls),
(513,68,o),
(439,16,o),
(317,16,cs),
(232,16,o),
(177,59,o),
(177,121,cs),
(177,132,o),
(179,150,o),
(182,170,cs),
(238,522,ls),
(247,576,o),
(250,603,o),
(322,603,cs),
(335,603,l),
(340,632,l),
(302,630,o),
(261,629,o),
(224,629,cs),
(183,629,o),
(145,630,o),
(101,632,c),
(97,603,l),
(114,603,ls),
(156,603,o),
(171,593,o),
(171,568,cs),
(171,557,o),
(167,535,o),
(165,522,cs),
(114,199,ls),
(109,169,o),
(106,144,o),
(106,130,cs),
(106,49,o),
(195,-12,o),
(317,-12,cs)
);
}
);
width = 665;
},
{
layerId = "DA9A1FD1-A1AE-48D8-AEBB-5D2735E579CD";
shapes = (
{
closed = 1;
nodes = (
(520,-12,o),
(606,72,o),
(629,218,cs),
(664,437,ls),
(682,547,o),
(663,637,o),
(543,637,cs),
(484,637,o),
(443,612,o),
(439,582,cs),
(436,565,o),
(446,549,o),
(465,549,cs),
(507,549,o),
(521,604,o),
(568,604,cs),
(613,604,o),
(632,556,o),
(622,496,cs),
(574,188,ls),
(559,96,o),
(502,18,o),
(363,18,cs),
(283,18,o),
(234,65,o),
(234,122,cs),
(234,137,o),
(236,155,o),
(239,173,cs),
(292,523,ls),
(300,577,o),
(304,604,o),
(376,604,cs),
(389,604,l),
(394,632,l),
(356,630,o),
(315,629,o),
(278,629,cs),
(216,629,o),
(156,630,o),
(99,632,c),
(95,604,l),
(112,604,ls),
(154,604,o),
(169,592,o),
(169,565,cs),
(169,556,o),
(165,536,o),
(163,523,cs),
(114,213,ls),
(108,177,o),
(106,158,o),
(106,144,cs),
(106,46,o),
(214,-12,o),
(361,-12,cs)
);
}
);
width = 724;
},
{
layerId = "D87563F8-F81F-45D9-80E8-0AF800F60BE2";
shapes = (
{
closed = 1;
nodes = (
(490,-12,o),
(555,95,o),
(570,189,cs),
(611,448,ls),
(628,558,o),
(616,637,o),
(509,637,cs),
(462,637,o),
(430,621,o),
(426,598,cs),
(423,580,o),
(435,569,o),
(454,569,cs),
(481,569,o),
(507,623,o),
(537,623,cs),
(581,623,o),
(604,575,o),
(594,513,cs),
(540,174,ls),
(522,60,o),
(445,3,o),
(321,3,cs),
(236,3,o),
(177,52,o),
(177,121,cs),
(177,127,o),
(177,138,o),
(182,170,cs),
(240,540,ls),
(248,594,o),
(252,621,o),
(324,621,cs),
(337,621,l),
(339,632,l),
(301,630,o),
(261,629,o),
(224,629,cs),
(183,629,o),
(149,630,o),
(105,632,c),
(103,621,l),
(120,621,ls),
(162,621,o),
(177,610,o),
(177,585,cs),
(177,574,o),
(173,551,o),
(171,538,cs),
(118,199,ls),
(112,163,o),
(110,144,o),
(110,130,cs),
(110,49,o),
(199,-12,o),
(321,-12,cs)
);
}
);
width = 679;
},
{
layerId = "51D6B0A0-6F19-4220-A6A1-A0AA8B6A64E3";
shapes = (
{
closed = 1;
nodes = (
(520,-12,o),
(608,60,o),
(633,218,cs),
(668,437,ls),
(686,547,o),
(663,637,o),
(543,637,cs),
(484,637,o),
(443,612,o),
(439,582,cs),
(436,565,o),
(446,549,o),
(465,549,cs),
(507,549,o),
(539,622,o),
(571,622,cs),
(619,622,o),
(643,567,o),
(634,508,cs),
(587,211,ls),
(568,94,o),
(506,5,o),
(364,5,cs),
(284,5,o),
(235,55,o),
(235,122,cs),
(235,137,o),
(237,155,o),
(240,173,cs),
(295,538,ls),
(303,592,o),
(307,619,o),
(379,619,cs),
(392,619,l),
(395,632,l),
(357,630,o),
(288,629,o),
(251,629,cs),
(189,629,o),
(157,630,o),
(100,632,c),
(98,619,l),
(115,619,ls),
(157,619,o),
(172,607,o),
(172,580,cs),
(172,571,o),
(168,551,o),
(166,538,cs),
(115,213,ls),
(109,177,o),
(107,158,o),
(107,144,cs),
(107,46,o),
(215,-12,o),
(362,-12,cs)
);
}
);
width = 726;
}
);
metricRight = "=O*1.8";
unicode = 434;
},
